<svg width="271" height="268" viewBox="0 0 271 268" fill="none" xmlns="http://www.w3.org/2000/svg">
<g filter="url(#filter0_d_23_107)">
<rect x="6" width="265" height="262" fill="white"/>
<rect x="8.5" y="2.5" width="260" height="257" stroke="#333333" stroke-width="5"/>
</g>
<path d="M104.855 189.27C105.184 189.68 105.412 190.113 105.541 190.57C105.682 191.016 105.752 191.473 105.752 191.941C105.752 192.938 105.576 193.816 105.225 194.578C104.885 195.34 104.398 195.979 103.766 196.494C103.145 197.01 102.395 197.402 101.516 197.672C100.648 197.93 99.6875 198.059 98.6328 198.059C98.0117 198.059 97.4375 198 96.9102 197.883C96.3828 197.754 95.9844 197.607 95.7148 197.443C95.5156 197.643 95.3457 197.865 95.2051 198.111C95.0645 198.346 94.9941 198.615 94.9941 198.92C94.9941 199.107 95.041 199.295 95.1348 199.482C95.2285 199.67 95.3633 199.84 95.5391 199.992C95.7266 200.133 95.9434 200.25 96.1895 200.344C96.4473 200.438 96.7344 200.49 97.0508 200.502L101.287 200.66C102.236 200.684 103.092 200.807 103.854 201.029C104.627 201.24 105.289 201.545 105.84 201.943C106.391 202.342 106.812 202.828 107.105 203.402C107.41 203.965 107.562 204.609 107.562 205.336C107.562 206.168 107.375 206.953 107 207.691C106.625 208.43 106.057 209.068 105.295 209.607C104.545 210.158 103.607 210.592 102.482 210.908C101.357 211.225 100.051 211.383 98.5625 211.383C97.1211 211.383 95.8789 211.266 94.8359 211.031C93.8047 210.809 92.9551 210.492 92.2871 210.082C91.6309 209.672 91.1445 209.18 90.8281 208.605C90.5117 208.043 90.3535 207.422 90.3535 206.742C90.3535 206.332 90.4062 205.951 90.5117 205.6C90.6172 205.248 90.7754 204.908 90.9863 204.58C91.1973 204.264 91.4609 203.953 91.7773 203.648C92.0938 203.344 92.4688 203.039 92.9023 202.734C92.3281 202.406 91.8887 201.984 91.584 201.469C91.291 200.953 91.1445 200.402 91.1445 199.816C91.1445 199.418 91.1973 199.049 91.3027 198.709C91.4082 198.357 91.543 198.023 91.707 197.707C91.8828 197.391 92.082 197.086 92.3047 196.793C92.5273 196.5 92.7617 196.213 93.0078 195.932C92.5742 195.498 92.2109 194.977 91.918 194.367C91.6367 193.746 91.4961 192.973 91.4961 192.047C91.4961 191.051 91.6719 190.166 92.0234 189.393C92.3867 188.607 92.8848 187.951 93.5176 187.424C94.1504 186.885 94.9004 186.48 95.7676 186.211C96.6465 185.93 97.6016 185.789 98.6328 185.789C99.1602 185.789 99.6641 185.818 100.145 185.877C100.637 185.924 101.082 186.012 101.48 186.141H107.668V189.27H104.855ZM94.748 206.373C94.748 207.064 95.0938 207.574 95.7852 207.902C96.4883 208.23 97.4727 208.395 98.7383 208.395C99.5469 208.395 100.227 208.318 100.777 208.166C101.34 208.014 101.797 207.814 102.148 207.568C102.5 207.322 102.752 207.035 102.904 206.707C103.057 206.379 103.133 206.039 103.133 205.688C103.133 205.371 103.057 205.102 102.904 204.879C102.764 204.668 102.559 204.486 102.289 204.334C102.031 204.193 101.721 204.082 101.357 204C101.006 203.93 100.613 203.883 100.18 203.859L96.4004 203.789C96.0605 204.023 95.7793 204.246 95.5566 204.457C95.3457 204.668 95.1758 204.873 95.0469 205.072C94.9297 205.283 94.8477 205.494 94.8008 205.705C94.7656 205.916 94.748 206.139 94.748 206.373ZM95.4688 192.047C95.4688 192.996 95.7441 193.752 96.2949 194.314C96.8574 194.865 97.6367 195.141 98.6328 195.141C99.1602 195.141 99.6172 195.053 100.004 194.877C100.402 194.701 100.73 194.467 100.988 194.174C101.246 193.881 101.439 193.541 101.568 193.154C101.697 192.768 101.762 192.363 101.762 191.941C101.762 190.945 101.48 190.172 100.918 189.621C100.367 189.059 99.5938 188.777 98.5977 188.777C98.0703 188.777 97.6074 188.865 97.209 189.041C96.8223 189.217 96.5 189.457 96.2422 189.762C95.9844 190.055 95.791 190.4 95.6621 190.799C95.5332 191.197 95.4688 191.613 95.4688 192.047ZM115.508 186.141V197.777C115.508 198.75 115.689 199.488 116.053 199.992C116.416 200.484 116.967 200.73 117.705 200.73C118.42 200.73 119.105 200.438 119.762 199.852C120.43 199.254 121.133 198.451 121.871 197.443V186.141H126.16V204H122.451L122.346 201.363C121.971 201.82 121.59 202.236 121.203 202.611C120.816 202.986 120.395 203.309 119.938 203.578C119.492 203.836 119 204.035 118.461 204.176C117.934 204.328 117.348 204.404 116.703 204.404C115.789 204.404 114.986 204.258 114.295 203.965C113.615 203.66 113.047 203.232 112.59 202.682C112.133 202.131 111.787 201.475 111.553 200.713C111.33 199.939 111.219 199.078 111.219 198.129V186.141H115.508ZM146.604 193.699C146.604 193.992 146.592 194.373 146.568 194.842C146.557 195.311 146.533 195.75 146.498 196.16H134.756C134.756 196.945 134.873 197.637 135.107 198.234C135.354 198.832 135.693 199.336 136.127 199.746C136.572 200.145 137.1 200.449 137.709 200.66C138.33 200.871 139.016 200.977 139.766 200.977C140.633 200.977 141.559 200.912 142.543 200.783C143.539 200.643 144.57 200.42 145.637 200.115V203.525C145.18 203.654 144.682 203.771 144.143 203.877C143.604 203.982 143.053 204.076 142.49 204.158C141.928 204.24 141.359 204.299 140.785 204.334C140.211 204.381 139.654 204.404 139.115 204.404C137.756 204.404 136.537 204.211 135.459 203.824C134.381 203.438 133.467 202.869 132.717 202.119C131.967 201.357 131.393 200.42 130.994 199.307C130.596 198.193 130.396 196.904 130.396 195.439C130.396 193.986 130.596 192.668 130.994 191.484C131.393 190.289 131.955 189.27 132.682 188.426C133.408 187.57 134.287 186.914 135.318 186.457C136.361 185.988 137.521 185.754 138.799 185.754C140.064 185.754 141.184 185.953 142.156 186.352C143.129 186.738 143.943 187.283 144.6 187.986C145.256 188.689 145.754 189.527 146.094 190.5C146.434 191.473 146.604 192.539 146.604 193.699ZM142.244 193.084C142.256 192.381 142.168 191.771 141.98 191.256C141.793 190.729 141.535 190.295 141.207 189.955C140.891 189.615 140.516 189.363 140.082 189.199C139.66 189.035 139.203 188.953 138.711 188.953C137.633 188.953 136.748 189.316 136.057 190.043C135.365 190.758 134.955 191.771 134.826 193.084H142.244ZM165.57 198.744C165.57 199.764 165.342 200.637 164.885 201.363C164.439 202.078 163.842 202.664 163.092 203.121C162.354 203.566 161.51 203.889 160.561 204.088C159.623 204.299 158.662 204.404 157.678 204.404C156.365 204.404 155.182 204.34 154.127 204.211C153.072 204.094 152.076 203.918 151.139 203.684V199.816C152.24 200.273 153.336 200.607 154.426 200.818C155.527 201.018 156.564 201.117 157.537 201.117C158.662 201.117 159.5 200.941 160.051 200.59C160.613 200.227 160.895 199.758 160.895 199.184C160.895 198.914 160.836 198.668 160.719 198.445C160.602 198.223 160.379 198.012 160.051 197.812C159.734 197.602 159.283 197.391 158.697 197.18C158.111 196.957 157.344 196.711 156.395 196.441C155.516 196.195 154.742 195.92 154.074 195.615C153.418 195.299 152.873 194.93 152.439 194.508C152.006 194.086 151.678 193.6 151.455 193.049C151.244 192.486 151.139 191.83 151.139 191.08C151.139 190.354 151.303 189.668 151.631 189.023C151.959 188.379 152.445 187.816 153.09 187.336C153.746 186.844 154.561 186.457 155.533 186.176C156.506 185.895 157.643 185.754 158.943 185.754C160.068 185.754 161.064 185.812 161.932 185.93C162.799 186.047 163.566 186.176 164.234 186.316V189.814C163.215 189.486 162.254 189.258 161.352 189.129C160.461 188.988 159.576 188.918 158.697 188.918C157.818 188.918 157.109 189.076 156.57 189.393C156.043 189.709 155.779 190.148 155.779 190.711C155.779 190.98 155.832 191.221 155.938 191.432C156.043 191.643 156.248 191.848 156.553 192.047C156.869 192.246 157.303 192.457 157.854 192.68C158.416 192.891 159.154 193.125 160.068 193.383C161.1 193.676 161.967 193.992 162.67 194.332C163.373 194.66 163.936 195.035 164.357 195.457C164.791 195.879 165.102 196.359 165.289 196.898C165.477 197.438 165.57 198.053 165.57 198.744ZM185.363 203.824C184.59 204 183.811 204.141 183.025 204.246C182.24 204.352 181.496 204.404 180.793 204.404C179.621 204.404 178.607 204.281 177.752 204.035C176.908 203.789 176.205 203.414 175.643 202.91C175.092 202.406 174.682 201.768 174.412 200.994C174.154 200.209 174.025 199.277 174.025 198.199V189.48H169.227V186.141H174.025V181.57L178.42 180.428V186.141H185.363V189.48H178.42V197.883C178.42 198.902 178.654 199.676 179.123 200.203C179.592 200.719 180.377 200.977 181.479 200.977C182.182 200.977 182.867 200.918 183.535 200.801C184.203 200.684 184.812 200.549 185.363 200.396V203.824Z" fill="#333333"/>
<path d="M174.758 126.4C160.429 123.092 147.087 120.192 153.55 107.992C173.212 70.8583 158.762 51 138 51C116.825 51 102.729 71.6208 122.45 107.992C129.108 120.262 115.262 123.162 101.242 126.4C88.8292 129.267 88 135.329 88 145.829L88.0208 151H96.3333C96.3333 137.942 95.8125 136.208 103.992 134.321C115.871 131.583 127.087 128.996 131.179 119.921C132.675 116.608 133.646 111.158 129.771 104.025C121.196 88.1958 119.029 74.4875 123.842 66.4167C129.483 56.9375 146.45 56.9833 152.037 66.275C156.829 74.2375 154.7 88.0208 146.192 104.092C142.4 111.254 143.396 116.688 144.9 119.983C149.025 129.012 160.346 131.625 172.333 134.392C180.162 136.208 179.667 138.067 179.667 151H187.979L188 145.829C188 135.329 187.171 129.267 174.758 126.4Z" fill="#333333"/>
<defs>
<filter id="filter0_d_23_107" x="0" y="0" width="271" height="268" filterUnits="userSpaceOnUse" color-interpolation-filters="sRGB">
<feFlood flood-opacity="0" result="BackgroundImageFix"/>
<feColorMatrix in="SourceAlpha" type="matrix" values="0 0 0 0 0 0 0 0 0 0 0 0 0 0 0 0 0 0 127 0" result="hardAlpha"/>
<feOffset dx="-6" dy="6"/>
<feComposite in2="hardAlpha" operator="out"/>
<feColorMatrix type="matrix" values="0 0 0 0 0 0 0 0 0 0 0 0 0 0 0 0 0 0 0.25 0"/>
<feBlend mode="normal" in2="BackgroundImageFix" result="effect1_dropShadow_23_107"/>
<feBlend mode="normal" in="SourceGraphic" in2="effect1_dropShadow_23_107" result="shape"/>
</filter>
</defs>
</svg>
