<svg width="268" height="266" viewBox="0 0 268 266" fill="none" xmlns="http://www.w3.org/2000/svg">
<g filter="url(#filter0_d_23_102)">
<rect x="6" width="262" height="260" fill="white"/>
<rect x="8.5" y="2.5" width="257" height="255" stroke="#333333" stroke-width="5"/>
</g>
<path d="M41.2344 204V192.363C41.2344 190.406 40.5078 189.428 39.0547 189.428C38.3281 189.428 37.6309 189.721 36.9629 190.307C36.3066 190.893 35.6094 191.689 34.8711 192.697V204H30.582V186.141H34.291L34.3965 188.777C34.7598 188.32 35.1348 187.904 35.5215 187.529C35.9199 187.154 36.3477 186.838 36.8047 186.58C37.2617 186.311 37.7539 186.105 38.2812 185.965C38.8086 185.824 39.4004 185.754 40.0566 185.754C40.9707 185.754 41.7676 185.906 42.4473 186.211C43.127 186.504 43.6953 186.926 44.1523 187.477C44.6094 188.016 44.9492 188.672 45.1719 189.445C45.4062 190.207 45.5234 191.062 45.5234 192.012V204H41.2344ZM65.9316 193.699C65.9316 193.992 65.9199 194.373 65.8965 194.842C65.8848 195.311 65.8613 195.75 65.8262 196.16H54.084C54.084 196.945 54.2012 197.637 54.4355 198.234C54.6816 198.832 55.0215 199.336 55.4551 199.746C55.9004 200.145 56.4277 200.449 57.0371 200.66C57.6582 200.871 58.3438 200.977 59.0938 200.977C59.9609 200.977 60.8867 200.912 61.8711 200.783C62.8672 200.643 63.8984 200.42 64.9648 200.115V203.525C64.5078 203.654 64.0098 203.771 63.4707 203.877C62.9316 203.982 62.3809 204.076 61.8184 204.158C61.2559 204.24 60.6875 204.299 60.1133 204.334C59.5391 204.381 58.9824 204.404 58.4434 204.404C57.084 204.404 55.8652 204.211 54.7871 203.824C53.709 203.438 52.7949 202.869 52.0449 202.119C51.2949 201.357 50.7207 200.42 50.3223 199.307C49.9238 198.193 49.7246 196.904 49.7246 195.439C49.7246 193.986 49.9238 192.668 50.3223 191.484C50.7207 190.289 51.2832 189.27 52.0098 188.426C52.7363 187.57 53.6152 186.914 54.6465 186.457C55.6895 185.988 56.8496 185.754 58.127 185.754C59.3926 185.754 60.5117 185.953 61.4844 186.352C62.457 186.738 63.2715 187.283 63.9277 187.986C64.584 188.689 65.082 189.527 65.4219 190.5C65.7617 191.473 65.9316 192.539 65.9316 193.699ZM61.5723 193.084C61.584 192.381 61.4961 191.771 61.3086 191.256C61.1211 190.729 60.8633 190.295 60.5352 189.955C60.2188 189.615 59.8438 189.363 59.4102 189.199C58.9883 189.035 58.5312 188.953 58.0391 188.953C56.9609 188.953 56.0762 189.316 55.3848 190.043C54.6934 190.758 54.2832 191.771 54.1543 193.084H61.5723ZM84.8281 204H80.0645L78.166 198.34L77.5859 196.371L77.0059 198.393L75.1777 204H70.3965L67.8652 186.141H71.9434L73.2266 196.23L73.5254 198.99L74.2461 196.512L76.0391 191.08H79.3086L81.2246 196.477L82.0508 199.025L82.3848 196.195L83.457 186.141H87.3418L84.8281 204ZM120.951 204L120.846 201.662C120.471 202.061 120.078 202.43 119.668 202.77C119.258 203.098 118.807 203.385 118.314 203.631C117.822 203.877 117.283 204.064 116.697 204.193C116.123 204.334 115.49 204.404 114.799 204.404C113.885 204.404 113.082 204.27 112.391 204C111.699 203.73 111.119 203.355 110.65 202.875C110.182 202.395 109.824 201.814 109.578 201.135C109.344 200.455 109.227 199.705 109.227 198.885C109.227 198.041 109.402 197.262 109.754 196.547C110.117 195.832 110.662 195.217 111.389 194.701C112.127 194.186 113.041 193.781 114.131 193.488C115.232 193.195 116.521 193.049 117.998 193.049H120.336V191.977C120.336 191.52 120.271 191.109 120.143 190.746C120.014 190.371 119.803 190.055 119.51 189.797C119.229 189.539 118.859 189.34 118.402 189.199C117.945 189.059 117.383 188.988 116.715 188.988C115.66 188.988 114.617 189.111 113.586 189.357C112.566 189.592 111.576 189.926 110.615 190.359V186.932C111.471 186.592 112.455 186.311 113.568 186.088C114.693 185.865 115.859 185.754 117.066 185.754C118.391 185.754 119.527 185.883 120.477 186.141C121.426 186.387 122.205 186.762 122.814 187.266C123.436 187.77 123.893 188.402 124.186 189.164C124.479 189.914 124.625 190.793 124.625 191.801V204H120.951ZM120.336 196.107H117.717C116.99 196.107 116.375 196.178 115.871 196.318C115.367 196.459 114.957 196.652 114.641 196.898C114.324 197.145 114.09 197.432 113.938 197.76C113.797 198.076 113.727 198.416 113.727 198.779C113.727 199.506 113.961 200.062 114.43 200.449C114.898 200.824 115.537 201.012 116.346 201.012C116.943 201.012 117.564 200.795 118.209 200.361C118.854 199.928 119.562 199.307 120.336 198.498V196.107ZM143.996 203.314C143.152 203.654 142.279 203.906 141.377 204.07C140.475 204.234 139.531 204.316 138.547 204.316C137.129 204.316 135.857 204.123 134.732 203.736C133.607 203.35 132.652 202.775 131.867 202.014C131.082 201.252 130.479 200.309 130.057 199.184C129.646 198.059 129.441 196.758 129.441 195.281C129.441 193.852 129.664 192.557 130.109 191.396C130.566 190.236 131.205 189.246 132.025 188.426C132.846 187.605 133.83 186.973 134.979 186.527C136.139 186.082 137.428 185.859 138.846 185.859C140.006 185.859 140.979 185.924 141.764 186.053C142.561 186.17 143.275 186.322 143.908 186.51V190.676C143.182 190.312 142.391 190.031 141.535 189.832C140.691 189.633 139.889 189.533 139.127 189.533C138.33 189.533 137.615 189.668 136.982 189.938C136.35 190.207 135.816 190.582 135.383 191.062C134.949 191.543 134.615 192.129 134.381 192.82C134.158 193.5 134.047 194.25 134.047 195.07C134.047 195.926 134.17 196.693 134.416 197.373C134.662 198.053 135.008 198.633 135.453 199.113C135.91 199.582 136.455 199.945 137.088 200.203C137.721 200.449 138.424 200.572 139.197 200.572C139.572 200.572 139.965 200.549 140.375 200.502C140.797 200.443 141.213 200.367 141.623 200.273C142.045 200.168 142.455 200.051 142.854 199.922C143.264 199.793 143.645 199.652 143.996 199.5V203.314ZM163.789 203.314C162.945 203.654 162.072 203.906 161.17 204.07C160.268 204.234 159.324 204.316 158.34 204.316C156.922 204.316 155.65 204.123 154.525 203.736C153.4 203.35 152.445 202.775 151.66 202.014C150.875 201.252 150.271 200.309 149.85 199.184C149.439 198.059 149.234 196.758 149.234 195.281C149.234 193.852 149.457 192.557 149.902 191.396C150.359 190.236 150.998 189.246 151.818 188.426C152.639 187.605 153.623 186.973 154.771 186.527C155.932 186.082 157.221 185.859 158.639 185.859C159.799 185.859 160.771 185.924 161.557 186.053C162.354 186.17 163.068 186.322 163.701 186.51V190.676C162.975 190.312 162.184 190.031 161.328 189.832C160.484 189.633 159.682 189.533 158.92 189.533C158.123 189.533 157.408 189.668 156.775 189.938C156.143 190.207 155.609 190.582 155.176 191.062C154.742 191.543 154.408 192.129 154.174 192.82C153.951 193.5 153.84 194.25 153.84 195.07C153.84 195.926 153.963 196.693 154.209 197.373C154.455 198.053 154.801 198.633 155.246 199.113C155.703 199.582 156.248 199.945 156.881 200.203C157.514 200.449 158.217 200.572 158.99 200.572C159.365 200.572 159.758 200.549 160.168 200.502C160.59 200.443 161.006 200.367 161.416 200.273C161.838 200.168 162.248 200.051 162.646 199.922C163.057 199.793 163.438 199.652 163.789 199.5V203.314ZM185.217 194.93C185.217 196.336 185.018 197.625 184.619 198.797C184.221 199.957 183.646 200.953 182.896 201.785C182.146 202.617 181.227 203.262 180.137 203.719C179.047 204.176 177.805 204.404 176.41 204.404C175.086 204.404 173.902 204.211 172.859 203.824C171.816 203.438 170.932 202.863 170.205 202.102C169.479 201.328 168.922 200.367 168.535 199.219C168.148 198.059 167.955 196.711 167.955 195.176C167.955 193.758 168.154 192.469 168.553 191.309C168.963 190.148 169.543 189.158 170.293 188.338C171.055 187.518 171.98 186.885 173.07 186.439C174.16 185.982 175.391 185.754 176.762 185.754C178.098 185.754 179.287 185.953 180.33 186.352C181.373 186.738 182.258 187.318 182.984 188.092C183.711 188.865 184.262 189.826 184.637 190.975C185.023 192.111 185.217 193.43 185.217 194.93ZM180.752 195.035C180.752 193.184 180.4 191.795 179.697 190.869C179.006 189.932 177.98 189.463 176.621 189.463C175.871 189.463 175.232 189.609 174.705 189.902C174.178 190.195 173.744 190.6 173.404 191.115C173.064 191.619 172.812 192.211 172.648 192.891C172.496 193.57 172.42 194.297 172.42 195.07C172.42 196.934 172.795 198.34 173.545 199.289C174.295 200.227 175.32 200.695 176.621 200.695C177.336 200.695 177.957 200.555 178.484 200.273C179.012 199.98 179.439 199.582 179.768 199.078C180.096 198.562 180.342 197.959 180.506 197.268C180.67 196.576 180.752 195.832 180.752 195.035ZM193.18 186.141V197.777C193.18 198.75 193.361 199.488 193.725 199.992C194.088 200.484 194.639 200.73 195.377 200.73C196.092 200.73 196.777 200.438 197.434 199.852C198.102 199.254 198.805 198.451 199.543 197.443V186.141H203.832V204H200.123L200.018 201.363C199.643 201.82 199.262 202.236 198.875 202.611C198.488 202.986 198.066 203.309 197.609 203.578C197.164 203.836 196.672 204.035 196.133 204.176C195.605 204.328 195.02 204.404 194.375 204.404C193.461 204.404 192.658 204.258 191.967 203.965C191.287 203.66 190.719 203.232 190.262 202.682C189.805 202.131 189.459 201.475 189.225 200.713C189.002 199.939 188.891 199.078 188.891 198.129V186.141H193.18ZM219.371 204V192.363C219.371 190.406 218.645 189.428 217.191 189.428C216.465 189.428 215.768 189.721 215.1 190.307C214.443 190.893 213.746 191.689 213.008 192.697V204H208.719V186.141H212.428L212.533 188.777C212.896 188.32 213.271 187.904 213.658 187.529C214.057 187.154 214.484 186.838 214.941 186.58C215.398 186.311 215.891 186.105 216.418 185.965C216.945 185.824 217.537 185.754 218.193 185.754C219.107 185.754 219.904 185.906 220.584 186.211C221.264 186.504 221.832 186.926 222.289 187.477C222.746 188.016 223.086 188.672 223.309 189.445C223.543 190.207 223.66 191.062 223.66 192.012V204H219.371ZM243.242 203.824C242.469 204 241.689 204.141 240.904 204.246C240.119 204.352 239.375 204.404 238.672 204.404C237.5 204.404 236.486 204.281 235.631 204.035C234.787 203.789 234.084 203.414 233.521 202.91C232.971 202.406 232.561 201.768 232.291 200.994C232.033 200.209 231.904 199.277 231.904 198.199V189.48H227.105V186.141H231.904V181.57L236.299 180.428V186.141H243.242V189.48H236.299V197.883C236.299 198.902 236.533 199.676 237.002 200.203C237.471 200.719 238.256 200.977 239.357 200.977C240.061 200.977 240.746 200.918 241.414 200.801C242.082 200.684 242.691 200.549 243.242 200.396V203.824Z" fill="#333333"/>
<g clip-path="url(#clip0_23_102)">
<path d="M123.842 70.4167C119.033 78.4875 121.196 92.1958 129.775 108.021C133.65 115.154 132.679 120.604 131.183 123.917C127.092 132.992 115.871 135.579 103.996 138.317C95.8125 140.208 96.3333 141.942 96.3333 155H88.0208L88 149.829C88 139.329 88.8292 133.267 101.242 130.4C115.262 127.162 129.108 124.262 122.45 111.992C102.729 75.6208 116.825 55 138 55C151.837 55 162.875 63.8208 162.875 80.6958C162.875 95.5083 154.754 109.167 152.946 113.333H144.133C145.767 106.933 154.546 95.1417 154.546 80.6583C154.546 59.1875 130.1 59.8875 123.842 70.4167ZM188 136.25C188 146.604 179.596 155 169.25 155C158.904 155 150.5 146.604 150.5 136.25C150.5 125.896 158.904 117.5 169.25 117.5C179.596 117.5 188 125.896 188 136.25ZM179.667 134.167H171.333V125.833H167.167V134.167H158.833V138.333H167.167V146.667H171.333V138.333H179.667V134.167Z" fill="#333333"/>
</g>
<defs>
<filter id="filter0_d_23_102" x="0" y="0" width="268" height="266" filterUnits="userSpaceOnUse" color-interpolation-filters="sRGB">
<feFlood flood-opacity="0" result="BackgroundImageFix"/>
<feColorMatrix in="SourceAlpha" type="matrix" values="0 0 0 0 0 0 0 0 0 0 0 0 0 0 0 0 0 0 127 0" result="hardAlpha"/>
<feOffset dx="-6" dy="6"/>
<feComposite in2="hardAlpha" operator="out"/>
<feColorMatrix type="matrix" values="0 0 0 0 0 0 0 0 0 0 0 0 0 0 0 0 0 0 0.25 0"/>
<feBlend mode="normal" in2="BackgroundImageFix" result="effect1_dropShadow_23_102"/>
<feBlend mode="normal" in="SourceGraphic" in2="effect1_dropShadow_23_102" result="shape"/>
</filter>
<clipPath id="clip0_23_102">
<rect width="100" height="100" fill="white" transform="translate(88 55)"/>
</clipPath>
</defs>
</svg>
