<svg width="271" height="268" viewBox="0 0 271 268" fill="none" xmlns="http://www.w3.org/2000/svg">
<g filter="url(#filter0_d_81_20)">
<rect x="6" width="265" height="262" fill="white"/>
<rect x="8.5" y="2.5" width="260" height="257" stroke="#333333" stroke-width="5"/>
</g>
<path d="M105.611 171.141V182.777C105.611 183.75 105.793 184.488 106.156 184.992C106.52 185.484 107.07 185.73 107.809 185.73C108.523 185.73 109.209 185.438 109.865 184.852C110.533 184.254 111.236 183.451 111.975 182.443V171.141H116.264V189H112.555L112.449 186.363C112.074 186.82 111.693 187.236 111.307 187.611C110.92 187.986 110.498 188.309 110.041 188.578C109.596 188.836 109.104 189.035 108.564 189.176C108.037 189.328 107.451 189.404 106.807 189.404C105.893 189.404 105.09 189.258 104.398 188.965C103.719 188.66 103.15 188.232 102.693 187.682C102.236 187.131 101.891 186.475 101.656 185.713C101.434 184.939 101.322 184.078 101.322 183.129V171.141H105.611ZM135.881 183.744C135.881 184.764 135.652 185.637 135.195 186.363C134.75 187.078 134.152 187.664 133.402 188.121C132.664 188.566 131.82 188.889 130.871 189.088C129.934 189.299 128.973 189.404 127.988 189.404C126.676 189.404 125.492 189.34 124.438 189.211C123.383 189.094 122.387 188.918 121.449 188.684V184.816C122.551 185.273 123.646 185.607 124.736 185.818C125.838 186.018 126.875 186.117 127.848 186.117C128.973 186.117 129.811 185.941 130.361 185.59C130.924 185.227 131.205 184.758 131.205 184.184C131.205 183.914 131.146 183.668 131.029 183.445C130.912 183.223 130.689 183.012 130.361 182.812C130.045 182.602 129.594 182.391 129.008 182.18C128.422 181.957 127.654 181.711 126.705 181.441C125.826 181.195 125.053 180.92 124.385 180.615C123.729 180.299 123.184 179.93 122.75 179.508C122.316 179.086 121.988 178.6 121.766 178.049C121.555 177.486 121.449 176.83 121.449 176.08C121.449 175.354 121.613 174.668 121.941 174.023C122.27 173.379 122.756 172.816 123.4 172.336C124.057 171.844 124.871 171.457 125.844 171.176C126.816 170.895 127.953 170.754 129.254 170.754C130.379 170.754 131.375 170.812 132.242 170.93C133.109 171.047 133.877 171.176 134.545 171.316V174.814C133.525 174.486 132.564 174.258 131.662 174.129C130.771 173.988 129.887 173.918 129.008 173.918C128.129 173.918 127.42 174.076 126.881 174.393C126.354 174.709 126.09 175.148 126.09 175.711C126.09 175.98 126.143 176.221 126.248 176.432C126.354 176.643 126.559 176.848 126.863 177.047C127.18 177.246 127.613 177.457 128.164 177.68C128.727 177.891 129.465 178.125 130.379 178.383C131.41 178.676 132.277 178.992 132.98 179.332C133.684 179.66 134.246 180.035 134.668 180.457C135.102 180.879 135.412 181.359 135.6 181.898C135.787 182.438 135.881 183.053 135.881 183.744ZM156.5 178.699C156.5 178.992 156.488 179.373 156.465 179.842C156.453 180.311 156.43 180.75 156.395 181.16H144.652C144.652 181.945 144.77 182.637 145.004 183.234C145.25 183.832 145.59 184.336 146.023 184.746C146.469 185.145 146.996 185.449 147.605 185.66C148.227 185.871 148.912 185.977 149.662 185.977C150.529 185.977 151.455 185.912 152.439 185.783C153.436 185.643 154.467 185.42 155.533 185.115V188.525C155.076 188.654 154.578 188.771 154.039 188.877C153.5 188.982 152.949 189.076 152.387 189.158C151.824 189.24 151.256 189.299 150.682 189.334C150.107 189.381 149.551 189.404 149.012 189.404C147.652 189.404 146.434 189.211 145.355 188.824C144.277 188.438 143.363 187.869 142.613 187.119C141.863 186.357 141.289 185.42 140.891 184.307C140.492 183.193 140.293 181.904 140.293 180.439C140.293 178.986 140.492 177.668 140.891 176.484C141.289 175.289 141.852 174.27 142.578 173.426C143.305 172.57 144.184 171.914 145.215 171.457C146.258 170.988 147.418 170.754 148.695 170.754C149.961 170.754 151.08 170.953 152.053 171.352C153.025 171.738 153.84 172.283 154.496 172.986C155.152 173.689 155.65 174.527 155.99 175.5C156.33 176.473 156.5 177.539 156.5 178.699ZM152.141 178.084C152.152 177.381 152.064 176.771 151.877 176.256C151.689 175.729 151.432 175.295 151.104 174.955C150.787 174.615 150.412 174.363 149.979 174.199C149.557 174.035 149.1 173.953 148.607 173.953C147.529 173.953 146.645 174.316 145.953 175.043C145.262 175.758 144.852 176.771 144.723 178.084H152.141ZM172.232 178.084C172.256 177.416 172.221 176.848 172.127 176.379C172.045 175.91 171.904 175.523 171.705 175.219C171.518 174.914 171.283 174.691 171.002 174.551C170.721 174.41 170.398 174.34 170.035 174.34C169.402 174.34 168.746 174.604 168.066 175.131C167.398 175.646 166.66 176.502 165.852 177.697V189H161.457V171.141H165.342L165.5 173.742C165.793 173.285 166.121 172.875 166.484 172.512C166.859 172.148 167.27 171.838 167.715 171.58C168.172 171.311 168.676 171.105 169.227 170.965C169.777 170.824 170.381 170.754 171.037 170.754C171.939 170.754 172.736 170.912 173.428 171.229C174.131 171.533 174.717 171.99 175.186 172.6C175.666 173.209 176.018 173.977 176.24 174.902C176.475 175.816 176.574 176.877 176.539 178.084H172.232ZM87.7344 221.754C87.7344 223.395 87.5 224.812 87.0312 226.008C86.5742 227.203 85.9297 228.199 85.0977 228.996C84.2773 229.781 83.3047 230.367 82.1797 230.754C81.0547 231.129 79.8301 231.316 78.5059 231.316C78.0605 231.316 77.6152 231.287 77.1699 231.229C76.7246 231.17 76.3203 231.094 75.957 231V237.979H71.668V213.141H75.377L75.4824 215.777C75.8457 215.32 76.2207 214.904 76.6074 214.529C77.0059 214.154 77.4336 213.838 77.8906 213.58C78.3477 213.311 78.8398 213.105 79.3672 212.965C79.8945 212.824 80.4863 212.754 81.1426 212.754C82.1973 212.754 83.1348 212.965 83.9551 213.387C84.7754 213.809 85.4609 214.412 86.0117 215.197C86.5742 215.971 87.002 216.914 87.2949 218.027C87.5879 219.129 87.7344 220.371 87.7344 221.754ZM83.2344 221.93C83.2344 220.945 83.1641 220.107 83.0234 219.416C82.8828 218.725 82.6777 218.156 82.4082 217.711C82.1504 217.266 81.8281 216.943 81.4414 216.744C81.0664 216.533 80.6328 216.428 80.1406 216.428C79.4141 216.428 78.7168 216.721 78.0488 217.307C77.3926 217.893 76.6953 218.689 75.957 219.697V227.502C76.2969 227.631 76.7129 227.736 77.2051 227.818C77.709 227.9 78.2188 227.941 78.7344 227.941C79.4141 227.941 80.0293 227.801 80.5801 227.52C81.1426 227.238 81.6172 226.84 82.0039 226.324C82.4023 225.809 82.707 225.182 82.918 224.443C83.1289 223.693 83.2344 222.855 83.2344 221.93ZM102.957 220.084C102.98 219.416 102.945 218.848 102.852 218.379C102.77 217.91 102.629 217.523 102.43 217.219C102.242 216.914 102.008 216.691 101.727 216.551C101.445 216.41 101.123 216.34 100.76 216.34C100.127 216.34 99.4707 216.604 98.791 217.131C98.123 217.646 97.3848 218.502 96.5762 219.697V231H92.1816V213.141H96.0664L96.2246 215.742C96.5176 215.285 96.8457 214.875 97.209 214.512C97.584 214.148 97.9941 213.838 98.4395 213.58C98.8965 213.311 99.4004 213.105 99.9512 212.965C100.502 212.824 101.105 212.754 101.762 212.754C102.664 212.754 103.461 212.912 104.152 213.229C104.855 213.533 105.441 213.99 105.91 214.6C106.391 215.209 106.742 215.977 106.965 216.902C107.199 217.816 107.299 218.877 107.264 220.084H102.957ZM127.338 221.93C127.338 223.336 127.139 224.625 126.74 225.797C126.342 226.957 125.768 227.953 125.018 228.785C124.268 229.617 123.348 230.262 122.258 230.719C121.168 231.176 119.926 231.404 118.531 231.404C117.207 231.404 116.023 231.211 114.98 230.824C113.938 230.438 113.053 229.863 112.326 229.102C111.6 228.328 111.043 227.367 110.656 226.219C110.27 225.059 110.076 223.711 110.076 222.176C110.076 220.758 110.275 219.469 110.674 218.309C111.084 217.148 111.664 216.158 112.414 215.338C113.176 214.518 114.102 213.885 115.191 213.439C116.281 212.982 117.512 212.754 118.883 212.754C120.219 212.754 121.408 212.953 122.451 213.352C123.494 213.738 124.379 214.318 125.105 215.092C125.832 215.865 126.383 216.826 126.758 217.975C127.145 219.111 127.338 220.43 127.338 221.93ZM122.873 222.035C122.873 220.184 122.521 218.795 121.818 217.869C121.127 216.932 120.102 216.463 118.742 216.463C117.992 216.463 117.354 216.609 116.826 216.902C116.299 217.195 115.865 217.6 115.525 218.115C115.186 218.619 114.934 219.211 114.77 219.891C114.617 220.57 114.541 221.297 114.541 222.07C114.541 223.934 114.916 225.34 115.666 226.289C116.416 227.227 117.441 227.695 118.742 227.695C119.457 227.695 120.078 227.555 120.605 227.273C121.133 226.98 121.561 226.582 121.889 226.078C122.217 225.562 122.463 224.959 122.627 224.268C122.791 223.576 122.873 222.832 122.873 222.035ZM147.078 209.801C146.562 209.637 145.947 209.502 145.232 209.396C144.529 209.279 143.809 209.221 143.07 209.221C142.566 209.221 142.098 209.291 141.664 209.432C141.23 209.561 140.855 209.771 140.539 210.064C140.223 210.357 139.971 210.732 139.783 211.189C139.607 211.635 139.52 212.18 139.52 212.824V215.707H146.533V219.047H139.52V231H135.195V219.047H130.01V215.707H135.195V213C135.195 211.734 135.377 210.65 135.74 209.748C136.115 208.834 136.637 208.09 137.305 207.516C137.984 206.93 138.799 206.502 139.748 206.232C140.697 205.963 141.758 205.828 142.93 205.828C143.703 205.828 144.436 205.881 145.127 205.986C145.83 206.08 146.48 206.197 147.078 206.338V209.801ZM161.352 208.254C161.352 208.641 161.281 209.004 161.141 209.344C161 209.684 160.801 209.982 160.543 210.24C160.297 210.486 160.004 210.686 159.664 210.838C159.324 210.979 158.955 211.049 158.557 211.049C158.158 211.049 157.783 210.979 157.432 210.838C157.092 210.686 156.793 210.486 156.535 210.24C156.289 209.982 156.096 209.684 155.955 209.344C155.814 209.004 155.744 208.641 155.744 208.254C155.744 207.867 155.814 207.504 155.955 207.164C156.096 206.824 156.289 206.525 156.535 206.268C156.793 206.01 157.092 205.811 157.432 205.67C157.783 205.518 158.158 205.441 158.557 205.441C158.955 205.441 159.324 205.518 159.664 205.67C160.004 205.811 160.297 206.01 160.543 206.268C160.801 206.525 161 206.824 161.141 207.164C161.281 207.504 161.352 207.867 161.352 208.254ZM156.605 216.48H151.561V213.141H161V227.66H166.15V231H150.945V227.66H156.605V216.48ZM176.398 209.502H171.354V206.162H180.793V227.66H185.943V231H170.738V227.66H176.398V209.502ZM205.982 220.699C205.982 220.992 205.971 221.373 205.947 221.842C205.936 222.311 205.912 222.75 205.877 223.16H194.135C194.135 223.945 194.252 224.637 194.486 225.234C194.732 225.832 195.072 226.336 195.506 226.746C195.951 227.145 196.479 227.449 197.088 227.66C197.709 227.871 198.395 227.977 199.145 227.977C200.012 227.977 200.938 227.912 201.922 227.783C202.918 227.643 203.949 227.42 205.016 227.115V230.525C204.559 230.654 204.061 230.771 203.521 230.877C202.982 230.982 202.432 231.076 201.869 231.158C201.307 231.24 200.738 231.299 200.164 231.334C199.59 231.381 199.033 231.404 198.494 231.404C197.135 231.404 195.916 231.211 194.838 230.824C193.76 230.438 192.846 229.869 192.096 229.119C191.346 228.357 190.771 227.42 190.373 226.307C189.975 225.193 189.775 223.904 189.775 222.439C189.775 220.986 189.975 219.668 190.373 218.484C190.771 217.289 191.334 216.27 192.061 215.426C192.787 214.57 193.666 213.914 194.697 213.457C195.74 212.988 196.9 212.754 198.178 212.754C199.443 212.754 200.562 212.953 201.535 213.352C202.508 213.738 203.322 214.283 203.979 214.986C204.635 215.689 205.133 216.527 205.473 217.5C205.812 218.473 205.982 219.539 205.982 220.699ZM201.623 220.084C201.635 219.381 201.547 218.771 201.359 218.256C201.172 217.729 200.914 217.295 200.586 216.955C200.27 216.615 199.895 216.363 199.461 216.199C199.039 216.035 198.582 215.953 198.09 215.953C197.012 215.953 196.127 216.316 195.436 217.043C194.744 217.758 194.334 218.771 194.205 220.084H201.623Z" fill="#333333"/>
<path d="M174.758 126.4C160.429 123.092 147.087 120.192 153.55 107.992C173.212 70.8583 158.762 51 138 51C116.825 51 102.729 71.6208 122.45 107.992C129.108 120.262 115.262 123.163 101.242 126.4C88.8292 129.267 88 135.329 88 145.829L88.0208 151H96.3333C96.3333 137.942 95.8125 136.208 103.992 134.321C115.871 131.583 127.087 128.996 131.179 119.921C132.675 116.608 133.646 111.158 129.771 104.025C121.196 88.1958 119.029 74.4875 123.842 66.4167C129.483 56.9375 146.45 56.9833 152.037 66.275C156.829 74.2375 154.7 88.0208 146.192 104.092C142.4 111.254 143.396 116.687 144.9 119.983C149.025 129.012 160.346 131.625 172.333 134.392C180.162 136.208 179.667 138.067 179.667 151H187.979L188 145.829C188 135.329 187.171 129.267 174.758 126.4V126.4Z" fill="#333333"/>
<defs>
<filter id="filter0_d_81_20" x="0" y="0" width="271" height="268" filterUnits="userSpaceOnUse" color-interpolation-filters="sRGB">
<feFlood flood-opacity="0" result="BackgroundImageFix"/>
<feColorMatrix in="SourceAlpha" type="matrix" values="0 0 0 0 0 0 0 0 0 0 0 0 0 0 0 0 0 0 127 0" result="hardAlpha"/>
<feOffset dx="-6" dy="6"/>
<feComposite in2="hardAlpha" operator="out"/>
<feColorMatrix type="matrix" values="0 0 0 0 0 0 0 0 0 0 0 0 0 0 0 0 0 0 0.25 0"/>
<feBlend mode="normal" in2="BackgroundImageFix" result="effect1_dropShadow_81_20"/>
<feBlend mode="normal" in="SourceGraphic" in2="effect1_dropShadow_81_20" result="shape"/>
</filter>
</defs>
</svg>
