<svg width="271" height="268" viewBox="0 0 271 268" fill="none" xmlns="http://www.w3.org/2000/svg">
<g filter="url(#filter0_d_80_12)">
<rect x="6" width="265" height="262" fill="white"/>
<rect x="8.5" y="2.5" width="260" height="257" stroke="#333333" stroke-width="5"/>
</g>
<path d="M92.7969 204L92.6914 201.363C92.3164 201.82 91.9297 202.236 91.5312 202.611C91.1328 202.986 90.7051 203.309 90.248 203.578C89.791 203.836 89.2988 204.035 88.7715 204.176C88.2559 204.328 87.6816 204.404 87.0488 204.404C85.9941 204.404 85.0566 204.193 84.2363 203.771C83.416 203.35 82.7246 202.752 82.1621 201.979C81.6113 201.193 81.1895 200.244 80.8965 199.131C80.6035 198.018 80.457 196.775 80.457 195.404C80.457 193.764 80.6855 192.346 81.1426 191.15C81.6113 189.943 82.2559 188.947 83.0762 188.162C83.8965 187.365 84.8691 186.779 85.9941 186.404C87.1191 186.018 88.3438 185.824 89.668 185.824C90.1133 185.824 90.5586 185.854 91.0039 185.912C91.4609 185.971 91.8652 186.047 92.2168 186.141V179.162H96.5059V204H92.7969ZM84.957 195.211C84.957 196.195 85.0215 197.039 85.1504 197.742C85.291 198.434 85.4902 199.002 85.748 199.447C86.0176 199.893 86.3457 200.221 86.7324 200.432C87.1191 200.631 87.5586 200.73 88.0508 200.73C88.7773 200.73 89.4688 200.438 90.125 199.852C90.7812 199.266 91.4785 198.463 92.2168 197.443V189.639C91.877 189.51 91.4551 189.404 90.9512 189.322C90.459 189.24 89.9609 189.199 89.457 189.199C88.7656 189.199 88.1445 189.34 87.5938 189.621C87.043 189.902 86.5684 190.301 86.1699 190.816C85.7832 191.332 85.4844 191.965 85.2734 192.715C85.0625 193.453 84.957 194.285 84.957 195.211ZM116.914 193.699C116.914 193.992 116.902 194.373 116.879 194.842C116.867 195.311 116.844 195.75 116.809 196.16H105.066C105.066 196.945 105.184 197.637 105.418 198.234C105.664 198.832 106.004 199.336 106.438 199.746C106.883 200.145 107.41 200.449 108.02 200.66C108.641 200.871 109.326 200.977 110.076 200.977C110.943 200.977 111.869 200.912 112.854 200.783C113.85 200.643 114.881 200.42 115.947 200.115V203.525C115.49 203.654 114.992 203.771 114.453 203.877C113.914 203.982 113.363 204.076 112.801 204.158C112.238 204.24 111.67 204.299 111.096 204.334C110.521 204.381 109.965 204.404 109.426 204.404C108.066 204.404 106.848 204.211 105.77 203.824C104.691 203.438 103.777 202.869 103.027 202.119C102.277 201.357 101.703 200.42 101.305 199.307C100.906 198.193 100.707 196.904 100.707 195.439C100.707 193.986 100.906 192.668 101.305 191.484C101.703 190.289 102.266 189.27 102.992 188.426C103.719 187.57 104.598 186.914 105.629 186.457C106.672 185.988 107.832 185.754 109.109 185.754C110.375 185.754 111.494 185.953 112.467 186.352C113.439 186.738 114.254 187.283 114.91 187.986C115.566 188.689 116.064 189.527 116.404 190.5C116.744 191.473 116.914 192.539 116.914 193.699ZM112.555 193.084C112.566 192.381 112.479 191.771 112.291 191.256C112.104 190.729 111.846 190.295 111.518 189.955C111.201 189.615 110.826 189.363 110.393 189.199C109.971 189.035 109.514 188.953 109.021 188.953C107.943 188.953 107.059 189.316 106.367 190.043C105.676 190.758 105.266 191.771 105.137 193.084H112.555ZM126.916 182.502H121.871V179.162H131.311V200.66H136.461V204H121.256V200.66H126.916V182.502ZM156.5 193.699C156.5 193.992 156.488 194.373 156.465 194.842C156.453 195.311 156.43 195.75 156.395 196.16H144.652C144.652 196.945 144.77 197.637 145.004 198.234C145.25 198.832 145.59 199.336 146.023 199.746C146.469 200.145 146.996 200.449 147.605 200.66C148.227 200.871 148.912 200.977 149.662 200.977C150.529 200.977 151.455 200.912 152.439 200.783C153.436 200.643 154.467 200.42 155.533 200.115V203.525C155.076 203.654 154.578 203.771 154.039 203.877C153.5 203.982 152.949 204.076 152.387 204.158C151.824 204.24 151.256 204.299 150.682 204.334C150.107 204.381 149.551 204.404 149.012 204.404C147.652 204.404 146.434 204.211 145.355 203.824C144.277 203.438 143.363 202.869 142.613 202.119C141.863 201.357 141.289 200.42 140.891 199.307C140.492 198.193 140.293 196.904 140.293 195.439C140.293 193.986 140.492 192.668 140.891 191.484C141.289 190.289 141.852 189.27 142.578 188.426C143.305 187.57 144.184 186.914 145.215 186.457C146.258 185.988 147.418 185.754 148.695 185.754C149.961 185.754 151.08 185.953 152.053 186.352C153.025 186.738 153.84 187.283 154.496 187.986C155.152 188.689 155.65 189.527 155.99 190.5C156.33 191.473 156.5 192.539 156.5 193.699ZM152.141 193.084C152.152 192.381 152.064 191.771 151.877 191.256C151.689 190.729 151.432 190.295 151.104 189.955C150.787 189.615 150.412 189.363 149.979 189.199C149.557 189.035 149.1 188.953 148.607 188.953C147.529 188.953 146.645 189.316 145.953 190.043C145.262 190.758 144.852 191.771 144.723 193.084H152.141ZM175.467 203.824C174.693 204 173.914 204.141 173.129 204.246C172.344 204.352 171.6 204.404 170.896 204.404C169.725 204.404 168.711 204.281 167.855 204.035C167.012 203.789 166.309 203.414 165.746 202.91C165.195 202.406 164.785 201.768 164.516 200.994C164.258 200.209 164.129 199.277 164.129 198.199V189.48H159.33V186.141H164.129V181.57L168.523 180.428V186.141H175.467V189.48H168.523V197.883C168.523 198.902 168.758 199.676 169.227 200.203C169.695 200.719 170.48 200.977 171.582 200.977C172.285 200.977 172.971 200.918 173.639 200.801C174.307 200.684 174.916 200.549 175.467 200.396V203.824ZM196.086 193.699C196.086 193.992 196.074 194.373 196.051 194.842C196.039 195.311 196.016 195.75 195.98 196.16H184.238C184.238 196.945 184.355 197.637 184.59 198.234C184.836 198.832 185.176 199.336 185.609 199.746C186.055 200.145 186.582 200.449 187.191 200.66C187.812 200.871 188.498 200.977 189.248 200.977C190.115 200.977 191.041 200.912 192.025 200.783C193.021 200.643 194.053 200.42 195.119 200.115V203.525C194.662 203.654 194.164 203.771 193.625 203.877C193.086 203.982 192.535 204.076 191.973 204.158C191.41 204.24 190.842 204.299 190.268 204.334C189.693 204.381 189.137 204.404 188.598 204.404C187.238 204.404 186.02 204.211 184.941 203.824C183.863 203.438 182.949 202.869 182.199 202.119C181.449 201.357 180.875 200.42 180.477 199.307C180.078 198.193 179.879 196.904 179.879 195.439C179.879 193.986 180.078 192.668 180.477 191.484C180.875 190.289 181.438 189.27 182.164 188.426C182.891 187.57 183.77 186.914 184.801 186.457C185.844 185.988 187.004 185.754 188.281 185.754C189.547 185.754 190.666 185.953 191.639 186.352C192.611 186.738 193.426 187.283 194.082 187.986C194.738 188.689 195.236 189.527 195.576 190.5C195.916 191.473 196.086 192.539 196.086 193.699ZM191.727 193.084C191.738 192.381 191.65 191.771 191.463 191.256C191.275 190.729 191.018 190.295 190.689 189.955C190.373 189.615 189.998 189.363 189.564 189.199C189.143 189.035 188.686 188.953 188.193 188.953C187.115 188.953 186.23 189.316 185.539 190.043C184.848 190.758 184.438 191.771 184.309 193.084H191.727Z" fill="#333333"/>
<path d="M174.758 126.4C160.429 123.092 147.087 120.192 153.55 107.992C173.212 70.8583 158.762 51 138 51C116.825 51 102.729 71.6208 122.45 107.992C129.108 120.262 115.262 123.163 101.242 126.4C88.8292 129.267 88 135.329 88 145.829L88.0208 151H96.3333C96.3333 137.942 95.8125 136.208 103.992 134.321C115.871 131.583 127.087 128.996 131.179 119.921C132.675 116.608 133.646 111.158 129.771 104.025C121.196 88.1958 119.029 74.4875 123.842 66.4167C129.483 56.9375 146.45 56.9833 152.037 66.275C156.829 74.2375 154.7 88.0208 146.192 104.092C142.4 111.254 143.396 116.687 144.9 119.983C149.025 129.012 160.346 131.625 172.333 134.392C180.162 136.208 179.667 138.067 179.667 151H187.979L188 145.829C188 135.329 187.171 129.267 174.758 126.4V126.4Z" fill="#333333"/>
<rect x="69" y="57.4681" width="8" height="162.993" transform="rotate(-55 69 57.4681)" fill="#333333"/>
<path d="M201.97 51.087L206.559 57.6402L73.0422 151.129L68.4536 144.576L201.97 51.087Z" fill="#333333"/>
<defs>
<filter id="filter0_d_80_12" x="0" y="0" width="271" height="268" filterUnits="userSpaceOnUse" color-interpolation-filters="sRGB">
<feFlood flood-opacity="0" result="BackgroundImageFix"/>
<feColorMatrix in="SourceAlpha" type="matrix" values="0 0 0 0 0 0 0 0 0 0 0 0 0 0 0 0 0 0 127 0" result="hardAlpha"/>
<feOffset dx="-6" dy="6"/>
<feComposite in2="hardAlpha" operator="out"/>
<feColorMatrix type="matrix" values="0 0 0 0 0 0 0 0 0 0 0 0 0 0 0 0 0 0 0.25 0"/>
<feBlend mode="normal" in2="BackgroundImageFix" result="effect1_dropShadow_80_12"/>
<feBlend mode="normal" in="SourceGraphic" in2="effect1_dropShadow_80_12" result="shape"/>
</filter>
</defs>
</svg>
