<svg width="271" height="268" viewBox="0 0 271 268" fill="none" xmlns="http://www.w3.org/2000/svg">
<g filter="url(#filter0_d_23_115)">
<rect x="6" width="265" height="262" fill="white"/>
<rect x="8.5" y="2.5" width="260" height="257" stroke="#333333" stroke-width="5"/>
</g>
<path d="M99.2266 182.502H94.1816V179.162H103.621V200.66H108.771V204H93.5664V200.66H99.2266V182.502ZM129.338 194.93C129.338 196.336 129.139 197.625 128.74 198.797C128.342 199.957 127.768 200.953 127.018 201.785C126.268 202.617 125.348 203.262 124.258 203.719C123.168 204.176 121.926 204.404 120.531 204.404C119.207 204.404 118.023 204.211 116.98 203.824C115.938 203.438 115.053 202.863 114.326 202.102C113.6 201.328 113.043 200.367 112.656 199.219C112.27 198.059 112.076 196.711 112.076 195.176C112.076 193.758 112.275 192.469 112.674 191.309C113.084 190.148 113.664 189.158 114.414 188.338C115.176 187.518 116.102 186.885 117.191 186.439C118.281 185.982 119.512 185.754 120.883 185.754C122.219 185.754 123.408 185.953 124.451 186.352C125.494 186.738 126.379 187.318 127.105 188.092C127.832 188.865 128.383 189.826 128.758 190.975C129.145 192.111 129.338 193.43 129.338 194.93ZM124.873 195.035C124.873 193.184 124.521 191.795 123.818 190.869C123.127 189.932 122.102 189.463 120.742 189.463C119.992 189.463 119.354 189.609 118.826 189.902C118.299 190.195 117.865 190.6 117.525 191.115C117.186 191.619 116.934 192.211 116.77 192.891C116.617 193.57 116.541 194.297 116.541 195.07C116.541 196.934 116.916 198.34 117.666 199.289C118.416 200.227 119.441 200.695 120.742 200.695C121.457 200.695 122.078 200.555 122.605 200.273C123.133 199.98 123.561 199.582 123.889 199.078C124.217 198.562 124.463 197.959 124.627 197.268C124.791 196.576 124.873 195.832 124.873 195.035ZM146.441 189.27C146.77 189.68 146.998 190.113 147.127 190.57C147.268 191.016 147.338 191.473 147.338 191.941C147.338 192.938 147.162 193.816 146.811 194.578C146.471 195.34 145.984 195.979 145.352 196.494C144.73 197.01 143.98 197.402 143.102 197.672C142.234 197.93 141.273 198.059 140.219 198.059C139.598 198.059 139.023 198 138.496 197.883C137.969 197.754 137.57 197.607 137.301 197.443C137.102 197.643 136.932 197.865 136.791 198.111C136.65 198.346 136.58 198.615 136.58 198.92C136.58 199.107 136.627 199.295 136.721 199.482C136.814 199.67 136.949 199.84 137.125 199.992C137.312 200.133 137.529 200.25 137.775 200.344C138.033 200.438 138.32 200.49 138.637 200.502L142.873 200.66C143.822 200.684 144.678 200.807 145.439 201.029C146.213 201.24 146.875 201.545 147.426 201.943C147.977 202.342 148.398 202.828 148.691 203.402C148.996 203.965 149.148 204.609 149.148 205.336C149.148 206.168 148.961 206.953 148.586 207.691C148.211 208.43 147.643 209.068 146.881 209.607C146.131 210.158 145.193 210.592 144.068 210.908C142.943 211.225 141.637 211.383 140.148 211.383C138.707 211.383 137.465 211.266 136.422 211.031C135.391 210.809 134.541 210.492 133.873 210.082C133.217 209.672 132.73 209.18 132.414 208.605C132.098 208.043 131.939 207.422 131.939 206.742C131.939 206.332 131.992 205.951 132.098 205.6C132.203 205.248 132.361 204.908 132.572 204.58C132.783 204.264 133.047 203.953 133.363 203.648C133.68 203.344 134.055 203.039 134.488 202.734C133.914 202.406 133.475 201.984 133.17 201.469C132.877 200.953 132.73 200.402 132.73 199.816C132.73 199.418 132.783 199.049 132.889 198.709C132.994 198.357 133.129 198.023 133.293 197.707C133.469 197.391 133.668 197.086 133.891 196.793C134.113 196.5 134.348 196.213 134.594 195.932C134.16 195.498 133.797 194.977 133.504 194.367C133.223 193.746 133.082 192.973 133.082 192.047C133.082 191.051 133.258 190.166 133.609 189.393C133.973 188.607 134.471 187.951 135.104 187.424C135.736 186.885 136.486 186.48 137.354 186.211C138.232 185.93 139.188 185.789 140.219 185.789C140.746 185.789 141.25 185.818 141.73 185.877C142.223 185.924 142.668 186.012 143.066 186.141H149.254V189.27H146.441ZM136.334 206.373C136.334 207.064 136.68 207.574 137.371 207.902C138.074 208.23 139.059 208.395 140.324 208.395C141.133 208.395 141.812 208.318 142.363 208.166C142.926 208.014 143.383 207.814 143.734 207.568C144.086 207.322 144.338 207.035 144.49 206.707C144.643 206.379 144.719 206.039 144.719 205.688C144.719 205.371 144.643 205.102 144.49 204.879C144.35 204.668 144.145 204.486 143.875 204.334C143.617 204.193 143.307 204.082 142.943 204C142.592 203.93 142.199 203.883 141.766 203.859L137.986 203.789C137.646 204.023 137.365 204.246 137.143 204.457C136.932 204.668 136.762 204.873 136.633 205.072C136.516 205.283 136.434 205.494 136.387 205.705C136.352 205.916 136.334 206.139 136.334 206.373ZM137.055 192.047C137.055 192.996 137.33 193.752 137.881 194.314C138.443 194.865 139.223 195.141 140.219 195.141C140.746 195.141 141.203 195.053 141.59 194.877C141.988 194.701 142.316 194.467 142.574 194.174C142.832 193.881 143.025 193.541 143.154 193.154C143.283 192.768 143.348 192.363 143.348 191.941C143.348 190.945 143.066 190.172 142.504 189.621C141.953 189.059 141.18 188.777 140.184 188.777C139.656 188.777 139.193 188.865 138.795 189.041C138.408 189.217 138.086 189.457 137.828 189.762C137.57 190.055 137.377 190.4 137.248 190.799C137.119 191.197 137.055 191.613 137.055 192.047ZM163.352 181.254C163.352 181.641 163.281 182.004 163.141 182.344C163 182.684 162.801 182.982 162.543 183.24C162.297 183.486 162.004 183.686 161.664 183.838C161.324 183.979 160.955 184.049 160.557 184.049C160.158 184.049 159.783 183.979 159.432 183.838C159.092 183.686 158.793 183.486 158.535 183.24C158.289 182.982 158.096 182.684 157.955 182.344C157.814 182.004 157.744 181.641 157.744 181.254C157.744 180.867 157.814 180.504 157.955 180.164C158.096 179.824 158.289 179.525 158.535 179.268C158.793 179.01 159.092 178.811 159.432 178.67C159.783 178.518 160.158 178.441 160.557 178.441C160.955 178.441 161.324 178.518 161.664 178.67C162.004 178.811 162.297 179.01 162.543 179.268C162.801 179.525 163 179.824 163.141 180.164C163.281 180.504 163.352 180.867 163.352 181.254ZM158.605 189.48H153.561V186.141H163V200.66H168.15V204H152.945V200.66H158.605V189.48ZM183.285 204V192.363C183.285 190.406 182.559 189.428 181.105 189.428C180.379 189.428 179.682 189.721 179.014 190.307C178.357 190.893 177.66 191.689 176.922 192.697V204H172.633V186.141H176.342L176.447 188.777C176.811 188.32 177.186 187.904 177.572 187.529C177.971 187.154 178.398 186.838 178.855 186.58C179.312 186.311 179.805 186.105 180.332 185.965C180.859 185.824 181.451 185.754 182.107 185.754C183.021 185.754 183.818 185.906 184.498 186.211C185.178 186.504 185.746 186.926 186.203 187.477C186.66 188.016 187 188.672 187.223 189.445C187.457 190.207 187.574 191.062 187.574 192.012V204H183.285Z" fill="#333333"/>
<g clip-path="url(#clip0_23_115)">
<path d="M176.758 126.4C162.429 123.092 149.091 120.192 155.549 107.992C175.216 70.8583 160.762 51 139.999 51C118.824 51 104.733 71.6208 124.449 107.992C131.104 120.262 117.262 123.162 103.241 126.4C90.4369 129.358 89.9577 135.717 89.9994 146.833L90.016 151H189.974L189.991 146.962C190.041 135.762 189.608 129.371 176.758 126.4Z" fill="#333333"/>
</g>
<defs>
<filter id="filter0_d_23_115" x="0" y="0" width="271" height="268" filterUnits="userSpaceOnUse" color-interpolation-filters="sRGB">
<feFlood flood-opacity="0" result="BackgroundImageFix"/>
<feColorMatrix in="SourceAlpha" type="matrix" values="0 0 0 0 0 0 0 0 0 0 0 0 0 0 0 0 0 0 127 0" result="hardAlpha"/>
<feOffset dx="-6" dy="6"/>
<feComposite in2="hardAlpha" operator="out"/>
<feColorMatrix type="matrix" values="0 0 0 0 0 0 0 0 0 0 0 0 0 0 0 0 0 0 0.25 0"/>
<feBlend mode="normal" in2="BackgroundImageFix" result="effect1_dropShadow_23_115"/>
<feBlend mode="normal" in="SourceGraphic" in2="effect1_dropShadow_23_115" result="shape"/>
</filter>
<clipPath id="clip0_23_115">
<rect width="100" height="100" fill="white" transform="translate(90 51)"/>
</clipPath>
</defs>
</svg>
