<svg width="271" height="268" viewBox="0 0 271 268" fill="none" xmlns="http://www.w3.org/2000/svg">
<g filter="url(#filter0_d_82_2)">
<rect x="6" width="265" height="262" fill="white"/>
<rect x="8.5" y="2.5" width="260" height="257" stroke="#333333" stroke-width="5"/>
</g>
<path d="M107.595 223V209.424C107.595 207.141 106.747 205.999 105.052 205.999C104.204 205.999 103.391 206.341 102.611 207.024C101.846 207.708 101.032 208.638 100.171 209.813V223H95.167V194.022H100.171V201.159L99.9248 204.933C100.349 204.427 100.779 203.976 101.217 203.579C101.654 203.169 102.126 202.827 102.632 202.554C103.138 202.28 103.685 202.075 104.272 201.938C104.86 201.788 105.51 201.713 106.221 201.713C107.287 201.713 108.217 201.891 109.01 202.246C109.803 202.588 110.466 203.08 110.999 203.723C111.532 204.352 111.929 205.117 112.188 206.02C112.462 206.908 112.599 207.906 112.599 209.014V223H107.595ZM137.023 212.418C137.023 214.059 136.791 215.562 136.326 216.93C135.861 218.283 135.191 219.445 134.316 220.416C133.441 221.387 132.368 222.139 131.097 222.672C129.825 223.205 128.376 223.472 126.749 223.472C125.204 223.472 123.823 223.246 122.606 222.795C121.39 222.344 120.357 221.674 119.51 220.785C118.662 219.883 118.013 218.762 117.562 217.422C117.11 216.068 116.885 214.496 116.885 212.705C116.885 211.051 117.117 209.547 117.582 208.193C118.061 206.84 118.737 205.685 119.612 204.728C120.501 203.771 121.581 203.032 122.853 202.513C124.124 201.979 125.56 201.713 127.159 201.713C128.718 201.713 130.105 201.945 131.322 202.41C132.539 202.861 133.571 203.538 134.419 204.44C135.267 205.343 135.909 206.464 136.347 207.804C136.798 209.13 137.023 210.668 137.023 212.418ZM131.814 212.541C131.814 210.381 131.404 208.761 130.584 207.681C129.777 206.587 128.581 206.04 126.995 206.04C126.12 206.04 125.375 206.211 124.76 206.553C124.145 206.895 123.639 207.366 123.242 207.968C122.846 208.556 122.552 209.246 122.36 210.039C122.183 210.832 122.094 211.68 122.094 212.582C122.094 214.756 122.531 216.396 123.406 217.504C124.281 218.598 125.478 219.145 126.995 219.145C127.829 219.145 128.554 218.98 129.169 218.652C129.784 218.311 130.283 217.846 130.666 217.258C131.049 216.656 131.336 215.952 131.527 215.146C131.719 214.339 131.814 213.471 131.814 212.541ZM156.055 223V208.809C156.055 208.289 156.041 207.838 156.014 207.455C155.986 207.059 155.932 206.73 155.85 206.471C155.768 206.211 155.645 206.02 155.48 205.896C155.33 205.76 155.118 205.691 154.845 205.691C154.421 205.691 154.004 205.979 153.594 206.553C153.184 207.127 152.719 208.104 152.199 209.485V223H147.913V208.809C147.913 208.289 147.899 207.838 147.872 207.455C147.845 207.059 147.79 206.73 147.708 206.471C147.626 206.211 147.503 206.02 147.339 205.896C147.175 205.76 146.956 205.691 146.683 205.691C146.327 205.691 145.931 205.979 145.493 206.553C145.056 207.127 144.57 208.104 144.037 209.485V223H139.71V202.164H143.422L143.504 205.199C143.805 204.584 144.105 204.058 144.406 203.62C144.707 203.183 145.028 202.827 145.37 202.554C145.712 202.267 146.074 202.062 146.457 201.938C146.854 201.815 147.298 201.754 147.79 201.754C148.952 201.754 149.834 202.062 150.436 202.677C151.051 203.278 151.399 204.119 151.481 205.199C151.81 204.584 152.131 204.058 152.445 203.62C152.773 203.183 153.108 202.827 153.45 202.554C153.806 202.267 154.182 202.062 154.578 201.938C154.988 201.815 155.439 201.754 155.932 201.754C157.449 201.754 158.57 202.287 159.295 203.354C160.02 204.406 160.382 205.972 160.382 208.05V223H156.055ZM182.592 210.982C182.592 211.324 182.578 211.769 182.551 212.315C182.537 212.862 182.51 213.375 182.469 213.854H168.77C168.77 214.77 168.906 215.576 169.18 216.273C169.467 216.971 169.863 217.559 170.369 218.037C170.889 218.502 171.504 218.857 172.215 219.104C172.939 219.35 173.739 219.473 174.614 219.473C175.626 219.473 176.706 219.397 177.854 219.247C179.017 219.083 180.22 218.823 181.464 218.468V222.446C180.931 222.597 180.35 222.733 179.721 222.856C179.092 222.979 178.449 223.089 177.793 223.185C177.137 223.28 176.474 223.349 175.804 223.39C175.134 223.444 174.484 223.472 173.855 223.472C172.27 223.472 170.848 223.246 169.59 222.795C168.332 222.344 167.266 221.681 166.391 220.806C165.516 219.917 164.846 218.823 164.381 217.524C163.916 216.226 163.684 214.722 163.684 213.013C163.684 211.317 163.916 209.779 164.381 208.398C164.846 207.004 165.502 205.814 166.35 204.83C167.197 203.832 168.223 203.066 169.426 202.533C170.643 201.986 171.996 201.713 173.486 201.713C174.963 201.713 176.269 201.945 177.403 202.41C178.538 202.861 179.488 203.497 180.254 204.317C181.02 205.138 181.601 206.115 181.997 207.25C182.394 208.385 182.592 209.629 182.592 210.982ZM177.506 210.265C177.52 209.444 177.417 208.733 177.198 208.132C176.979 207.517 176.679 207.011 176.296 206.614C175.927 206.218 175.489 205.924 174.983 205.732C174.491 205.541 173.958 205.445 173.384 205.445C172.126 205.445 171.094 205.869 170.287 206.717C169.48 207.551 169.002 208.733 168.852 210.265H177.506Z" fill="#333333"/>
<g clip-path="url(#clip0_82_2)">
<path d="M136.371 72.457L84.8375 114.868V160.642C84.8375 161.827 85.3087 162.964 86.1474 163.802C86.9861 164.64 88.1236 165.111 89.3099 165.111L120.632 165.03C121.814 165.024 122.946 164.551 123.78 163.713C124.614 162.876 125.082 161.743 125.082 160.561V133.83C125.082 132.644 125.553 131.508 126.392 130.67C127.231 129.832 128.368 129.361 129.554 129.361H147.443C148.629 129.361 149.767 129.832 150.605 130.67C151.444 131.508 151.915 132.644 151.915 133.83V160.542C151.913 161.13 152.028 161.712 152.252 162.256C152.476 162.8 152.805 163.294 153.22 163.711C153.636 164.127 154.129 164.457 154.673 164.683C155.216 164.908 155.799 165.025 156.388 165.025L187.698 165.111C188.885 165.111 190.022 164.64 190.861 163.802C191.7 162.964 192.171 161.827 192.171 160.642V114.838L140.648 72.457C140.042 71.9693 139.288 71.7031 138.51 71.7031C137.732 71.7031 136.977 71.9693 136.371 72.457ZM217.774 101.283L194.407 82.0371V43.3516C194.407 42.4627 194.053 41.6102 193.425 40.9816C192.796 40.3531 191.943 40 191.053 40H175.4C174.51 40 173.657 40.3531 173.028 40.9816C172.399 41.6102 172.046 42.4627 172.046 43.3516V63.6312L147.021 43.0583C144.619 41.0836 141.606 40.004 138.496 40.004C135.386 40.004 132.372 41.0836 129.971 43.0583L59.2173 101.283C58.8776 101.564 58.5966 101.908 58.3903 102.297C58.184 102.687 58.0565 103.113 58.0149 103.551C57.9734 103.989 58.0187 104.431 58.1483 104.852C58.2778 105.273 58.4891 105.664 58.7701 106.003L65.8976 114.662C66.1778 115.002 66.5224 115.284 66.9117 115.491C67.301 115.698 67.7274 115.826 68.1664 115.869C68.6055 115.911 69.0486 115.867 69.4703 115.737C69.892 115.608 70.2842 115.397 70.6242 115.117L136.371 61.0059C136.977 60.5181 137.732 60.252 138.51 60.252C139.288 60.252 140.042 60.5181 140.648 61.0059L206.398 115.117C206.737 115.397 207.129 115.609 207.55 115.738C207.971 115.868 208.414 115.913 208.853 115.872C209.291 115.83 209.718 115.702 210.107 115.496C210.496 115.29 210.841 115.01 211.122 114.67L218.25 106.012C218.53 105.671 218.74 105.277 218.869 104.855C218.997 104.432 219.04 103.988 218.996 103.549C218.951 103.11 218.821 102.683 218.611 102.294C218.402 101.906 218.117 101.562 217.774 101.283Z" fill="#333333"/>
</g>
<defs>
<filter id="filter0_d_82_2" x="0" y="0" width="271" height="268" filterUnits="userSpaceOnUse" color-interpolation-filters="sRGB">
<feFlood flood-opacity="0" result="BackgroundImageFix"/>
<feColorMatrix in="SourceAlpha" type="matrix" values="0 0 0 0 0 0 0 0 0 0 0 0 0 0 0 0 0 0 127 0" result="hardAlpha"/>
<feOffset dx="-6" dy="6"/>
<feComposite in2="hardAlpha" operator="out"/>
<feColorMatrix type="matrix" values="0 0 0 0 0 0 0 0 0 0 0 0 0 0 0 0 0 0 0.25 0"/>
<feBlend mode="normal" in2="BackgroundImageFix" result="effect1_dropShadow_82_2"/>
<feBlend mode="normal" in="SourceGraphic" in2="effect1_dropShadow_82_2" result="shape"/>
</filter>
<clipPath id="clip0_82_2">
<rect width="161" height="143" fill="white" transform="translate(58 31)"/>
</clipPath>
</defs>
</svg>
