<svg width="271" height="268" viewBox="0 0 271 268" fill="none" xmlns="http://www.w3.org/2000/svg">
<g filter="url(#filter0_d_79_14)">
<rect x="6" width="265" height="262" fill="white"/>
<rect x="8.5" y="2.5" width="260" height="257" stroke="#333333" stroke-width="5"/>
</g>
<path d="M84.2715 213V200.836C84.2715 200.391 84.2598 200.004 84.2363 199.676C84.2129 199.336 84.166 199.055 84.0957 198.832C84.0254 198.609 83.9199 198.445 83.7793 198.34C83.6504 198.223 83.4688 198.164 83.2344 198.164C82.8711 198.164 82.5137 198.41 82.1621 198.902C81.8105 199.395 81.4121 200.232 80.9668 201.416V213H77.293V200.836C77.293 200.391 77.2812 200.004 77.2578 199.676C77.2344 199.336 77.1875 199.055 77.1172 198.832C77.0469 198.609 76.9414 198.445 76.8008 198.34C76.6602 198.223 76.4727 198.164 76.2383 198.164C75.9336 198.164 75.5938 198.41 75.2188 198.902C74.8438 199.395 74.4277 200.232 73.9707 201.416V213H70.2617V195.141H73.4434L73.5137 197.742C73.7715 197.215 74.0293 196.764 74.2871 196.389C74.5449 196.014 74.8203 195.709 75.1133 195.475C75.4062 195.229 75.7168 195.053 76.0449 194.947C76.3848 194.842 76.7656 194.789 77.1875 194.789C78.1836 194.789 78.9395 195.053 79.4551 195.58C79.9824 196.096 80.2812 196.816 80.3516 197.742C80.6328 197.215 80.9082 196.764 81.1777 196.389C81.459 196.014 81.7461 195.709 82.0391 195.475C82.3438 195.229 82.666 195.053 83.0059 194.947C83.3574 194.842 83.7441 194.789 84.166 194.789C85.4668 194.789 86.4277 195.246 87.0488 196.16C87.6699 197.062 87.9805 198.404 87.9805 200.186V213H84.2715ZM107.545 203.93C107.545 205.336 107.346 206.625 106.947 207.797C106.549 208.957 105.975 209.953 105.225 210.785C104.475 211.617 103.555 212.262 102.465 212.719C101.375 213.176 100.133 213.404 98.7383 213.404C97.4141 213.404 96.2305 213.211 95.1875 212.824C94.1445 212.438 93.2598 211.863 92.5332 211.102C91.8066 210.328 91.25 209.367 90.8633 208.219C90.4766 207.059 90.2832 205.711 90.2832 204.176C90.2832 202.758 90.4824 201.469 90.8809 200.309C91.291 199.148 91.8711 198.158 92.6211 197.338C93.3828 196.518 94.3086 195.885 95.3984 195.439C96.4883 194.982 97.7188 194.754 99.0898 194.754C100.426 194.754 101.615 194.953 102.658 195.352C103.701 195.738 104.586 196.318 105.312 197.092C106.039 197.865 106.59 198.826 106.965 199.975C107.352 201.111 107.545 202.43 107.545 203.93ZM103.08 204.035C103.08 202.184 102.729 200.795 102.025 199.869C101.334 198.932 100.309 198.463 98.9492 198.463C98.1992 198.463 97.5605 198.609 97.0332 198.902C96.5059 199.195 96.0723 199.6 95.7324 200.115C95.3926 200.619 95.1406 201.211 94.9766 201.891C94.8242 202.57 94.748 203.297 94.748 204.07C94.748 205.934 95.123 207.34 95.873 208.289C96.623 209.227 97.6484 209.695 98.9492 209.695C99.6641 209.695 100.285 209.555 100.812 209.273C101.34 208.98 101.768 208.582 102.096 208.078C102.424 207.562 102.67 206.959 102.834 206.268C102.998 205.576 103.08 204.832 103.08 204.035ZM122.486 213L122.381 210.363C122.006 210.82 121.619 211.236 121.221 211.611C120.822 211.986 120.395 212.309 119.938 212.578C119.48 212.836 118.988 213.035 118.461 213.176C117.945 213.328 117.371 213.404 116.738 213.404C115.684 213.404 114.746 213.193 113.926 212.771C113.105 212.35 112.414 211.752 111.852 210.979C111.301 210.193 110.879 209.244 110.586 208.131C110.293 207.018 110.146 205.775 110.146 204.404C110.146 202.764 110.375 201.346 110.832 200.15C111.301 198.943 111.945 197.947 112.766 197.162C113.586 196.365 114.559 195.779 115.684 195.404C116.809 195.018 118.033 194.824 119.357 194.824C119.803 194.824 120.248 194.854 120.693 194.912C121.15 194.971 121.555 195.047 121.906 195.141V188.162H126.195V213H122.486ZM114.646 204.211C114.646 205.195 114.711 206.039 114.84 206.742C114.98 207.434 115.18 208.002 115.438 208.447C115.707 208.893 116.035 209.221 116.422 209.432C116.809 209.631 117.248 209.73 117.74 209.73C118.467 209.73 119.158 209.438 119.814 208.852C120.471 208.266 121.168 207.463 121.906 206.443V198.639C121.566 198.51 121.145 198.404 120.641 198.322C120.148 198.24 119.65 198.199 119.146 198.199C118.455 198.199 117.834 198.34 117.283 198.621C116.732 198.902 116.258 199.301 115.859 199.816C115.473 200.332 115.174 200.965 114.963 201.715C114.752 202.453 114.646 203.285 114.646 204.211ZM135.301 195.141V206.777C135.301 207.75 135.482 208.488 135.846 208.992C136.209 209.484 136.76 209.73 137.498 209.73C138.213 209.73 138.898 209.438 139.555 208.852C140.223 208.254 140.926 207.451 141.664 206.443V195.141H145.953V213H142.244L142.139 210.363C141.764 210.82 141.383 211.236 140.996 211.611C140.609 211.986 140.188 212.309 139.73 212.578C139.285 212.836 138.793 213.035 138.254 213.176C137.727 213.328 137.141 213.404 136.496 213.404C135.582 213.404 134.779 213.258 134.088 212.965C133.408 212.66 132.84 212.232 132.383 211.682C131.926 211.131 131.58 210.475 131.346 209.713C131.123 208.939 131.012 208.078 131.012 207.129V195.141H135.301ZM156.605 191.502H151.561V188.162H161V209.66H166.15V213H150.945V209.66H156.605V191.502ZM186.189 202.699C186.189 202.992 186.178 203.373 186.154 203.842C186.143 204.311 186.119 204.75 186.084 205.16H174.342C174.342 205.945 174.459 206.637 174.693 207.234C174.939 207.832 175.279 208.336 175.713 208.746C176.158 209.145 176.686 209.449 177.295 209.66C177.916 209.871 178.602 209.977 179.352 209.977C180.219 209.977 181.145 209.912 182.129 209.783C183.125 209.643 184.156 209.42 185.223 209.115V212.525C184.766 212.654 184.268 212.771 183.729 212.877C183.189 212.982 182.639 213.076 182.076 213.158C181.514 213.24 180.945 213.299 180.371 213.334C179.797 213.381 179.24 213.404 178.701 213.404C177.342 213.404 176.123 213.211 175.045 212.824C173.967 212.438 173.053 211.869 172.303 211.119C171.553 210.357 170.979 209.42 170.58 208.307C170.182 207.193 169.982 205.904 169.982 204.439C169.982 202.986 170.182 201.668 170.58 200.484C170.979 199.289 171.541 198.27 172.268 197.426C172.994 196.57 173.873 195.914 174.904 195.457C175.947 194.988 177.107 194.754 178.385 194.754C179.65 194.754 180.77 194.953 181.742 195.352C182.715 195.738 183.529 196.283 184.186 196.986C184.842 197.689 185.34 198.527 185.68 199.5C186.02 200.473 186.189 201.539 186.189 202.699ZM181.83 202.084C181.842 201.381 181.754 200.771 181.566 200.256C181.379 199.729 181.121 199.295 180.793 198.955C180.477 198.615 180.102 198.363 179.668 198.199C179.246 198.035 178.789 197.953 178.297 197.953C177.219 197.953 176.334 198.316 175.643 199.043C174.951 199.758 174.541 200.771 174.412 202.084H181.83ZM205.156 207.744C205.156 208.764 204.928 209.637 204.471 210.363C204.025 211.078 203.428 211.664 202.678 212.121C201.939 212.566 201.096 212.889 200.146 213.088C199.209 213.299 198.248 213.404 197.264 213.404C195.951 213.404 194.768 213.34 193.713 213.211C192.658 213.094 191.662 212.918 190.725 212.684V208.816C191.826 209.273 192.922 209.607 194.012 209.818C195.113 210.018 196.15 210.117 197.123 210.117C198.248 210.117 199.086 209.941 199.637 209.59C200.199 209.227 200.48 208.758 200.48 208.184C200.48 207.914 200.422 207.668 200.305 207.445C200.188 207.223 199.965 207.012 199.637 206.812C199.32 206.602 198.869 206.391 198.283 206.18C197.697 205.957 196.93 205.711 195.98 205.441C195.102 205.195 194.328 204.92 193.66 204.615C193.004 204.299 192.459 203.93 192.025 203.508C191.592 203.086 191.264 202.6 191.041 202.049C190.83 201.486 190.725 200.83 190.725 200.08C190.725 199.354 190.889 198.668 191.217 198.023C191.545 197.379 192.031 196.816 192.676 196.336C193.332 195.844 194.146 195.457 195.119 195.176C196.092 194.895 197.229 194.754 198.529 194.754C199.654 194.754 200.65 194.812 201.518 194.93C202.385 195.047 203.152 195.176 203.82 195.316V198.814C202.801 198.486 201.84 198.258 200.938 198.129C200.047 197.988 199.162 197.918 198.283 197.918C197.404 197.918 196.695 198.076 196.156 198.393C195.629 198.709 195.365 199.148 195.365 199.711C195.365 199.98 195.418 200.221 195.523 200.432C195.629 200.643 195.834 200.848 196.139 201.047C196.455 201.246 196.889 201.457 197.439 201.68C198.002 201.891 198.74 202.125 199.654 202.383C200.686 202.676 201.553 202.992 202.256 203.332C202.959 203.66 203.521 204.035 203.943 204.457C204.377 204.879 204.688 205.359 204.875 205.898C205.062 206.438 205.156 207.053 205.156 207.744Z" fill="#333333"/>
<path d="M113.765 161H136.344H141.658H164.237H169.551H197.444V43H169.551H164.237H141.658H136.344H113.765H108.451H80.5587V161H108.451H113.765ZM191.466 155.023H170.214V120.822H177.187V48.977H191.466V155.023ZM163.573 120.822V155.023H142.321V120.822H149.294V48.977H155.935V120.822H163.573ZM135.681 120.822V155.023H114.429V120.822H121.402V48.977H128.043V120.822H135.681ZM107.788 155.023H86.5356V48.977H100.149V120.822H107.788V155.023Z" fill="#333333"/>
<defs>
<filter id="filter0_d_79_14" x="0" y="0" width="271" height="268" filterUnits="userSpaceOnUse" color-interpolation-filters="sRGB">
<feFlood flood-opacity="0" result="BackgroundImageFix"/>
<feColorMatrix in="SourceAlpha" type="matrix" values="0 0 0 0 0 0 0 0 0 0 0 0 0 0 0 0 0 0 127 0" result="hardAlpha"/>
<feOffset dx="-6" dy="6"/>
<feComposite in2="hardAlpha" operator="out"/>
<feColorMatrix type="matrix" values="0 0 0 0 0 0 0 0 0 0 0 0 0 0 0 0 0 0 0.25 0"/>
<feBlend mode="normal" in2="BackgroundImageFix" result="effect1_dropShadow_79_14"/>
<feBlend mode="normal" in="SourceGraphic" in2="effect1_dropShadow_79_14" result="shape"/>
</filter>
</defs>
</svg>
