<svg width="271" height="268" viewBox="0 0 271 268" fill="none" xmlns="http://www.w3.org/2000/svg">
<g filter="url(#filter0_d_77_7)">
<rect x="6" width="265" height="262" fill="white"/>
<rect x="8.5" y="2.5" width="260" height="257" stroke="#333333" stroke-width="5"/>
</g>
<path d="M87.3301 192.502H82.2852V189.162H91.7246V210.66H96.875V214H81.6699V210.66H87.3301V192.502ZM117.441 204.93C117.441 206.336 117.242 207.625 116.844 208.797C116.445 209.957 115.871 210.953 115.121 211.785C114.371 212.617 113.451 213.262 112.361 213.719C111.271 214.176 110.029 214.404 108.635 214.404C107.311 214.404 106.127 214.211 105.084 213.824C104.041 213.438 103.156 212.863 102.43 212.102C101.703 211.328 101.146 210.367 100.76 209.219C100.373 208.059 100.18 206.711 100.18 205.176C100.18 203.758 100.379 202.469 100.777 201.309C101.188 200.148 101.768 199.158 102.518 198.338C103.279 197.518 104.205 196.885 105.295 196.439C106.385 195.982 107.615 195.754 108.986 195.754C110.322 195.754 111.512 195.953 112.555 196.352C113.598 196.738 114.482 197.318 115.209 198.092C115.936 198.865 116.486 199.826 116.861 200.975C117.248 202.111 117.441 203.43 117.441 204.93ZM112.977 205.035C112.977 203.184 112.625 201.795 111.922 200.869C111.23 199.932 110.205 199.463 108.846 199.463C108.096 199.463 107.457 199.609 106.93 199.902C106.402 200.195 105.969 200.6 105.629 201.115C105.289 201.619 105.037 202.211 104.873 202.891C104.721 203.57 104.645 204.297 104.645 205.07C104.645 206.934 105.02 208.34 105.77 209.289C106.52 210.227 107.545 210.695 108.846 210.695C109.561 210.695 110.182 210.555 110.709 210.273C111.236 209.98 111.664 209.582 111.992 209.078C112.32 208.562 112.566 207.959 112.73 207.268C112.895 206.576 112.977 205.832 112.977 205.035ZM134.545 199.27C134.873 199.68 135.102 200.113 135.23 200.57C135.371 201.016 135.441 201.473 135.441 201.941C135.441 202.938 135.266 203.816 134.914 204.578C134.574 205.34 134.088 205.979 133.455 206.494C132.834 207.01 132.084 207.402 131.205 207.672C130.338 207.93 129.377 208.059 128.322 208.059C127.701 208.059 127.127 208 126.6 207.883C126.072 207.754 125.674 207.607 125.404 207.443C125.205 207.643 125.035 207.865 124.895 208.111C124.754 208.346 124.684 208.615 124.684 208.92C124.684 209.107 124.73 209.295 124.824 209.482C124.918 209.67 125.053 209.84 125.229 209.992C125.416 210.133 125.633 210.25 125.879 210.344C126.137 210.438 126.424 210.49 126.74 210.502L130.977 210.66C131.926 210.684 132.781 210.807 133.543 211.029C134.316 211.24 134.979 211.545 135.529 211.943C136.08 212.342 136.502 212.828 136.795 213.402C137.1 213.965 137.252 214.609 137.252 215.336C137.252 216.168 137.064 216.953 136.689 217.691C136.314 218.43 135.746 219.068 134.984 219.607C134.234 220.158 133.297 220.592 132.172 220.908C131.047 221.225 129.74 221.383 128.252 221.383C126.811 221.383 125.568 221.266 124.525 221.031C123.494 220.809 122.645 220.492 121.977 220.082C121.32 219.672 120.834 219.18 120.518 218.605C120.201 218.043 120.043 217.422 120.043 216.742C120.043 216.332 120.096 215.951 120.201 215.6C120.307 215.248 120.465 214.908 120.676 214.58C120.887 214.264 121.15 213.953 121.467 213.648C121.783 213.344 122.158 213.039 122.592 212.734C122.018 212.406 121.578 211.984 121.273 211.469C120.98 210.953 120.834 210.402 120.834 209.816C120.834 209.418 120.887 209.049 120.992 208.709C121.098 208.357 121.232 208.023 121.396 207.707C121.572 207.391 121.771 207.086 121.994 206.793C122.217 206.5 122.451 206.213 122.697 205.932C122.264 205.498 121.9 204.977 121.607 204.367C121.326 203.746 121.186 202.973 121.186 202.047C121.186 201.051 121.361 200.166 121.713 199.393C122.076 198.607 122.574 197.951 123.207 197.424C123.84 196.885 124.59 196.48 125.457 196.211C126.336 195.93 127.291 195.789 128.322 195.789C128.85 195.789 129.354 195.818 129.834 195.877C130.326 195.924 130.771 196.012 131.17 196.141H137.357V199.27H134.545ZM124.438 216.373C124.438 217.064 124.783 217.574 125.475 217.902C126.178 218.23 127.162 218.395 128.428 218.395C129.236 218.395 129.916 218.318 130.467 218.166C131.029 218.014 131.486 217.814 131.838 217.568C132.189 217.322 132.441 217.035 132.594 216.707C132.746 216.379 132.822 216.039 132.822 215.688C132.822 215.371 132.746 215.102 132.594 214.879C132.453 214.668 132.248 214.486 131.979 214.334C131.721 214.193 131.41 214.082 131.047 214C130.695 213.93 130.303 213.883 129.869 213.859L126.09 213.789C125.75 214.023 125.469 214.246 125.246 214.457C125.035 214.668 124.865 214.873 124.736 215.072C124.619 215.283 124.537 215.494 124.49 215.705C124.455 215.916 124.438 216.139 124.438 216.373ZM125.158 202.047C125.158 202.996 125.434 203.752 125.984 204.314C126.547 204.865 127.326 205.141 128.322 205.141C128.85 205.141 129.307 205.053 129.693 204.877C130.092 204.701 130.42 204.467 130.678 204.174C130.936 203.881 131.129 203.541 131.258 203.154C131.387 202.768 131.451 202.363 131.451 201.941C131.451 200.945 131.17 200.172 130.607 199.621C130.057 199.059 129.283 198.777 128.287 198.777C127.76 198.777 127.297 198.865 126.898 199.041C126.512 199.217 126.189 199.457 125.932 199.762C125.674 200.055 125.48 200.4 125.352 200.799C125.223 201.197 125.158 201.613 125.158 202.047ZM157.027 204.93C157.027 206.336 156.828 207.625 156.43 208.797C156.031 209.957 155.457 210.953 154.707 211.785C153.957 212.617 153.037 213.262 151.947 213.719C150.857 214.176 149.615 214.404 148.221 214.404C146.896 214.404 145.713 214.211 144.67 213.824C143.627 213.438 142.742 212.863 142.016 212.102C141.289 211.328 140.732 210.367 140.346 209.219C139.959 208.059 139.766 206.711 139.766 205.176C139.766 203.758 139.965 202.469 140.363 201.309C140.773 200.148 141.354 199.158 142.104 198.338C142.865 197.518 143.791 196.885 144.881 196.439C145.971 195.982 147.201 195.754 148.572 195.754C149.908 195.754 151.098 195.953 152.141 196.352C153.184 196.738 154.068 197.318 154.795 198.092C155.521 198.865 156.072 199.826 156.447 200.975C156.834 202.111 157.027 203.43 157.027 204.93ZM152.562 205.035C152.562 203.184 152.211 201.795 151.508 200.869C150.816 199.932 149.791 199.463 148.432 199.463C147.682 199.463 147.043 199.609 146.516 199.902C145.988 200.195 145.555 200.6 145.215 201.115C144.875 201.619 144.623 202.211 144.459 202.891C144.307 203.57 144.23 204.297 144.23 205.07C144.23 206.934 144.605 208.34 145.355 209.289C146.105 210.227 147.131 210.695 148.432 210.695C149.146 210.695 149.768 210.555 150.295 210.273C150.822 209.98 151.25 209.582 151.578 209.078C151.906 208.562 152.152 207.959 152.316 207.268C152.48 206.576 152.562 205.832 152.562 205.035ZM164.99 196.141V207.777C164.99 208.75 165.172 209.488 165.535 209.992C165.898 210.484 166.449 210.73 167.188 210.73C167.902 210.73 168.588 210.438 169.244 209.852C169.912 209.254 170.615 208.451 171.354 207.443V196.141H175.643V214H171.934L171.828 211.363C171.453 211.82 171.072 212.236 170.686 212.611C170.299 212.986 169.877 213.309 169.42 213.578C168.975 213.836 168.482 214.035 167.943 214.176C167.416 214.328 166.83 214.404 166.186 214.404C165.271 214.404 164.469 214.258 163.777 213.965C163.098 213.66 162.529 213.232 162.072 212.682C161.615 212.131 161.27 211.475 161.035 210.713C160.812 209.939 160.701 209.078 160.701 208.129V196.141H164.99ZM195.26 213.824C194.486 214 193.707 214.141 192.922 214.246C192.137 214.352 191.393 214.404 190.689 214.404C189.518 214.404 188.504 214.281 187.648 214.035C186.805 213.789 186.102 213.414 185.539 212.91C184.988 212.406 184.578 211.768 184.309 210.994C184.051 210.209 183.922 209.277 183.922 208.199V199.48H179.123V196.141H183.922V191.57L188.316 190.428V196.141H195.26V199.48H188.316V207.883C188.316 208.902 188.551 209.676 189.02 210.203C189.488 210.719 190.273 210.977 191.375 210.977C192.078 210.977 192.764 210.918 193.432 210.801C194.1 210.684 194.709 210.549 195.26 210.396V213.824Z" fill="#333333"/>
<g clip-path="url(#clip0_77_7)">
<path d="M206.425 145.376H188.55V63.6985C188.55 57.0432 183.739 51.6257 177.825 51.6257H152.8V67.2507H174.25V161.001H206.425C208.4 161.001 210 159.253 210 157.094V149.282C210 147.124 208.4 145.376 206.425 145.376ZM136.766 36.2473L93.8661 48.3909C90.6821 49.2918 88.45 52.5291 88.45 56.2449V145.376H70.575C68.5998 145.376 67 147.124 67 149.282V157.094C67 159.253 68.5998 161.001 70.575 161.001H145.65V44.1013C145.65 38.8328 141.28 34.968 136.766 36.2473V36.2473ZM125.988 106.313C123.027 106.313 120.625 102.815 120.625 98.5007C120.625 94.1868 123.027 90.6882 125.988 90.6882C128.948 90.6882 131.35 94.1868 131.35 98.5007C131.35 102.815 128.948 106.313 125.988 106.313Z" fill="#333333"/>
</g>
<defs>
<filter id="filter0_d_77_7" x="0" y="0" width="271" height="268" filterUnits="userSpaceOnUse" color-interpolation-filters="sRGB">
<feFlood flood-opacity="0" result="BackgroundImageFix"/>
<feColorMatrix in="SourceAlpha" type="matrix" values="0 0 0 0 0 0 0 0 0 0 0 0 0 0 0 0 0 0 127 0" result="hardAlpha"/>
<feOffset dx="-6" dy="6"/>
<feComposite in2="hardAlpha" operator="out"/>
<feColorMatrix type="matrix" values="0 0 0 0 0 0 0 0 0 0 0 0 0 0 0 0 0 0 0.25 0"/>
<feBlend mode="normal" in2="BackgroundImageFix" result="effect1_dropShadow_77_7"/>
<feBlend mode="normal" in="SourceGraphic" in2="effect1_dropShadow_77_7" result="shape"/>
</filter>
<clipPath id="clip0_77_7">
<rect width="143" height="125" fill="white" transform="translate(67 36)"/>
</clipPath>
</defs>
</svg>
