<svg width="230" height="230" viewBox="0 0 230 230" fill="none" xmlns="http://www.w3.org/2000/svg">
<g filter="url(#filter0_d_17_56)">
<rect x="6" width="224" height="224" fill="#F7FBFD"/>
<rect x="8.5" y="2.5" width="219" height="219" stroke="#333333" stroke-width="5"/>
</g>
<path d="M152.13 41.9401L88.8667 60.6223C87.5825 61.0257 86.4604 61.8282 85.6636 62.913C84.8668 63.9979 84.4367 65.3086 84.4359 66.6546V118.34C82.3641 117.837 80.2408 117.577 78.1089 117.565C67.63 117.565 59.1282 123.231 59.1282 130.218C59.1282 137.206 67.63 142.872 78.1089 142.872C88.5879 142.872 97.0897 137.206 97.0897 130.218V84.0161L147.705 69.1874V105.688C145.634 105.183 143.51 104.922 141.378 104.911C130.899 104.911 122.397 110.577 122.397 117.565C122.397 124.552 130.899 130.218 141.378 130.218C151.857 130.218 160.359 124.554 160.359 117.565V47.9685C160.358 46.9752 160.123 45.9961 159.674 45.1105C159.224 44.2248 158.572 43.4574 157.771 42.8705C156.97 42.2835 156.042 41.8934 155.062 41.7318C154.082 41.5701 153.077 41.6415 152.13 41.9401V41.9401Z" fill="#C6DFEC"/>
<path d="M152.13 39.0683L88.8667 57.7505C87.5825 58.1539 86.4604 58.9564 85.6636 60.0412C84.8668 61.1261 84.4367 62.4368 84.4359 63.7828V115.468C82.3641 114.965 80.2408 114.705 78.1089 114.693C67.63 114.693 59.1282 120.359 59.1282 127.347C59.1282 134.334 67.63 140.001 78.1089 140.001C88.5879 140.001 97.0897 134.334 97.0897 127.347V81.1443L147.705 66.3156V102.816C145.634 102.311 143.51 102.051 141.378 102.039C130.899 102.039 122.397 107.706 122.397 114.693C122.397 121.68 130.899 127.347 141.378 127.347C151.857 127.347 160.359 121.682 160.359 114.693V45.0967C160.358 44.1034 160.123 43.1243 159.674 42.2387C159.224 41.353 158.572 40.5856 157.771 39.9987C156.97 39.4117 156.042 39.0216 155.062 38.86C154.082 38.6983 153.077 38.7697 152.13 39.0683V39.0683Z" fill="#98B8C8"/>
<path d="M152.13 36.1965L88.8667 54.8787C87.5825 55.2821 86.4604 56.0846 85.6636 57.1694C84.8668 58.2543 84.4367 59.565 84.4359 60.911V112.596C82.3641 112.093 80.2408 111.833 78.1089 111.821C67.63 111.821 59.1282 117.488 59.1282 124.475C59.1282 131.462 67.63 137.129 78.1089 137.129C88.5879 137.129 97.0897 131.462 97.0897 124.475V78.2725L147.705 63.4438V99.9442C145.634 99.4396 143.51 99.1788 141.378 99.1672C130.899 99.1672 122.397 104.834 122.397 111.821C122.397 118.808 130.899 124.475 141.378 124.475C151.857 124.475 160.359 118.81 160.359 111.821V42.2249C160.358 41.2316 160.123 40.2525 159.674 39.3669C159.224 38.4812 158.572 37.7138 157.771 37.1269C156.97 36.5399 156.042 36.1498 155.062 35.9882C154.082 35.8265 153.077 35.8979 152.13 36.1965V36.1965Z" fill="#333333"/>
<path d="M82.4701 178.495C81.8256 178.641 81.1762 178.758 80.5219 178.846C79.8676 178.934 79.2475 178.978 78.6615 178.978C77.685 178.978 76.8402 178.875 76.1273 178.67C75.4242 178.465 74.8383 178.153 74.3695 177.733C73.9105 177.313 73.5687 176.781 73.3441 176.136C73.1293 175.482 73.0219 174.705 73.0219 173.807V166.541H69.0228V163.758H73.0219V159.95L76.684 158.997V163.758H82.4701V166.541H76.684V173.543C76.684 174.393 76.8793 175.038 77.2699 175.477C77.6605 175.907 78.3148 176.121 79.2328 176.121C79.8187 176.121 80.39 176.073 80.9467 175.975C81.5033 175.877 82.0111 175.765 82.4701 175.638V178.495ZM95.5658 178.641V168.944C95.5658 167.313 94.9603 166.497 93.7494 166.497C93.1439 166.497 92.5629 166.742 92.0062 167.23C91.4594 167.718 90.8783 168.382 90.2631 169.222V178.641H86.6889V157.943H90.2631V163.04L90.0873 165.736C90.39 165.374 90.6976 165.052 91.0101 164.769C91.3226 164.476 91.6596 164.232 92.0209 164.037C92.3822 163.841 92.7728 163.695 93.1928 163.597C93.6127 163.49 94.0766 163.436 94.5844 163.436C95.3461 163.436 96.0101 163.563 96.5766 163.817C97.143 164.061 97.6166 164.413 97.9975 164.871C98.3783 165.321 98.6615 165.868 98.8471 166.512C99.0424 167.147 99.14 167.86 99.14 168.651V178.641H95.5658ZM116.147 170.057C116.147 170.301 116.137 170.619 116.118 171.009C116.108 171.4 116.088 171.766 116.059 172.108H106.274C106.274 172.762 106.371 173.338 106.567 173.836C106.772 174.334 107.055 174.754 107.416 175.096C107.787 175.428 108.227 175.682 108.735 175.858C109.252 176.034 109.824 176.121 110.449 176.121C111.171 176.121 111.943 176.068 112.763 175.96C113.593 175.843 114.453 175.658 115.341 175.404V178.246C114.96 178.353 114.545 178.451 114.096 178.538C113.647 178.626 113.188 178.704 112.719 178.773C112.25 178.841 111.777 178.89 111.298 178.919C110.82 178.958 110.356 178.978 109.907 178.978C108.774 178.978 107.758 178.817 106.86 178.495C105.961 178.172 105.2 177.699 104.575 177.074C103.95 176.439 103.471 175.658 103.139 174.73C102.807 173.802 102.641 172.728 102.641 171.507C102.641 170.296 102.807 169.198 103.139 168.211C103.471 167.215 103.94 166.366 104.545 165.663C105.151 164.95 105.883 164.403 106.743 164.022C107.612 163.631 108.579 163.436 109.643 163.436C110.698 163.436 111.63 163.602 112.441 163.934C113.251 164.256 113.93 164.71 114.477 165.296C115.024 165.882 115.439 166.58 115.722 167.391C116.005 168.202 116.147 169.09 116.147 170.057ZM112.514 169.544C112.524 168.958 112.451 168.451 112.294 168.021C112.138 167.581 111.923 167.22 111.65 166.937C111.386 166.654 111.074 166.444 110.712 166.307C110.361 166.17 109.98 166.102 109.57 166.102C108.671 166.102 107.934 166.405 107.358 167.01C106.782 167.606 106.44 168.451 106.332 169.544H112.514ZM133.08 171.082C133.08 172.254 132.914 173.329 132.582 174.305C132.25 175.272 131.772 176.102 131.147 176.795C130.522 177.489 129.755 178.026 128.847 178.407C127.939 178.788 126.904 178.978 125.742 178.978C124.638 178.978 123.652 178.817 122.783 178.495C121.913 178.172 121.176 177.694 120.571 177.059C119.965 176.414 119.501 175.614 119.179 174.657C118.857 173.69 118.696 172.567 118.696 171.288C118.696 170.106 118.862 169.032 119.194 168.065C119.536 167.098 120.019 166.273 120.644 165.589C121.279 164.906 122.05 164.378 122.958 164.007C123.867 163.626 124.892 163.436 126.035 163.436C127.148 163.436 128.139 163.602 129.008 163.934C129.877 164.256 130.615 164.74 131.22 165.384C131.826 166.029 132.285 166.829 132.597 167.787C132.919 168.734 133.08 169.832 133.08 171.082ZM129.36 171.17C129.36 169.627 129.067 168.47 128.481 167.699C127.905 166.917 127.05 166.527 125.917 166.527C125.292 166.527 124.76 166.649 124.321 166.893C123.881 167.137 123.52 167.474 123.237 167.904C122.954 168.324 122.744 168.817 122.607 169.383C122.48 169.95 122.416 170.555 122.416 171.2C122.416 172.752 122.729 173.924 123.354 174.715C123.979 175.496 124.833 175.887 125.917 175.887C126.513 175.887 127.031 175.77 127.47 175.536C127.91 175.291 128.266 174.959 128.539 174.539C128.813 174.11 129.018 173.607 129.155 173.031C129.291 172.454 129.36 171.834 129.36 171.17ZM145.751 169.544C145.771 168.988 145.742 168.514 145.663 168.123C145.595 167.733 145.478 167.411 145.312 167.157C145.156 166.903 144.96 166.717 144.726 166.6C144.492 166.483 144.223 166.424 143.92 166.424C143.393 166.424 142.846 166.644 142.28 167.083C141.723 167.513 141.108 168.226 140.434 169.222V178.641H136.772V163.758H140.009L140.141 165.926C140.385 165.545 140.659 165.204 140.961 164.901C141.274 164.598 141.616 164.339 141.987 164.124C142.368 163.9 142.787 163.729 143.246 163.612C143.705 163.495 144.208 163.436 144.755 163.436C145.507 163.436 146.171 163.568 146.747 163.831C147.333 164.085 147.822 164.466 148.212 164.974C148.613 165.482 148.906 166.121 149.091 166.893C149.287 167.655 149.37 168.538 149.34 169.544H145.751ZM161.616 177.015C161.098 178.304 160.556 179.432 159.99 180.399C159.433 181.375 158.818 182.186 158.144 182.83C157.47 183.485 156.718 183.973 155.888 184.295C155.068 184.627 154.145 184.793 153.12 184.793C152.875 184.793 152.607 184.779 152.314 184.749C152.031 184.73 151.738 184.696 151.435 184.647V181.615C151.552 181.634 151.684 181.654 151.83 181.673C151.987 181.703 152.148 181.722 152.314 181.732C152.48 181.751 152.646 181.766 152.812 181.776C152.988 181.786 153.149 181.79 153.295 181.79C153.705 181.79 154.086 181.712 154.438 181.556C154.789 181.4 155.112 181.18 155.405 180.897C155.707 180.623 155.981 180.291 156.225 179.901C156.469 179.52 156.684 179.1 156.87 178.641L150.966 163.758H154.951L158.041 172.196L158.964 174.92L159.872 172.313L162.993 163.758H166.83L161.616 177.015Z" fill="#333333"/>
<defs>
<filter id="filter0_d_17_56" x="0" y="0" width="230" height="230" filterUnits="userSpaceOnUse" color-interpolation-filters="sRGB">
<feFlood flood-opacity="0" result="BackgroundImageFix"/>
<feColorMatrix in="SourceAlpha" type="matrix" values="0 0 0 0 0 0 0 0 0 0 0 0 0 0 0 0 0 0 127 0" result="hardAlpha"/>
<feOffset dx="-6" dy="6"/>
<feComposite in2="hardAlpha" operator="out"/>
<feColorMatrix type="matrix" values="0 0 0 0 0 0 0 0 0 0 0 0 0 0 0 0 0 0 0.25 0"/>
<feBlend mode="normal" in2="BackgroundImageFix" result="effect1_dropShadow_17_56"/>
<feBlend mode="normal" in="SourceGraphic" in2="effect1_dropShadow_17_56" result="shape"/>
</filter>
</defs>
</svg>
