<svg width="230" height="230" viewBox="0 0 230 230" fill="none" xmlns="http://www.w3.org/2000/svg">
<g filter="url(#filter0_d_41_3)">
<rect x="6" width="224" height="224" fill="#F7FBFD"/>
<rect x="8.5" y="2.5" width="219" height="219" stroke="#333333" stroke-width="5"/>
</g>
<path d="M55.1436 179L55.0557 177.052C54.7432 177.384 54.416 177.691 54.0742 177.975C53.7324 178.248 53.3564 178.487 52.9463 178.692C52.5361 178.897 52.0869 179.054 51.5986 179.161C51.1201 179.278 50.5928 179.337 50.0166 179.337C49.2549 179.337 48.5859 179.225 48.0098 179C47.4336 178.775 46.9502 178.463 46.5596 178.062C46.1689 177.662 45.8711 177.179 45.666 176.612C45.4707 176.046 45.373 175.421 45.373 174.737C45.373 174.034 45.5195 173.385 45.8125 172.789C46.1152 172.193 46.5693 171.681 47.1748 171.251C47.79 170.821 48.5518 170.484 49.46 170.24C50.3779 169.996 51.4521 169.874 52.6826 169.874H54.6309V168.98C54.6309 168.6 54.5771 168.258 54.4697 167.955C54.3623 167.643 54.1865 167.379 53.9424 167.164C53.708 166.949 53.4004 166.783 53.0195 166.666C52.6387 166.549 52.1699 166.49 51.6133 166.49C50.7344 166.49 49.8652 166.593 49.0059 166.798C48.1562 166.993 47.3311 167.271 46.5303 167.633V164.776C47.2432 164.493 48.0635 164.259 48.9912 164.073C49.9287 163.888 50.9004 163.795 51.9062 163.795C53.0098 163.795 53.957 163.902 54.748 164.117C55.5391 164.322 56.1885 164.635 56.6963 165.055C57.2139 165.475 57.5947 166.002 57.8389 166.637C58.083 167.262 58.2051 167.994 58.2051 168.834V179H55.1436ZM54.6309 172.423H52.4482C51.8428 172.423 51.3301 172.481 50.9102 172.599C50.4902 172.716 50.1484 172.877 49.8848 173.082C49.6211 173.287 49.4258 173.526 49.2988 173.8C49.1816 174.063 49.123 174.347 49.123 174.649C49.123 175.255 49.3184 175.719 49.709 176.041C50.0996 176.354 50.6318 176.51 51.3057 176.51C51.8037 176.51 52.3213 176.329 52.8584 175.968C53.3955 175.606 53.9863 175.089 54.6309 174.415V172.423ZM71.8867 169.903C71.9062 169.347 71.877 168.873 71.7988 168.482C71.7305 168.092 71.6133 167.77 71.4473 167.516C71.291 167.262 71.0957 167.076 70.8613 166.959C70.627 166.842 70.3584 166.783 70.0557 166.783C69.5283 166.783 68.9814 167.003 68.415 167.442C67.8584 167.872 67.2432 168.585 66.5693 169.581V179H62.9072V164.117H66.1445L66.2764 166.285C66.5205 165.904 66.7939 165.562 67.0967 165.26C67.4092 164.957 67.751 164.698 68.1221 164.483C68.5029 164.259 68.9229 164.088 69.3818 163.971C69.8408 163.854 70.3438 163.795 70.8906 163.795C71.6426 163.795 72.3066 163.927 72.8828 164.19C73.4688 164.444 73.957 164.825 74.3477 165.333C74.748 165.841 75.041 166.48 75.2266 167.252C75.4219 168.014 75.5049 168.897 75.4756 169.903H71.8867ZM92.1895 171.295C92.1895 172.662 91.9941 173.844 91.6035 174.84C91.2227 175.836 90.6855 176.666 89.9922 177.33C89.3086 177.984 88.498 178.473 87.5605 178.795C86.623 179.107 85.6025 179.264 84.499 179.264C84.1279 179.264 83.7568 179.239 83.3857 179.19C83.0146 179.142 82.6777 179.078 82.375 179V184.815H78.8008V164.117H81.8916L81.9795 166.314C82.2822 165.934 82.5947 165.587 82.917 165.274C83.249 164.962 83.6055 164.698 83.9863 164.483C84.3672 164.259 84.7773 164.088 85.2168 163.971C85.6562 163.854 86.1494 163.795 86.6963 163.795C87.5752 163.795 88.3564 163.971 89.04 164.322C89.7236 164.674 90.2949 165.177 90.7539 165.831C91.2227 166.476 91.5791 167.262 91.8232 168.189C92.0674 169.107 92.1895 170.143 92.1895 171.295ZM88.4395 171.441C88.4395 170.621 88.3809 169.923 88.2637 169.347C88.1465 168.771 87.9756 168.297 87.751 167.926C87.5361 167.555 87.2676 167.286 86.9453 167.12C86.6328 166.944 86.2715 166.856 85.8613 166.856C85.2559 166.856 84.6748 167.101 84.1182 167.589C83.5713 168.077 82.9902 168.741 82.375 169.581V176.085C82.6582 176.192 83.0049 176.28 83.415 176.349C83.835 176.417 84.2598 176.451 84.6895 176.451C85.2559 176.451 85.7686 176.334 86.2275 176.1C86.6963 175.865 87.0918 175.533 87.4141 175.104C87.7461 174.674 88 174.151 88.1758 173.536C88.3516 172.911 88.4395 172.213 88.4395 171.441ZM108.259 170.416C108.259 170.66 108.249 170.978 108.229 171.368C108.22 171.759 108.2 172.125 108.171 172.467H98.3857C98.3857 173.121 98.4834 173.697 98.6787 174.195C98.8838 174.693 99.167 175.113 99.5283 175.455C99.8994 175.787 100.339 176.041 100.847 176.217C101.364 176.393 101.936 176.48 102.561 176.48C103.283 176.48 104.055 176.427 104.875 176.319C105.705 176.202 106.564 176.017 107.453 175.763V178.604C107.072 178.712 106.657 178.81 106.208 178.897C105.759 178.985 105.3 179.063 104.831 179.132C104.362 179.2 103.889 179.249 103.41 179.278C102.932 179.317 102.468 179.337 102.019 179.337C100.886 179.337 99.8701 179.176 98.9717 178.854C98.0732 178.531 97.3115 178.058 96.6865 177.433C96.0615 176.798 95.583 176.017 95.251 175.089C94.9189 174.161 94.7529 173.087 94.7529 171.866C94.7529 170.655 94.9189 169.557 95.251 168.57C95.583 167.574 96.0518 166.725 96.6572 166.021C97.2627 165.309 97.9951 164.762 98.8545 164.381C99.7236 163.99 100.69 163.795 101.755 163.795C102.81 163.795 103.742 163.961 104.553 164.293C105.363 164.615 106.042 165.069 106.589 165.655C107.136 166.241 107.551 166.939 107.834 167.75C108.117 168.561 108.259 169.449 108.259 170.416ZM104.626 169.903C104.636 169.317 104.562 168.81 104.406 168.38C104.25 167.94 104.035 167.579 103.762 167.296C103.498 167.013 103.186 166.803 102.824 166.666C102.473 166.529 102.092 166.461 101.682 166.461C100.783 166.461 100.046 166.764 99.4697 167.369C98.8936 167.965 98.5518 168.81 98.4443 169.903H104.626ZM122.951 166.725C123.225 167.066 123.415 167.428 123.522 167.809C123.64 168.18 123.698 168.561 123.698 168.951C123.698 169.781 123.552 170.514 123.259 171.148C122.976 171.783 122.57 172.315 122.043 172.745C121.525 173.175 120.9 173.502 120.168 173.727C119.445 173.941 118.645 174.049 117.766 174.049C117.248 174.049 116.77 174 116.33 173.902C115.891 173.795 115.559 173.673 115.334 173.536C115.168 173.702 115.026 173.888 114.909 174.093C114.792 174.288 114.733 174.513 114.733 174.767C114.733 174.923 114.772 175.079 114.851 175.235C114.929 175.392 115.041 175.533 115.188 175.66C115.344 175.777 115.524 175.875 115.729 175.953C115.944 176.031 116.184 176.075 116.447 176.085L119.978 176.217C120.769 176.236 121.481 176.339 122.116 176.524C122.761 176.7 123.312 176.954 123.771 177.286C124.23 177.618 124.582 178.023 124.826 178.502C125.08 178.971 125.207 179.508 125.207 180.113C125.207 180.807 125.051 181.461 124.738 182.076C124.426 182.691 123.952 183.224 123.317 183.673C122.692 184.132 121.911 184.493 120.974 184.757C120.036 185.021 118.947 185.152 117.707 185.152C116.506 185.152 115.471 185.055 114.602 184.859C113.742 184.674 113.034 184.41 112.478 184.068C111.931 183.727 111.525 183.316 111.262 182.838C110.998 182.369 110.866 181.852 110.866 181.285C110.866 180.943 110.91 180.626 110.998 180.333C111.086 180.04 111.218 179.757 111.394 179.483C111.569 179.22 111.789 178.961 112.053 178.707C112.316 178.453 112.629 178.199 112.99 177.945C112.512 177.672 112.146 177.32 111.892 176.891C111.647 176.461 111.525 176.002 111.525 175.514C111.525 175.182 111.569 174.874 111.657 174.591C111.745 174.298 111.857 174.02 111.994 173.756C112.141 173.492 112.307 173.238 112.492 172.994C112.678 172.75 112.873 172.511 113.078 172.276C112.717 171.915 112.414 171.48 112.17 170.973C111.936 170.455 111.818 169.811 111.818 169.039C111.818 168.209 111.965 167.472 112.258 166.827C112.561 166.173 112.976 165.626 113.503 165.187C114.03 164.737 114.655 164.4 115.378 164.176C116.11 163.941 116.906 163.824 117.766 163.824C118.205 163.824 118.625 163.849 119.025 163.897C119.436 163.937 119.807 164.01 120.139 164.117H125.295V166.725H122.951ZM114.528 180.978C114.528 181.554 114.816 181.979 115.393 182.252C115.979 182.525 116.799 182.662 117.854 182.662C118.527 182.662 119.094 182.599 119.553 182.472C120.021 182.345 120.402 182.179 120.695 181.974C120.988 181.769 121.198 181.529 121.325 181.256C121.452 180.982 121.516 180.699 121.516 180.406C121.516 180.143 121.452 179.918 121.325 179.732C121.208 179.557 121.037 179.405 120.812 179.278C120.598 179.161 120.339 179.068 120.036 179C119.743 178.941 119.416 178.902 119.055 178.883L115.905 178.824C115.622 179.02 115.388 179.205 115.202 179.381C115.026 179.557 114.885 179.728 114.777 179.894C114.68 180.069 114.611 180.245 114.572 180.421C114.543 180.597 114.528 180.782 114.528 180.978ZM115.129 169.039C115.129 169.83 115.358 170.46 115.817 170.929C116.286 171.388 116.936 171.617 117.766 171.617C118.205 171.617 118.586 171.544 118.908 171.397C119.24 171.251 119.514 171.056 119.729 170.812C119.943 170.567 120.104 170.284 120.212 169.962C120.319 169.64 120.373 169.303 120.373 168.951C120.373 168.121 120.139 167.477 119.67 167.018C119.211 166.549 118.566 166.314 117.736 166.314C117.297 166.314 116.911 166.388 116.579 166.534C116.257 166.681 115.988 166.881 115.773 167.135C115.559 167.379 115.397 167.667 115.29 167.999C115.183 168.331 115.129 168.678 115.129 169.039ZM139.445 166.725C139.719 167.066 139.909 167.428 140.017 167.809C140.134 168.18 140.192 168.561 140.192 168.951C140.192 169.781 140.046 170.514 139.753 171.148C139.47 171.783 139.064 172.315 138.537 172.745C138.02 173.175 137.395 173.502 136.662 173.727C135.939 173.941 135.139 174.049 134.26 174.049C133.742 174.049 133.264 174 132.824 173.902C132.385 173.795 132.053 173.673 131.828 173.536C131.662 173.702 131.521 173.888 131.403 174.093C131.286 174.288 131.228 174.513 131.228 174.767C131.228 174.923 131.267 175.079 131.345 175.235C131.423 175.392 131.535 175.533 131.682 175.66C131.838 175.777 132.019 175.875 132.224 175.953C132.438 176.031 132.678 176.075 132.941 176.085L136.472 176.217C137.263 176.236 137.976 176.339 138.61 176.524C139.255 176.7 139.807 176.954 140.266 177.286C140.725 177.618 141.076 178.023 141.32 178.502C141.574 178.971 141.701 179.508 141.701 180.113C141.701 180.807 141.545 181.461 141.232 182.076C140.92 182.691 140.446 183.224 139.812 183.673C139.187 184.132 138.405 184.493 137.468 184.757C136.53 185.021 135.441 185.152 134.201 185.152C133 185.152 131.965 185.055 131.096 184.859C130.236 184.674 129.528 184.41 128.972 184.068C128.425 183.727 128.02 183.316 127.756 182.838C127.492 182.369 127.36 181.852 127.36 181.285C127.36 180.943 127.404 180.626 127.492 180.333C127.58 180.04 127.712 179.757 127.888 179.483C128.063 179.22 128.283 178.961 128.547 178.707C128.811 178.453 129.123 178.199 129.484 177.945C129.006 177.672 128.64 177.32 128.386 176.891C128.142 176.461 128.02 176.002 128.02 175.514C128.02 175.182 128.063 174.874 128.151 174.591C128.239 174.298 128.352 174.02 128.488 173.756C128.635 173.492 128.801 173.238 128.986 172.994C129.172 172.75 129.367 172.511 129.572 172.276C129.211 171.915 128.908 171.48 128.664 170.973C128.43 170.455 128.312 169.811 128.312 169.039C128.312 168.209 128.459 167.472 128.752 166.827C129.055 166.173 129.47 165.626 129.997 165.187C130.524 164.737 131.149 164.4 131.872 164.176C132.604 163.941 133.4 163.824 134.26 163.824C134.699 163.824 135.119 163.849 135.52 163.897C135.93 163.937 136.301 164.01 136.633 164.117H141.789V166.725H139.445ZM131.022 180.978C131.022 181.554 131.311 181.979 131.887 182.252C132.473 182.525 133.293 182.662 134.348 182.662C135.021 182.662 135.588 182.599 136.047 182.472C136.516 182.345 136.896 182.179 137.189 181.974C137.482 181.769 137.692 181.529 137.819 181.256C137.946 180.982 138.01 180.699 138.01 180.406C138.01 180.143 137.946 179.918 137.819 179.732C137.702 179.557 137.531 179.405 137.307 179.278C137.092 179.161 136.833 179.068 136.53 179C136.237 178.941 135.91 178.902 135.549 178.883L132.399 178.824C132.116 179.02 131.882 179.205 131.696 179.381C131.521 179.557 131.379 179.728 131.271 179.894C131.174 180.069 131.105 180.245 131.066 180.421C131.037 180.597 131.022 180.782 131.022 180.978ZM131.623 169.039C131.623 169.83 131.853 170.46 132.312 170.929C132.78 171.388 133.43 171.617 134.26 171.617C134.699 171.617 135.08 171.544 135.402 171.397C135.734 171.251 136.008 171.056 136.223 170.812C136.438 170.567 136.599 170.284 136.706 169.962C136.813 169.64 136.867 169.303 136.867 168.951C136.867 168.121 136.633 167.477 136.164 167.018C135.705 166.549 135.061 166.314 134.23 166.314C133.791 166.314 133.405 166.388 133.073 166.534C132.751 166.681 132.482 166.881 132.268 167.135C132.053 167.379 131.892 167.667 131.784 167.999C131.677 168.331 131.623 168.678 131.623 169.039ZM153.537 160.045C153.537 160.367 153.479 160.67 153.361 160.953C153.244 161.236 153.078 161.485 152.863 161.7C152.658 161.905 152.414 162.071 152.131 162.198C151.848 162.315 151.54 162.374 151.208 162.374C150.876 162.374 150.563 162.315 150.271 162.198C149.987 162.071 149.738 161.905 149.523 161.7C149.318 161.485 149.157 161.236 149.04 160.953C148.923 160.67 148.864 160.367 148.864 160.045C148.864 159.723 148.923 159.42 149.04 159.137C149.157 158.854 149.318 158.604 149.523 158.39C149.738 158.175 149.987 158.009 150.271 157.892C150.563 157.765 150.876 157.701 151.208 157.701C151.54 157.701 151.848 157.765 152.131 157.892C152.414 158.009 152.658 158.175 152.863 158.39C153.078 158.604 153.244 158.854 153.361 159.137C153.479 159.42 153.537 159.723 153.537 160.045ZM149.582 166.9H145.378V164.117H153.244V176.217H157.536V179H144.865V176.217H149.582V166.9ZM174.675 171.441C174.675 172.613 174.509 173.688 174.177 174.664C173.845 175.631 173.366 176.461 172.741 177.154C172.116 177.848 171.35 178.385 170.441 178.766C169.533 179.146 168.498 179.337 167.336 179.337C166.232 179.337 165.246 179.176 164.377 178.854C163.508 178.531 162.771 178.053 162.165 177.418C161.56 176.773 161.096 175.973 160.773 175.016C160.451 174.049 160.29 172.926 160.29 171.646C160.29 170.465 160.456 169.391 160.788 168.424C161.13 167.457 161.613 166.632 162.238 165.948C162.873 165.265 163.645 164.737 164.553 164.366C165.461 163.985 166.486 163.795 167.629 163.795C168.742 163.795 169.733 163.961 170.603 164.293C171.472 164.615 172.209 165.099 172.814 165.743C173.42 166.388 173.879 167.188 174.191 168.146C174.514 169.093 174.675 170.191 174.675 171.441ZM170.954 171.529C170.954 169.986 170.661 168.829 170.075 168.058C169.499 167.276 168.645 166.886 167.512 166.886C166.887 166.886 166.354 167.008 165.915 167.252C165.476 167.496 165.114 167.833 164.831 168.263C164.548 168.683 164.338 169.176 164.201 169.742C164.074 170.309 164.011 170.914 164.011 171.559C164.011 173.111 164.323 174.283 164.948 175.074C165.573 175.855 166.428 176.246 167.512 176.246C168.107 176.246 168.625 176.129 169.064 175.895C169.504 175.65 169.86 175.318 170.134 174.898C170.407 174.469 170.612 173.966 170.749 173.39C170.886 172.813 170.954 172.193 170.954 171.529ZM190.041 174.62C190.041 175.47 189.851 176.197 189.47 176.803C189.099 177.398 188.601 177.887 187.976 178.268C187.36 178.639 186.657 178.907 185.866 179.073C185.085 179.249 184.284 179.337 183.464 179.337C182.37 179.337 181.384 179.283 180.505 179.176C179.626 179.078 178.796 178.932 178.015 178.736V175.514C178.933 175.895 179.846 176.173 180.754 176.349C181.672 176.515 182.536 176.598 183.347 176.598C184.284 176.598 184.982 176.451 185.441 176.158C185.91 175.855 186.145 175.465 186.145 174.986C186.145 174.762 186.096 174.557 185.998 174.371C185.9 174.186 185.715 174.01 185.441 173.844C185.178 173.668 184.802 173.492 184.313 173.316C183.825 173.131 183.186 172.926 182.395 172.701C181.662 172.496 181.018 172.267 180.461 172.013C179.914 171.749 179.46 171.441 179.099 171.09C178.737 170.738 178.464 170.333 178.278 169.874C178.103 169.405 178.015 168.858 178.015 168.233C178.015 167.628 178.151 167.057 178.425 166.52C178.698 165.982 179.104 165.514 179.641 165.113C180.188 164.703 180.866 164.381 181.677 164.146C182.487 163.912 183.435 163.795 184.519 163.795C185.456 163.795 186.286 163.844 187.009 163.941C187.731 164.039 188.371 164.146 188.928 164.264V167.179C188.078 166.905 187.277 166.715 186.525 166.607C185.783 166.49 185.046 166.432 184.313 166.432C183.581 166.432 182.99 166.563 182.541 166.827C182.102 167.091 181.882 167.457 181.882 167.926C181.882 168.15 181.926 168.351 182.014 168.526C182.102 168.702 182.272 168.873 182.526 169.039C182.79 169.205 183.151 169.381 183.61 169.566C184.079 169.742 184.694 169.938 185.456 170.152C186.315 170.396 187.038 170.66 187.624 170.943C188.21 171.217 188.679 171.529 189.03 171.881C189.392 172.232 189.65 172.633 189.807 173.082C189.963 173.531 190.041 174.044 190.041 174.62Z" fill="#333333"/>
<g clip-path="url(#clip0_41_3)">
<path d="M96.8831 139.875H115.814H120.27H139.201H143.656H167.043V40.939H143.656H139.201H120.27H115.814H96.8831H92.4278H69.0415V139.875H92.4278H96.8831ZM162.031 134.864H144.212V106.188H150.059V45.9503H162.031V134.864ZM138.644 106.188V134.864H120.825V106.188H126.672V45.9503H132.24V106.188H138.644ZM115.258 106.188V134.864H97.4395V106.188H103.286V45.9503H108.854V106.188H115.258ZM91.8718 134.864H74.0528V45.9503H85.467V106.188H91.8718V134.864Z" fill="#C6DFEC"/>
</g>
<g clip-path="url(#clip1_41_3)">
<path d="M96.8831 137.316H115.814H120.27H139.201H143.656H167.043V38.3803H143.656H139.201H120.27H115.814H96.8831H92.4278H69.0415V137.316H92.4278H96.8831ZM162.031 132.305H144.212V103.63H150.059V43.3916H162.031V132.305ZM138.644 103.63V132.305H120.825V103.63H126.672V43.3916H132.24V103.63H138.644ZM115.258 103.63V132.305H97.4395V103.63H103.286V43.3916H108.854V103.63H115.258ZM91.8718 132.305H74.0528V43.3916H85.467V103.63H91.8718V132.305Z" fill="#98B8C8"/>
</g>
<g clip-path="url(#clip2_41_3)">
<path d="M96.8831 134.758H115.814H120.27H139.201H143.656H167.043V35.8216H143.656H139.201H120.27H115.814H96.8831H92.4278H69.0415V134.758H92.4278H96.8831ZM162.031 129.746H144.212V101.071H150.059V40.833H162.031V129.746ZM138.644 101.071V129.746H120.825V101.071H126.672V40.833H132.24V101.071H138.644ZM115.258 101.071V129.746H97.4395V101.071H103.286V40.833H108.854V101.071H115.258ZM91.8718 129.746H74.0528V40.833H85.467V101.071H91.8718V129.746Z" fill="#333333"/>
</g>
<defs>
<filter id="filter0_d_41_3" x="0" y="0" width="230" height="230" filterUnits="userSpaceOnUse" color-interpolation-filters="sRGB">
<feFlood flood-opacity="0" result="BackgroundImageFix"/>
<feColorMatrix in="SourceAlpha" type="matrix" values="0 0 0 0 0 0 0 0 0 0 0 0 0 0 0 0 0 0 127 0" result="hardAlpha"/>
<feOffset dx="-6" dy="6"/>
<feComposite in2="hardAlpha" operator="out"/>
<feColorMatrix type="matrix" values="0 0 0 0 0 0 0 0 0 0 0 0 0 0 0 0 0 0 0.25 0"/>
<feBlend mode="normal" in2="BackgroundImageFix" result="effect1_dropShadow_41_3"/>
<feBlend mode="normal" in="SourceGraphic" in2="effect1_dropShadow_41_3" result="shape"/>
</filter>
<clipPath id="clip0_41_3">
<rect width="98.9359" height="98.9359" fill="white" transform="translate(68.573 40.939)"/>
</clipPath>
<clipPath id="clip1_41_3">
<rect width="98.9359" height="98.9359" fill="white" transform="translate(68.573 38.3803)"/>
</clipPath>
<clipPath id="clip2_41_3">
<rect width="98.9359" height="98.9359" fill="white" transform="translate(68.573 35.8216)"/>
</clipPath>
</defs>
</svg>
