<svg width="230" height="230" viewBox="0 0 230 230" fill="none" xmlns="http://www.w3.org/2000/svg">
<g filter="url(#filter0_d_17_60)">
<rect x="6" width="224" height="224" fill="#F7FBFD"/>
<rect x="8.5" y="2.5" width="219" height="219" stroke="#333333" stroke-width="5"/>
</g>
<path d="M74.941 174.261C74.941 175.111 74.7506 175.838 74.3697 176.444C73.9986 177.039 73.5006 177.528 72.8756 177.909C72.2603 178.28 71.5572 178.548 70.7662 178.714C69.985 178.89 69.1842 178.978 68.3639 178.978C67.2701 178.978 66.2838 178.924 65.4049 178.817C64.526 178.719 63.6959 178.573 62.9146 178.377V175.155C63.8326 175.536 64.7457 175.814 65.6539 175.99C66.5719 176.156 67.4361 176.239 68.2467 176.239C69.1842 176.239 69.8824 176.092 70.3414 175.799C70.8102 175.496 71.0445 175.106 71.0445 174.627C71.0445 174.403 70.9957 174.198 70.898 174.012C70.8004 173.827 70.6148 173.651 70.3414 173.485C70.0777 173.309 69.7018 173.133 69.2135 172.957C68.7252 172.772 68.0855 172.567 67.2945 172.342C66.5621 172.137 65.9176 171.908 65.3609 171.654C64.8141 171.39 64.36 171.082 63.9986 170.731C63.6373 170.379 63.3639 169.974 63.1783 169.515C63.0025 169.046 62.9146 168.499 62.9146 167.874C62.9146 167.269 63.0514 166.698 63.3248 166.161C63.5982 165.623 64.0035 165.155 64.5406 164.754C65.0875 164.344 65.7662 164.022 66.5768 163.788C67.3873 163.553 68.3346 163.436 69.4185 163.436C70.356 163.436 71.1861 163.485 71.9088 163.582C72.6314 163.68 73.2711 163.788 73.8277 163.905V166.82C72.9781 166.546 72.1773 166.356 71.4254 166.248C70.6832 166.131 69.9459 166.073 69.2135 166.073C68.481 166.073 67.8902 166.204 67.441 166.468C67.0016 166.732 66.7818 167.098 66.7818 167.567C66.7818 167.791 66.8258 167.992 66.9137 168.167C67.0016 168.343 67.1725 168.514 67.4264 168.68C67.69 168.846 68.0514 169.022 68.5103 169.207C68.9791 169.383 69.5943 169.579 70.356 169.793C71.2154 170.038 71.9381 170.301 72.524 170.584C73.11 170.858 73.5787 171.17 73.9303 171.522C74.2916 171.873 74.5504 172.274 74.7066 172.723C74.8629 173.172 74.941 173.685 74.941 174.261ZM92.5631 171.082C92.5631 172.254 92.3971 173.329 92.065 174.305C91.733 175.272 91.2545 176.102 90.6295 176.795C90.0045 177.489 89.2379 178.026 88.3297 178.407C87.4215 178.788 86.3863 178.978 85.2242 178.978C84.1207 178.978 83.1344 178.817 82.2652 178.495C81.3961 178.172 80.6588 177.694 80.0533 177.059C79.4478 176.414 78.984 175.614 78.6617 174.657C78.3394 173.69 78.1783 172.567 78.1783 171.288C78.1783 170.106 78.3443 169.032 78.6764 168.065C79.0182 167.098 79.5016 166.273 80.1266 165.589C80.7613 164.906 81.5328 164.378 82.441 164.007C83.3492 163.626 84.3746 163.436 85.5172 163.436C86.6305 163.436 87.6217 163.602 88.4908 163.934C89.36 164.256 90.0973 164.74 90.7027 165.384C91.3082 166.029 91.7672 166.829 92.0797 167.787C92.4019 168.734 92.5631 169.832 92.5631 171.082ZM88.8424 171.17C88.8424 169.627 88.5494 168.47 87.9635 167.699C87.3873 166.917 86.5328 166.527 85.4 166.527C84.775 166.527 84.2428 166.649 83.8033 166.893C83.3639 167.137 83.0025 167.474 82.7193 167.904C82.4361 168.324 82.2262 168.817 82.0894 169.383C81.9625 169.95 81.899 170.555 81.899 171.2C81.899 172.752 82.2115 173.924 82.8365 174.715C83.4615 175.496 84.316 175.887 85.4 175.887C85.9957 175.887 86.5133 175.77 86.9527 175.536C87.3922 175.291 87.7486 174.959 88.0221 174.539C88.2955 174.11 88.5006 173.607 88.6373 173.031C88.774 172.454 88.8424 171.834 88.8424 171.17ZM100.459 160.726H96.2545V157.943H104.121V175.858H108.413V178.641H95.7418V175.858H100.459V160.726ZM125.551 171.082C125.551 172.254 125.385 173.329 125.053 174.305C124.721 175.272 124.243 176.102 123.618 176.795C122.993 177.489 122.226 178.026 121.318 178.407C120.41 178.788 119.375 178.978 118.212 178.978C117.109 178.978 116.123 178.817 115.254 178.495C114.384 178.172 113.647 177.694 113.042 177.059C112.436 176.414 111.972 175.614 111.65 174.657C111.328 173.69 111.167 172.567 111.167 171.288C111.167 170.106 111.333 169.032 111.665 168.065C112.006 167.098 112.49 166.273 113.115 165.589C113.75 164.906 114.521 164.378 115.429 164.007C116.337 163.626 117.363 163.436 118.505 163.436C119.619 163.436 120.61 163.602 121.479 163.934C122.348 164.256 123.086 164.74 123.691 165.384C124.296 166.029 124.755 166.829 125.068 167.787C125.39 168.734 125.551 169.832 125.551 171.082ZM121.831 171.17C121.831 169.627 121.538 168.47 120.952 167.699C120.376 166.917 119.521 166.527 118.388 166.527C117.763 166.527 117.231 166.649 116.792 166.893C116.352 167.137 115.991 167.474 115.708 167.904C115.424 168.324 115.214 168.817 115.078 169.383C114.951 169.95 114.887 170.555 114.887 171.2C114.887 172.752 115.2 173.924 115.825 174.715C116.45 175.496 117.304 175.887 118.388 175.887C118.984 175.887 119.502 175.77 119.941 175.536C120.38 175.291 120.737 174.959 121.01 174.539C121.284 174.11 121.489 173.607 121.626 173.031C121.762 172.454 121.831 171.834 121.831 171.17ZM137.402 159.686C137.402 160.008 137.343 160.311 137.226 160.594C137.109 160.877 136.943 161.126 136.728 161.341C136.523 161.546 136.279 161.712 135.996 161.839C135.712 161.956 135.405 162.015 135.073 162.015C134.741 162.015 134.428 161.956 134.135 161.839C133.852 161.712 133.603 161.546 133.388 161.341C133.183 161.126 133.022 160.877 132.905 160.594C132.788 160.311 132.729 160.008 132.729 159.686C132.729 159.364 132.788 159.061 132.905 158.778C133.022 158.495 133.183 158.246 133.388 158.031C133.603 157.816 133.852 157.65 134.135 157.533C134.428 157.406 134.741 157.342 135.073 157.342C135.405 157.342 135.712 157.406 135.996 157.533C136.279 157.65 136.523 157.816 136.728 158.031C136.943 158.246 137.109 158.495 137.226 158.778C137.343 159.061 137.402 159.364 137.402 159.686ZM133.447 166.541H129.243V163.758H137.109V175.858H141.401V178.641H128.73V175.858H133.447V166.541ZM154.013 178.641V168.944C154.013 167.313 153.408 166.497 152.197 166.497C151.591 166.497 151.01 166.742 150.454 167.23C149.907 167.718 149.326 168.382 148.711 169.222V178.641H145.136V163.758H148.227L148.315 165.955C148.618 165.575 148.93 165.228 149.253 164.915C149.585 164.603 149.941 164.339 150.322 164.124C150.703 163.9 151.113 163.729 151.552 163.612C151.992 163.495 152.485 163.436 153.032 163.436C153.794 163.436 154.458 163.563 155.024 163.817C155.59 164.061 156.064 164.413 156.445 164.871C156.826 165.321 157.109 165.868 157.295 166.512C157.49 167.147 157.587 167.86 157.587 168.651V178.641H154.013ZM172.793 166.366C173.066 166.707 173.256 167.069 173.364 167.45C173.481 167.821 173.54 168.202 173.54 168.592C173.54 169.422 173.393 170.155 173.1 170.789C172.817 171.424 172.412 171.956 171.884 172.386C171.367 172.816 170.742 173.143 170.009 173.368C169.287 173.582 168.486 173.69 167.607 173.69C167.089 173.69 166.611 173.641 166.171 173.543C165.732 173.436 165.4 173.314 165.175 173.177C165.009 173.343 164.868 173.529 164.751 173.734C164.633 173.929 164.575 174.154 164.575 174.408C164.575 174.564 164.614 174.72 164.692 174.876C164.77 175.033 164.882 175.174 165.029 175.301C165.185 175.418 165.366 175.516 165.571 175.594C165.786 175.672 166.025 175.716 166.289 175.726L169.819 175.858C170.61 175.877 171.323 175.98 171.958 176.165C172.602 176.341 173.154 176.595 173.613 176.927C174.072 177.259 174.423 177.664 174.668 178.143C174.921 178.612 175.048 179.149 175.048 179.754C175.048 180.448 174.892 181.102 174.58 181.717C174.267 182.332 173.794 182.865 173.159 183.314C172.534 183.773 171.753 184.134 170.815 184.398C169.878 184.662 168.789 184.793 167.548 184.793C166.347 184.793 165.312 184.696 164.443 184.5C163.584 184.315 162.876 184.051 162.319 183.709C161.772 183.368 161.367 182.957 161.103 182.479C160.839 182.01 160.708 181.493 160.708 180.926C160.708 180.584 160.752 180.267 160.839 179.974C160.927 179.681 161.059 179.398 161.235 179.124C161.411 178.861 161.63 178.602 161.894 178.348C162.158 178.094 162.47 177.84 162.832 177.586C162.353 177.313 161.987 176.961 161.733 176.532C161.489 176.102 161.367 175.643 161.367 175.155C161.367 174.823 161.411 174.515 161.499 174.232C161.587 173.939 161.699 173.661 161.836 173.397C161.982 173.133 162.148 172.879 162.334 172.635C162.519 172.391 162.714 172.152 162.92 171.917C162.558 171.556 162.255 171.121 162.011 170.614C161.777 170.096 161.66 169.452 161.66 168.68C161.66 167.85 161.806 167.113 162.099 166.468C162.402 165.814 162.817 165.267 163.344 164.828C163.872 164.378 164.497 164.041 165.219 163.817C165.952 163.582 166.748 163.465 167.607 163.465C168.046 163.465 168.466 163.49 168.867 163.538C169.277 163.578 169.648 163.651 169.98 163.758H175.136V166.366H172.793ZM164.37 180.619C164.37 181.195 164.658 181.62 165.234 181.893C165.82 182.166 166.64 182.303 167.695 182.303C168.369 182.303 168.935 182.24 169.394 182.113C169.863 181.986 170.244 181.82 170.537 181.615C170.83 181.41 171.04 181.17 171.167 180.897C171.294 180.623 171.357 180.34 171.357 180.047C171.357 179.784 171.294 179.559 171.167 179.373C171.049 179.198 170.879 179.046 170.654 178.919C170.439 178.802 170.18 178.709 169.878 178.641C169.585 178.582 169.257 178.543 168.896 178.524L165.747 178.465C165.463 178.661 165.229 178.846 165.044 179.022C164.868 179.198 164.726 179.369 164.619 179.535C164.521 179.71 164.453 179.886 164.414 180.062C164.384 180.238 164.37 180.423 164.37 180.619ZM164.97 168.68C164.97 169.471 165.2 170.101 165.659 170.57C166.128 171.029 166.777 171.258 167.607 171.258C168.046 171.258 168.427 171.185 168.75 171.038C169.082 170.892 169.355 170.697 169.57 170.453C169.785 170.208 169.946 169.925 170.053 169.603C170.161 169.281 170.214 168.944 170.214 168.592C170.214 167.762 169.98 167.118 169.511 166.659C169.052 166.19 168.408 165.955 167.578 165.955C167.138 165.955 166.753 166.029 166.421 166.175C166.098 166.322 165.83 166.522 165.615 166.776C165.4 167.02 165.239 167.308 165.131 167.64C165.024 167.972 164.97 168.319 164.97 168.68Z" fill="#333333"/>
<path d="M198.23 46.5798C198.141 46.1331 198.166 45.819 198.299 45.7202C198.4 45.6254 198.665 45.5424 198.89 45.53C199.215 45.5375 199.361 45.6661 199.615 46.2555L199.953 46.9978L201.197 46.8387C203.365 46.5615 204.891 47.0864 206.095 48.5197C206.574 49.0967 206.773 49.513 206.911 50.2153C207.133 51.3161 206.937 52.0612 205.99 53.655C205.508 54.4529 205.165 54.8077 204.461 55.2578C202.599 56.4122 201.309 56.4626 198.721 55.4844C197.836 55.1557 196.978 54.9055 196.786 54.9299C196.595 54.9544 194.527 56.397 192.171 58.1219C187.404 61.6442 185.136 63.0469 184.368 62.9978C184.089 62.9681 182.763 62.6139 181.414 62.1974C178.678 61.3362 177.728 61.1304 176.915 61.2344C176.07 61.3424 157.425 70.5174 133.01 82.8519C121.334 88.7466 119.348 89.8187 118.507 90.7118C118.107 91.1392 117.336 91.8269 116.806 92.2384C116.011 92.8637 115.844 93.0813 115.862 93.4718C115.873 93.9393 115.858 93.9468 110.408 96.5864L110.211 96.6815C107.097 98.1762 104.327 99.5776 104.042 99.7613C102.139 101.101 101.377 103.375 102.064 105.709C102.365 106.668 102.507 106.896 103.16 107.434C103.76 107.946 104.187 108.121 105.403 108.375C106.802 108.67 107.109 108.664 110.107 108.411C111.869 108.251 113.56 108.166 113.859 108.226C114.753 108.374 115.683 109.056 116.363 110.066C117.141 111.21 117.268 111.947 116.866 113.111C116.105 115.27 113.449 117.311 109.493 118.815C107.991 119.367 107.754 119.414 101.978 120.12C95.2915 120.926 95.0724 120.986 92.307 122.551C89.6629 124.051 88.8483 124.777 85.218 128.955C80.881 133.945 77.2362 137.503 74.3788 139.489C72.7145 140.667 69.8452 142.179 68.0055 142.873C65.6401 143.764 62.1345 144.229 59.8004 143.971C56.397 143.588 53.2174 141.566 50.9134 139.609L49.4701 138.206L48.0956 136.075C45.9948 132.825 44.3538 128.862 43.2934 124.498C43.048 123.466 42.8839 123.323 42.617 123.897C42.364 124.453 41.9489 124.375 41.4916 123.714C40.7715 122.644 40.9052 122.169 41.9009 122.352C42.2183 122.426 42.5274 122.436 42.5531 122.383C42.5968 122.345 42.3303 121.021 41.985 119.462C41.2297 116.089 40.4572 110.428 40.4972 108.459C40.5473 105.049 41.1987 101.398 42.133 99.2008C44.0732 94.7309 47.9798 91.3187 53.68 89.1335C57.849 87.5204 61.0389 86.8671 70.3003 85.6665C78.9261 84.5636 78.7271 84.6545 89.1586 76.3825C96.8551 70.2929 99.5053 68.8413 104.113 68.2522C107.111 67.8689 108.977 68.3993 109.966 69.9256C110.233 70.366 110.536 70.7037 110.631 70.6914C110.743 70.6772 110.96 70.4695 111.138 70.2176C111.317 69.9657 111.517 69.76 111.565 69.7539C111.677 69.7396 112.294 71.657 112.227 71.7638C112.199 71.8001 111.918 71.7542 111.596 71.6481C111.277 71.558 110.966 71.5323 110.926 71.6028C110.885 71.6573 110.886 72.0498 110.942 72.4845C111.123 73.9013 110.68 74.367 106.885 76.7505C104.381 78.3307 103.455 79.2018 102.689 80.6906C102.106 81.8288 101.811 83.4538 101.97 84.6935C102.122 85.8849 102.345 86.2328 103.216 86.7105C103.704 86.9754 103.799 86.9632 104.462 86.6984C104.862 86.5327 105.398 86.2843 105.639 86.139C106.124 85.8805 108.188 84.913 109.462 84.3574C109.892 84.1715 110.441 83.9049 110.684 83.7756C110.941 83.6283 111.245 83.4748 111.371 83.4424C111.59 83.3817 112.802 82.8503 115.586 81.5615C116.259 81.2464 116.866 80.9234 116.951 80.8306C117.021 80.7399 117.236 80.647 117.427 80.6225C117.618 80.5981 118.357 80.2909 119.057 79.9395C120.275 79.3256 125.914 76.6574 128.957 75.2374C129.753 74.8738 130.625 74.4677 130.868 74.3385C131.339 74.0982 135.394 72.2216 138.519 70.8075C139.528 70.3349 141.182 69.5834 142.191 69.1107C143.2 68.6381 145.095 67.7412 146.394 67.1332C149.268 65.784 153.732 63.6913 156.941 62.1684C158.24 61.5604 160.655 60.4171 162.293 59.6677C168.013 57.0054 171.304 55.3736 171.286 55.2287C171.276 55.1482 171.459 55.0593 171.716 55.0428C172.503 54.9912 172.924 54.6101 173.401 53.5183C173.891 52.4084 174.58 51.7148 175.265 51.6271C175.584 51.5863 175.757 51.417 175.945 50.9839C176.243 50.2748 176.814 49.9237 177.747 49.8698C178.375 49.8386 178.495 49.8887 178.762 50.3292C179.067 50.8138 179.067 50.8138 180.099 50.6491L181.129 50.4683L181.067 49.8544C180.99 49.1278 181.165 48.8437 181.646 48.9295C181.893 48.9633 182.049 49.1724 182.171 49.6151C182.371 50.2931 182.437 50.3011 183.801 49.9466C184.411 49.7705 184.514 49.6918 184.475 49.3859C184.411 48.8868 184.87 48.4191 185.607 48.2266C186.344 48.0342 186.989 48.2627 187.358 48.87C187.581 49.2179 187.649 49.2419 188.711 49.057L189.837 48.864L189.744 48.1395C189.656 47.4471 189.667 47.4129 190.13 47.3538C190.576 47.2967 190.614 47.3409 190.77 47.9264L190.932 48.5603L191.736 48.5066C192.186 48.4818 192.838 48.3821 193.212 48.2687C193.838 48.0906 193.865 48.0543 193.802 47.5552C193.725 46.9595 194.011 46.5303 194.628 46.2877C195.106 46.0957 195.272 46.2545 195.523 47.0733L195.674 47.6267L197.03 47.4534L198.385 47.2801L198.23 46.5798Z" fill="#C6DFEC"/>
<path d="M198.23 43.708C198.141 43.2613 198.166 42.9472 198.299 42.8484C198.4 42.7536 198.665 42.6706 198.89 42.6582C199.215 42.6657 199.361 42.7943 199.615 43.3837L199.953 44.126L201.197 43.9669C203.365 43.6897 204.891 44.2146 206.095 45.6479C206.574 46.2249 206.773 46.6412 206.911 47.3435C207.133 48.4443 206.937 49.1894 205.99 50.7832C205.508 51.5811 205.165 51.9359 204.461 52.386C202.599 53.5404 201.309 53.5908 198.721 52.6126C197.836 52.2839 196.978 52.0337 196.786 52.0581C196.595 52.0826 194.527 53.5252 192.171 55.2501C187.404 58.7724 185.136 60.1751 184.368 60.126C184.089 60.0963 182.763 59.7421 181.414 59.3256C178.678 58.4644 177.728 58.2586 176.915 58.3626C176.07 58.4706 157.425 67.6456 133.01 79.9801C121.334 85.8748 119.348 86.9469 118.507 87.84C118.107 88.2674 117.336 88.9551 116.806 89.3666C116.011 89.9919 115.844 90.2095 115.862 90.6C115.873 91.0675 115.858 91.075 110.408 93.7146L110.211 93.8097C107.097 95.3044 104.327 96.7058 104.042 96.8895C102.139 98.2291 101.377 100.503 102.064 102.837C102.365 103.797 102.507 104.024 103.16 104.562C103.76 105.075 104.187 105.249 105.403 105.503C106.802 105.798 107.109 105.792 110.107 105.539C111.869 105.38 113.56 105.294 113.859 105.354C114.753 105.502 115.683 106.185 116.363 107.194C117.141 108.338 117.268 109.075 116.866 110.239C116.105 112.398 113.449 114.439 109.493 115.943C107.991 116.495 107.754 116.542 101.978 117.248C95.2915 118.054 95.0724 118.115 92.307 119.679C89.6629 121.179 88.8483 121.905 85.218 126.084C80.881 131.073 77.2362 134.632 74.3788 136.617C72.7145 137.795 69.8452 139.307 68.0055 140.001C65.6401 140.892 62.1345 141.357 59.8004 141.099C56.397 140.716 53.2174 138.695 50.9134 136.737L49.4701 135.335L48.0956 133.203C45.9948 129.953 44.3538 125.991 43.2934 121.626C43.048 120.594 42.8839 120.451 42.617 121.025C42.364 121.581 41.9489 121.503 41.4916 120.842C40.7715 119.772 40.9052 119.297 41.9009 119.481C42.2183 119.554 42.5274 119.564 42.5531 119.512C42.5968 119.473 42.3303 118.149 41.985 116.59C41.2297 113.217 40.4572 107.556 40.4972 105.587C40.5473 102.177 41.1987 98.5267 42.133 96.329C44.0732 91.8591 47.9798 88.4469 53.68 86.2617C57.849 84.6486 61.0389 83.9953 70.3003 82.7947C78.9261 81.6918 78.7271 81.7827 89.1586 73.5107C96.8551 67.4211 99.5053 65.9695 104.113 65.3804C107.111 64.9971 108.977 65.5275 109.966 67.0538C110.233 67.4942 110.536 67.8319 110.631 67.8196C110.743 67.8054 110.96 67.5977 111.138 67.3458C111.317 67.0939 111.517 66.8882 111.565 66.8821C111.677 66.8678 112.294 68.7852 112.227 68.892C112.199 68.9283 111.918 68.8824 111.596 68.7763C111.277 68.6862 110.966 68.6605 110.926 68.731C110.885 68.7855 110.886 69.178 110.942 69.6127C111.123 71.0295 110.68 71.4952 106.885 73.8787C104.381 75.4589 103.455 76.33 102.689 77.8188C102.106 78.957 101.811 80.582 101.97 81.8217C102.122 83.0131 102.345 83.361 103.216 83.8387C103.704 84.1036 103.799 84.0914 104.462 83.8266C104.862 83.6609 105.398 83.4125 105.639 83.2672C106.124 83.0087 108.188 82.0412 109.462 81.4856C109.892 81.2997 110.441 81.0331 110.684 80.9039C110.941 80.7565 111.245 80.603 111.371 80.5706C111.59 80.5099 112.802 79.9785 115.586 78.6897C116.259 78.3746 116.866 78.0516 116.951 77.9588C117.021 77.8681 117.236 77.7752 117.427 77.7507C117.618 77.7263 118.357 77.4191 119.057 77.0677C120.275 76.4538 125.914 73.7856 128.957 72.3656C129.753 72.002 130.625 71.5959 130.868 71.4667C131.339 71.2264 135.394 69.3499 138.519 67.9357C139.528 67.4631 141.182 66.7116 142.191 66.2389C143.2 65.7663 145.095 64.8694 146.394 64.2615C149.268 62.9122 153.732 60.8195 156.941 59.2966C158.24 58.6886 160.655 57.5453 162.293 56.7959C168.013 54.1336 171.304 52.5018 171.286 52.3569C171.276 52.2764 171.459 52.1875 171.716 52.171C172.503 52.1194 172.924 51.7383 173.401 50.6465C173.891 49.5366 174.58 48.843 175.265 48.7553C175.584 48.7145 175.757 48.5452 175.945 48.1121C176.243 47.403 176.814 47.0519 177.747 46.998C178.375 46.9668 178.495 47.017 178.762 47.4574C179.067 47.942 179.067 47.942 180.099 47.7773L181.129 47.5965L181.067 46.9826C180.99 46.2561 181.165 45.9719 181.646 46.0577C181.893 46.0915 182.049 46.3006 182.171 46.7433C182.371 47.4213 182.437 47.4293 183.801 47.0748C184.411 46.8987 184.514 46.82 184.475 46.5141C184.411 46.015 184.87 45.5473 185.607 45.3549C186.344 45.1624 186.989 45.3909 187.358 45.9982C187.581 46.3461 187.649 46.3701 188.711 46.1852L189.837 45.9922L189.744 45.2677C189.656 44.5753 189.667 44.5411 190.13 44.482C190.576 44.4249 190.614 44.4691 190.77 45.0547L190.932 45.6885L191.736 45.6348C192.186 45.61 192.838 45.5103 193.212 45.3969C193.838 45.2188 193.865 45.1825 193.802 44.6834C193.725 44.0877 194.011 43.6585 194.628 43.4159C195.106 43.2239 195.272 43.3827 195.523 44.2015L195.674 44.7549L197.03 44.5816L198.385 44.4083L198.23 43.708Z" fill="#98B8C8"/>
<path d="M198.32 41.5399C198.231 41.0972 198.256 40.7858 198.39 40.6877C198.491 40.5936 198.756 40.5111 198.981 40.4985C199.306 40.5056 199.452 40.6329 199.705 41.2169L200.042 41.9522L201.286 41.7932C203.454 41.5159 204.979 42.0345 206.181 43.4539C206.66 44.0252 206.858 44.4377 206.996 45.1337C207.216 46.2245 207.019 46.9633 206.071 48.5441C205.589 49.3356 205.245 49.6877 204.54 50.1346C202.677 51.2809 201.387 51.3323 198.801 50.3657C197.917 50.0408 197.059 49.7938 196.867 49.8182C196.676 49.8427 194.607 51.275 192.249 52.9873C187.478 56.4841 185.209 57.877 184.442 57.8292C184.162 57.8 182.837 57.4504 181.488 57.0391C178.755 56.1886 177.805 55.9856 176.992 56.0896C176.147 56.1977 157.494 65.313 133.068 77.5666C121.388 83.4226 119.401 84.4875 118.558 85.3737C118.159 85.7978 117.387 86.4803 116.856 86.8888C116.06 87.5095 115.894 87.7254 115.911 88.1124C115.922 88.5758 115.906 88.5832 110.454 91.2058L110.258 91.3003C107.142 92.7853 104.371 94.1776 104.086 94.3599C102.182 95.69 101.417 97.9447 102.101 100.257C102.401 101.208 102.543 101.433 103.195 101.966C103.795 102.474 104.222 102.646 105.437 102.896C106.835 103.188 107.142 103.181 110.14 102.927C111.902 102.767 113.593 102.68 113.892 102.739C114.785 102.885 115.714 103.56 116.393 104.56C117.17 105.693 117.296 106.423 116.892 107.578C116.129 109.719 113.471 111.745 109.514 113.24C108.012 113.789 107.775 113.836 101.999 114.542C95.3128 115.348 95.0936 115.409 92.3268 116.962C89.6815 118.452 88.8661 119.173 85.2316 123.319C80.8897 128.269 77.2415 131.801 74.3822 133.772C72.7168 134.941 69.8462 136.444 68.006 137.133C65.64 138.019 62.1343 138.484 59.8009 138.231C56.3984 137.855 53.2215 135.855 50.9201 133.917L49.4785 132.529L48.1066 130.417C46.0098 127.199 44.3734 123.272 43.3181 118.947C43.0739 117.925 42.91 117.783 42.6425 118.353C42.3889 118.904 41.9739 118.827 41.5175 118.172C40.7986 117.113 40.9328 116.641 41.9282 116.822C42.2454 116.895 42.5545 116.904 42.5803 116.852C42.624 116.814 42.359 115.502 42.0156 113.957C41.2642 110.615 40.4981 105.004 40.5403 103.053C40.5943 99.6725 41.2496 96.0533 42.1863 93.8739C44.1313 89.4411 48.0411 86.0544 53.7429 83.882C57.9132 82.2785 61.1033 81.6273 70.3648 80.4269C78.9905 79.324 78.7914 79.4143 89.2307 71.2032C96.9329 65.1585 99.5844 63.7167 104.192 63.1275C107.19 62.7443 109.055 63.2679 110.043 64.7797C110.309 65.2159 110.611 65.5503 110.707 65.5381C110.819 65.5238 111.035 65.3177 111.214 65.0678C111.393 64.8179 111.593 64.6138 111.641 64.6077C111.753 64.5934 112.369 66.4933 112.301 66.5992C112.273 66.6352 111.992 66.5901 111.671 66.4852C111.351 66.3963 111.04 66.3712 111.001 66.4411C110.959 66.4951 110.96 66.8842 111.015 67.315C111.195 68.7192 110.751 69.1813 106.954 71.5481C104.449 73.1172 103.522 73.9817 102.755 75.4583C102.17 76.5872 101.874 78.1982 102.031 79.4269C102.182 80.6077 102.404 80.9522 103.275 81.4247C103.762 81.6868 103.858 81.6746 104.521 81.4114C104.921 81.2467 105.457 80.9998 105.697 80.8555C106.183 80.5988 108.248 79.6374 109.522 79.0852C109.952 78.9005 110.502 78.6356 110.745 78.5073C111.002 78.3609 111.306 78.2084 111.432 78.1762C111.651 78.1157 112.863 77.5877 115.649 76.3071C116.322 75.994 116.929 75.6731 117.015 75.5811C117.084 75.4911 117.299 75.3987 117.49 75.3743C117.682 75.3498 118.421 75.0445 119.121 74.6954C120.34 74.0856 125.98 71.4344 129.025 70.0235C129.821 69.6622 130.693 69.2587 130.936 69.1304C131.408 68.8917 135.464 67.027 138.59 65.6218C139.599 65.1522 141.254 64.4054 142.263 63.9358C143.273 63.4661 145.168 62.5751 146.469 61.971C149.344 60.6303 153.81 58.551 157.019 57.0378C158.319 56.4337 160.734 55.2978 162.373 54.5531C168.095 51.9078 171.388 50.2866 171.37 50.143C171.36 50.0632 171.543 49.9749 171.8 49.9583C172.587 49.9063 173.009 49.528 173.486 48.4453C173.978 47.3445 174.667 46.6563 175.353 46.5686C175.672 46.5278 175.845 46.3598 176.033 45.9303C176.332 45.2271 176.903 44.8784 177.836 44.824C178.464 44.7923 178.584 44.8419 178.85 45.2781C179.155 45.7582 179.155 45.7582 180.187 45.5937L181.217 45.4134L181.156 44.805C181.08 44.0849 181.255 43.8031 181.735 43.8875C181.983 43.9208 182.139 44.1279 182.26 44.5665C182.459 45.2384 182.525 45.2462 183.889 44.8933C184.499 44.718 184.602 44.6399 184.564 44.3368C184.5 43.8421 184.96 43.378 185.697 43.1864C186.434 42.9948 187.079 43.2206 187.447 43.8221C187.669 44.1667 187.737 44.1905 188.799 44.006L189.925 43.8134L189.834 43.0953C189.746 42.4092 189.758 42.3752 190.22 42.3161C190.667 42.259 190.705 42.3028 190.86 42.883L191.021 43.5111L191.824 43.4571C192.275 43.4319 192.927 43.3323 193.301 43.2196C193.927 43.0423 193.954 43.0063 193.891 42.5116C193.816 41.9213 194.102 41.4955 194.719 41.2544C195.197 41.0635 195.363 41.2207 195.612 42.0321L195.764 42.5804L197.119 42.4071L198.474 42.2338L198.32 41.5399Z" fill="#333333"/>
<defs>
<filter id="filter0_d_17_60" x="0" y="0" width="230" height="230" filterUnits="userSpaceOnUse" color-interpolation-filters="sRGB">
<feFlood flood-opacity="0" result="BackgroundImageFix"/>
<feColorMatrix in="SourceAlpha" type="matrix" values="0 0 0 0 0 0 0 0 0 0 0 0 0 0 0 0 0 0 127 0" result="hardAlpha"/>
<feOffset dx="-6" dy="6"/>
<feComposite in2="hardAlpha" operator="out"/>
<feColorMatrix type="matrix" values="0 0 0 0 0 0 0 0 0 0 0 0 0 0 0 0 0 0 0.25 0"/>
<feBlend mode="normal" in2="BackgroundImageFix" result="effect1_dropShadow_17_60"/>
<feBlend mode="normal" in="SourceGraphic" in2="effect1_dropShadow_17_60" result="shape"/>
</filter>
</defs>
</svg>
