<svg width="230" height="230" viewBox="0 0 230 230" fill="none" xmlns="http://www.w3.org/2000/svg">
<g filter="url(#filter0_d_17_60)">
<rect x="6" width="224" height="224" fill="#F7FBFD"/>
<rect x="8.5" y="2.5" width="219" height="219" stroke="#333333" stroke-width="5"/>
</g>
<path d="M82.3291 174.62C82.3291 175.47 82.1387 176.197 81.7578 176.803C81.3867 177.398 80.8887 177.887 80.2637 178.268C79.6484 178.639 78.9453 178.907 78.1543 179.073C77.373 179.249 76.5723 179.337 75.752 179.337C74.6582 179.337 73.6719 179.283 72.793 179.176C71.9141 179.078 71.084 178.932 70.3027 178.736V175.514C71.2207 175.895 72.1338 176.173 73.042 176.349C73.96 176.515 74.8242 176.598 75.6348 176.598C76.5723 176.598 77.2705 176.451 77.7295 176.158C78.1982 175.855 78.4326 175.465 78.4326 174.986C78.4326 174.762 78.3838 174.557 78.2861 174.371C78.1885 174.186 78.0029 174.01 77.7295 173.844C77.4658 173.668 77.0898 173.492 76.6016 173.316C76.1133 173.131 75.4736 172.926 74.6826 172.701C73.9502 172.496 73.3057 172.267 72.749 172.013C72.2021 171.749 71.748 171.441 71.3867 171.09C71.0254 170.738 70.752 170.333 70.5664 169.874C70.3906 169.405 70.3027 168.858 70.3027 168.233C70.3027 167.628 70.4395 167.057 70.7129 166.52C70.9863 165.982 71.3916 165.514 71.9287 165.113C72.4756 164.703 73.1543 164.381 73.9648 164.146C74.7754 163.912 75.7227 163.795 76.8066 163.795C77.7441 163.795 78.5742 163.844 79.2969 163.941C80.0195 164.039 80.6592 164.146 81.2158 164.264V167.179C80.3662 166.905 79.5654 166.715 78.8135 166.607C78.0713 166.49 77.334 166.432 76.6016 166.432C75.8691 166.432 75.2783 166.563 74.8291 166.827C74.3896 167.091 74.1699 167.457 74.1699 167.926C74.1699 168.15 74.2139 168.351 74.3018 168.526C74.3896 168.702 74.5605 168.873 74.8145 169.039C75.0781 169.205 75.4395 169.381 75.8984 169.566C76.3672 169.742 76.9824 169.938 77.7441 170.152C78.6035 170.396 79.3262 170.66 79.9121 170.943C80.498 171.217 80.9668 171.529 81.3184 171.881C81.6797 172.232 81.9385 172.633 82.0947 173.082C82.251 173.531 82.3291 174.044 82.3291 174.62ZM98.5889 178.429C97.8857 178.712 97.1582 178.922 96.4062 179.059C95.6543 179.195 94.8682 179.264 94.0479 179.264C92.8662 179.264 91.8066 179.103 90.8691 178.78C89.9316 178.458 89.1357 177.979 88.4814 177.345C87.8271 176.71 87.3242 175.924 86.9727 174.986C86.6309 174.049 86.46 172.965 86.46 171.734C86.46 170.543 86.6455 169.464 87.0166 168.497C87.3975 167.53 87.9297 166.705 88.6133 166.021C89.2969 165.338 90.1172 164.811 91.0742 164.439C92.041 164.068 93.1152 163.883 94.2969 163.883C95.2637 163.883 96.0742 163.937 96.7285 164.044C97.3926 164.142 97.9883 164.269 98.5156 164.425V167.896C97.9102 167.594 97.251 167.359 96.5381 167.193C95.835 167.027 95.166 166.944 94.5312 166.944C93.8672 166.944 93.2715 167.057 92.7441 167.281C92.2168 167.506 91.7725 167.818 91.4111 168.219C91.0498 168.619 90.7715 169.107 90.5762 169.684C90.3906 170.25 90.2979 170.875 90.2979 171.559C90.2979 172.271 90.4004 172.911 90.6055 173.478C90.8105 174.044 91.0986 174.527 91.4697 174.928C91.8506 175.318 92.3047 175.621 92.832 175.836C93.3594 176.041 93.9453 176.144 94.5898 176.144C94.9023 176.144 95.2295 176.124 95.5713 176.085C95.9229 176.036 96.2695 175.973 96.6113 175.895C96.9629 175.807 97.3047 175.709 97.6367 175.602C97.9785 175.494 98.2959 175.377 98.5889 175.25V178.429ZM112.373 179L112.285 177.052C111.973 177.384 111.646 177.691 111.304 177.975C110.962 178.248 110.586 178.487 110.176 178.692C109.766 178.897 109.316 179.054 108.828 179.161C108.35 179.278 107.822 179.337 107.246 179.337C106.484 179.337 105.815 179.225 105.239 179C104.663 178.775 104.18 178.463 103.789 178.062C103.398 177.662 103.101 177.179 102.896 176.612C102.7 176.046 102.603 175.421 102.603 174.737C102.603 174.034 102.749 173.385 103.042 172.789C103.345 172.193 103.799 171.681 104.404 171.251C105.02 170.821 105.781 170.484 106.689 170.24C107.607 169.996 108.682 169.874 109.912 169.874H111.86V168.98C111.86 168.6 111.807 168.258 111.699 167.955C111.592 167.643 111.416 167.379 111.172 167.164C110.938 166.949 110.63 166.783 110.249 166.666C109.868 166.549 109.399 166.49 108.843 166.49C107.964 166.49 107.095 166.593 106.235 166.798C105.386 166.993 104.561 167.271 103.76 167.633V164.776C104.473 164.493 105.293 164.259 106.221 164.073C107.158 163.888 108.13 163.795 109.136 163.795C110.239 163.795 111.187 163.902 111.978 164.117C112.769 164.322 113.418 164.635 113.926 165.055C114.443 165.475 114.824 166.002 115.068 166.637C115.312 167.262 115.435 167.994 115.435 168.834V179H112.373ZM111.86 172.423H109.678C109.072 172.423 108.56 172.481 108.14 172.599C107.72 172.716 107.378 172.877 107.114 173.082C106.851 173.287 106.655 173.526 106.528 173.8C106.411 174.063 106.353 174.347 106.353 174.649C106.353 175.255 106.548 175.719 106.938 176.041C107.329 176.354 107.861 176.51 108.535 176.51C109.033 176.51 109.551 176.329 110.088 175.968C110.625 175.606 111.216 175.089 111.86 174.415V172.423ZM124.341 161.085H120.137V158.302H128.003V176.217H132.295V179H119.624V176.217H124.341V161.085ZM148.994 170.416C148.994 170.66 148.984 170.978 148.965 171.368C148.955 171.759 148.936 172.125 148.906 172.467H139.121C139.121 173.121 139.219 173.697 139.414 174.195C139.619 174.693 139.902 175.113 140.264 175.455C140.635 175.787 141.074 176.041 141.582 176.217C142.1 176.393 142.671 176.48 143.296 176.48C144.019 176.48 144.79 176.427 145.61 176.319C146.44 176.202 147.3 176.017 148.188 175.763V178.604C147.808 178.712 147.393 178.81 146.943 178.897C146.494 178.985 146.035 179.063 145.566 179.132C145.098 179.2 144.624 179.249 144.146 179.278C143.667 179.317 143.203 179.337 142.754 179.337C141.621 179.337 140.605 179.176 139.707 178.854C138.809 178.531 138.047 178.058 137.422 177.433C136.797 176.798 136.318 176.017 135.986 175.089C135.654 174.161 135.488 173.087 135.488 171.866C135.488 170.655 135.654 169.557 135.986 168.57C136.318 167.574 136.787 166.725 137.393 166.021C137.998 165.309 138.73 164.762 139.59 164.381C140.459 163.99 141.426 163.795 142.49 163.795C143.545 163.795 144.478 163.961 145.288 164.293C146.099 164.615 146.777 165.069 147.324 165.655C147.871 166.241 148.286 166.939 148.569 167.75C148.853 168.561 148.994 169.449 148.994 170.416ZM145.361 169.903C145.371 169.317 145.298 168.81 145.142 168.38C144.985 167.94 144.771 167.579 144.497 167.296C144.233 167.013 143.921 166.803 143.56 166.666C143.208 166.529 142.827 166.461 142.417 166.461C141.519 166.461 140.781 166.764 140.205 167.369C139.629 167.965 139.287 168.81 139.18 169.903H145.361ZM164.8 174.62C164.8 175.47 164.609 176.197 164.229 176.803C163.857 177.398 163.359 177.887 162.734 178.268C162.119 178.639 161.416 178.907 160.625 179.073C159.844 179.249 159.043 179.337 158.223 179.337C157.129 179.337 156.143 179.283 155.264 179.176C154.385 179.078 153.555 178.932 152.773 178.736V175.514C153.691 175.895 154.604 176.173 155.513 176.349C156.431 176.515 157.295 176.598 158.105 176.598C159.043 176.598 159.741 176.451 160.2 176.158C160.669 175.855 160.903 175.465 160.903 174.986C160.903 174.762 160.854 174.557 160.757 174.371C160.659 174.186 160.474 174.01 160.2 173.844C159.937 173.668 159.561 173.492 159.072 173.316C158.584 173.131 157.944 172.926 157.153 172.701C156.421 172.496 155.776 172.267 155.22 172.013C154.673 171.749 154.219 171.441 153.857 171.09C153.496 170.738 153.223 170.333 153.037 169.874C152.861 169.405 152.773 168.858 152.773 168.233C152.773 167.628 152.91 167.057 153.184 166.52C153.457 165.982 153.862 165.514 154.399 165.113C154.946 164.703 155.625 164.381 156.436 164.146C157.246 163.912 158.193 163.795 159.277 163.795C160.215 163.795 161.045 163.844 161.768 163.941C162.49 164.039 163.13 164.146 163.687 164.264V167.179C162.837 166.905 162.036 166.715 161.284 166.607C160.542 166.49 159.805 166.432 159.072 166.432C158.34 166.432 157.749 166.563 157.3 166.827C156.86 167.091 156.641 167.457 156.641 167.926C156.641 168.15 156.685 168.351 156.772 168.526C156.86 168.702 157.031 168.873 157.285 169.039C157.549 169.205 157.91 169.381 158.369 169.566C158.838 169.742 159.453 169.938 160.215 170.152C161.074 170.396 161.797 170.66 162.383 170.943C162.969 171.217 163.438 171.529 163.789 171.881C164.15 172.232 164.409 172.633 164.565 173.082C164.722 173.531 164.8 174.044 164.8 174.62Z" fill="#333333"/>
<path d="M198.23 46.5798C198.141 46.1331 198.166 45.819 198.299 45.7202C198.4 45.6254 198.665 45.5424 198.89 45.53C199.215 45.5375 199.361 45.6661 199.615 46.2555L199.953 46.9978L201.197 46.8387C203.365 46.5615 204.891 47.0864 206.095 48.5197C206.574 49.0967 206.773 49.513 206.911 50.2153C207.133 51.3161 206.937 52.0612 205.99 53.655C205.508 54.4529 205.165 54.8077 204.461 55.2578C202.599 56.4122 201.309 56.4626 198.721 55.4844C197.836 55.1557 196.978 54.9055 196.786 54.9299C196.595 54.9544 194.527 56.397 192.171 58.1219C187.404 61.6442 185.136 63.0469 184.368 62.9978C184.089 62.9681 182.763 62.6139 181.414 62.1974C178.678 61.3362 177.728 61.1304 176.915 61.2344C176.07 61.3424 157.425 70.5174 133.01 82.8519C121.334 88.7466 119.348 89.8187 118.507 90.7118C118.107 91.1392 117.336 91.8269 116.806 92.2384C116.011 92.8637 115.844 93.0813 115.862 93.4718C115.873 93.9393 115.858 93.9468 110.408 96.5864L110.211 96.6815C107.097 98.1762 104.327 99.5776 104.042 99.7613C102.139 101.101 101.377 103.375 102.064 105.709C102.365 106.668 102.507 106.896 103.16 107.434C103.76 107.946 104.187 108.121 105.403 108.375C106.802 108.67 107.109 108.664 110.107 108.411C111.869 108.251 113.56 108.166 113.859 108.226C114.753 108.374 115.683 109.056 116.363 110.066C117.141 111.21 117.268 111.947 116.866 113.111C116.105 115.27 113.449 117.311 109.493 118.815C107.991 119.367 107.754 119.414 101.978 120.12C95.2915 120.926 95.0724 120.986 92.307 122.551C89.6629 124.051 88.8483 124.777 85.218 128.955C80.881 133.945 77.2362 137.503 74.3788 139.489C72.7145 140.667 69.8452 142.179 68.0055 142.873C65.6401 143.764 62.1345 144.229 59.8004 143.971C56.397 143.588 53.2174 141.566 50.9134 139.609L49.4701 138.206L48.0956 136.075C45.9948 132.825 44.3538 128.862 43.2934 124.498C43.048 123.466 42.8839 123.323 42.617 123.897C42.364 124.453 41.9489 124.375 41.4916 123.714C40.7715 122.644 40.9052 122.169 41.9009 122.352C42.2183 122.426 42.5274 122.436 42.5531 122.383C42.5968 122.345 42.3303 121.021 41.985 119.462C41.2297 116.089 40.4572 110.428 40.4972 108.459C40.5473 105.049 41.1987 101.398 42.133 99.2008C44.0732 94.7309 47.9798 91.3187 53.68 89.1335C57.849 87.5204 61.0389 86.8671 70.3003 85.6665C78.9261 84.5636 78.7271 84.6545 89.1586 76.3825C96.8551 70.2929 99.5053 68.8413 104.113 68.2522C107.111 67.8689 108.977 68.3993 109.966 69.9256C110.233 70.366 110.536 70.7037 110.631 70.6914C110.743 70.6772 110.96 70.4695 111.138 70.2176C111.317 69.9657 111.517 69.76 111.565 69.7539C111.677 69.7396 112.294 71.657 112.227 71.7638C112.199 71.8001 111.918 71.7542 111.596 71.6481C111.277 71.558 110.966 71.5323 110.926 71.6028C110.885 71.6573 110.886 72.0498 110.942 72.4845C111.123 73.9013 110.68 74.367 106.885 76.7505C104.381 78.3307 103.455 79.2018 102.689 80.6906C102.106 81.8288 101.811 83.4538 101.97 84.6935C102.122 85.8849 102.345 86.2328 103.216 86.7105C103.704 86.9754 103.799 86.9632 104.462 86.6984C104.862 86.5327 105.398 86.2843 105.639 86.139C106.124 85.8805 108.188 84.913 109.462 84.3574C109.892 84.1715 110.441 83.9049 110.684 83.7756C110.941 83.6283 111.245 83.4748 111.371 83.4424C111.59 83.3817 112.802 82.8503 115.586 81.5615C116.259 81.2464 116.866 80.9234 116.951 80.8306C117.021 80.7399 117.236 80.647 117.427 80.6225C117.618 80.5981 118.357 80.2909 119.057 79.9395C120.275 79.3256 125.914 76.6574 128.957 75.2374C129.753 74.8738 130.625 74.4677 130.868 74.3385C131.339 74.0982 135.394 72.2216 138.519 70.8075C139.528 70.3349 141.182 69.5834 142.191 69.1107C143.2 68.6381 145.095 67.7412 146.394 67.1332C149.268 65.784 153.732 63.6913 156.941 62.1684C158.24 61.5604 160.655 60.4171 162.293 59.6677C168.013 57.0054 171.304 55.3736 171.286 55.2287C171.276 55.1482 171.459 55.0593 171.716 55.0428C172.503 54.9912 172.924 54.6101 173.401 53.5183C173.891 52.4084 174.58 51.7148 175.265 51.6271C175.584 51.5863 175.757 51.417 175.945 50.9839C176.243 50.2748 176.814 49.9237 177.747 49.8698C178.375 49.8386 178.495 49.8887 178.762 50.3292C179.067 50.8138 179.067 50.8138 180.099 50.6491L181.129 50.4683L181.067 49.8544C180.99 49.1278 181.165 48.8437 181.646 48.9295C181.893 48.9633 182.049 49.1724 182.171 49.6151C182.371 50.2931 182.437 50.3011 183.801 49.9466C184.411 49.7705 184.514 49.6918 184.475 49.3859C184.411 48.8868 184.87 48.4191 185.607 48.2266C186.344 48.0342 186.989 48.2627 187.358 48.87C187.581 49.2179 187.649 49.2419 188.711 49.057L189.837 48.864L189.744 48.1395C189.656 47.4471 189.667 47.4129 190.13 47.3538C190.576 47.2967 190.614 47.3409 190.77 47.9264L190.932 48.5603L191.736 48.5066C192.186 48.4818 192.838 48.3821 193.212 48.2687C193.838 48.0906 193.865 48.0543 193.802 47.5552C193.725 46.9595 194.011 46.5303 194.628 46.2877C195.106 46.0957 195.272 46.2545 195.523 47.0733L195.674 47.6267L197.03 47.4534L198.385 47.2801L198.23 46.5798Z" fill="#C6DFEC"/>
<path d="M198.23 43.708C198.141 43.2613 198.166 42.9472 198.299 42.8484C198.4 42.7536 198.665 42.6706 198.89 42.6582C199.215 42.6657 199.361 42.7943 199.615 43.3837L199.953 44.126L201.197 43.9669C203.365 43.6897 204.891 44.2146 206.095 45.6479C206.574 46.2249 206.773 46.6412 206.911 47.3435C207.133 48.4443 206.937 49.1894 205.99 50.7832C205.508 51.5811 205.165 51.9359 204.461 52.386C202.599 53.5404 201.309 53.5908 198.721 52.6126C197.836 52.2839 196.978 52.0337 196.786 52.0581C196.595 52.0826 194.527 53.5252 192.171 55.2501C187.404 58.7724 185.136 60.1751 184.368 60.126C184.089 60.0963 182.763 59.7421 181.414 59.3256C178.678 58.4644 177.728 58.2586 176.915 58.3626C176.07 58.4706 157.425 67.6456 133.01 79.9801C121.334 85.8748 119.348 86.9469 118.507 87.84C118.107 88.2674 117.336 88.9551 116.806 89.3666C116.011 89.9919 115.844 90.2095 115.862 90.6C115.873 91.0675 115.858 91.075 110.408 93.7146L110.211 93.8097C107.097 95.3044 104.327 96.7058 104.042 96.8895C102.139 98.2291 101.377 100.503 102.064 102.837C102.365 103.797 102.507 104.024 103.16 104.562C103.76 105.075 104.187 105.249 105.403 105.503C106.802 105.798 107.109 105.792 110.107 105.539C111.869 105.38 113.56 105.294 113.859 105.354C114.753 105.502 115.683 106.185 116.363 107.194C117.141 108.338 117.268 109.075 116.866 110.239C116.105 112.398 113.449 114.439 109.493 115.943C107.991 116.495 107.754 116.542 101.978 117.248C95.2915 118.054 95.0724 118.115 92.307 119.679C89.6629 121.179 88.8483 121.905 85.218 126.084C80.881 131.073 77.2362 134.632 74.3788 136.617C72.7145 137.795 69.8452 139.307 68.0055 140.001C65.6401 140.892 62.1345 141.357 59.8004 141.099C56.397 140.716 53.2174 138.695 50.9134 136.737L49.4701 135.335L48.0956 133.203C45.9948 129.953 44.3538 125.991 43.2934 121.626C43.048 120.594 42.8839 120.451 42.617 121.025C42.364 121.581 41.9489 121.503 41.4916 120.842C40.7715 119.772 40.9052 119.297 41.9009 119.481C42.2183 119.554 42.5274 119.564 42.5531 119.512C42.5968 119.473 42.3303 118.149 41.985 116.59C41.2297 113.217 40.4572 107.556 40.4972 105.587C40.5473 102.177 41.1987 98.5267 42.133 96.329C44.0732 91.8591 47.9798 88.4469 53.68 86.2617C57.849 84.6486 61.0389 83.9953 70.3003 82.7947C78.9261 81.6918 78.7271 81.7827 89.1586 73.5107C96.8551 67.4211 99.5053 65.9695 104.113 65.3804C107.111 64.9971 108.977 65.5275 109.966 67.0538C110.233 67.4942 110.536 67.8319 110.631 67.8196C110.743 67.8054 110.96 67.5977 111.138 67.3458C111.317 67.0939 111.517 66.8882 111.565 66.8821C111.677 66.8678 112.294 68.7852 112.227 68.892C112.199 68.9283 111.918 68.8824 111.596 68.7763C111.277 68.6862 110.966 68.6605 110.926 68.731C110.885 68.7855 110.886 69.178 110.942 69.6127C111.123 71.0295 110.68 71.4952 106.885 73.8787C104.381 75.4589 103.455 76.33 102.689 77.8188C102.106 78.957 101.811 80.582 101.97 81.8217C102.122 83.0131 102.345 83.361 103.216 83.8387C103.704 84.1036 103.799 84.0914 104.462 83.8266C104.862 83.6609 105.398 83.4125 105.639 83.2672C106.124 83.0087 108.188 82.0412 109.462 81.4856C109.892 81.2997 110.441 81.0331 110.684 80.9039C110.941 80.7565 111.245 80.603 111.371 80.5706C111.59 80.5099 112.802 79.9785 115.586 78.6897C116.259 78.3746 116.866 78.0516 116.951 77.9588C117.021 77.8681 117.236 77.7752 117.427 77.7507C117.618 77.7263 118.357 77.4191 119.057 77.0677C120.275 76.4538 125.914 73.7856 128.957 72.3656C129.753 72.002 130.625 71.5959 130.868 71.4667C131.339 71.2264 135.394 69.3499 138.519 67.9357C139.528 67.4631 141.182 66.7116 142.191 66.2389C143.2 65.7663 145.095 64.8694 146.394 64.2615C149.268 62.9122 153.732 60.8195 156.941 59.2966C158.24 58.6886 160.655 57.5453 162.293 56.7959C168.013 54.1336 171.304 52.5018 171.286 52.3569C171.276 52.2764 171.459 52.1875 171.716 52.171C172.503 52.1194 172.924 51.7383 173.401 50.6465C173.891 49.5366 174.58 48.843 175.265 48.7553C175.584 48.7145 175.757 48.5452 175.945 48.1121C176.243 47.403 176.814 47.0519 177.747 46.998C178.375 46.9668 178.495 47.017 178.762 47.4574C179.067 47.942 179.067 47.942 180.099 47.7773L181.129 47.5965L181.067 46.9826C180.99 46.2561 181.165 45.9719 181.646 46.0577C181.893 46.0915 182.049 46.3006 182.171 46.7433C182.371 47.4213 182.437 47.4293 183.801 47.0748C184.411 46.8987 184.514 46.82 184.475 46.5141C184.411 46.015 184.87 45.5473 185.607 45.3549C186.344 45.1624 186.989 45.3909 187.358 45.9982C187.581 46.3461 187.649 46.3701 188.711 46.1852L189.837 45.9922L189.744 45.2677C189.656 44.5753 189.667 44.5411 190.13 44.482C190.576 44.4249 190.614 44.4691 190.77 45.0547L190.932 45.6885L191.736 45.6348C192.186 45.61 192.838 45.5103 193.212 45.3969C193.838 45.2188 193.865 45.1825 193.802 44.6834C193.725 44.0877 194.011 43.6585 194.628 43.4159C195.106 43.2239 195.272 43.3827 195.523 44.2015L195.674 44.7549L197.03 44.5816L198.385 44.4083L198.23 43.708Z" fill="#98B8C8"/>
<path d="M198.32 41.5399C198.231 41.0972 198.256 40.7858 198.39 40.6877C198.491 40.5936 198.756 40.5111 198.981 40.4985C199.306 40.5056 199.452 40.6329 199.705 41.2169L200.042 41.9522L201.286 41.7932C203.454 41.5159 204.979 42.0345 206.181 43.4539C206.66 44.0252 206.858 44.4377 206.996 45.1337C207.216 46.2245 207.019 46.9633 206.071 48.5441C205.589 49.3356 205.245 49.6877 204.54 50.1346C202.677 51.2809 201.387 51.3323 198.801 50.3657C197.917 50.0408 197.059 49.7938 196.867 49.8182C196.676 49.8427 194.607 51.275 192.249 52.9873C187.478 56.4841 185.209 57.877 184.442 57.8292C184.162 57.8 182.837 57.4504 181.488 57.0391C178.755 56.1886 177.805 55.9856 176.992 56.0896C176.147 56.1977 157.494 65.313 133.068 77.5666C121.388 83.4226 119.401 84.4875 118.558 85.3737C118.159 85.7978 117.387 86.4803 116.856 86.8888C116.06 87.5095 115.894 87.7254 115.911 88.1124C115.922 88.5758 115.906 88.5832 110.454 91.2058L110.258 91.3003C107.142 92.7853 104.371 94.1776 104.086 94.3599C102.182 95.69 101.417 97.9447 102.101 100.257C102.401 101.208 102.543 101.433 103.195 101.966C103.795 102.474 104.222 102.646 105.437 102.896C106.835 103.188 107.142 103.181 110.14 102.927C111.902 102.767 113.593 102.68 113.892 102.739C114.785 102.885 115.714 103.56 116.393 104.56C117.17 105.693 117.296 106.423 116.892 107.578C116.129 109.719 113.471 111.745 109.514 113.24C108.012 113.789 107.775 113.836 101.999 114.542C95.3128 115.348 95.0936 115.409 92.3268 116.962C89.6815 118.452 88.8661 119.173 85.2316 123.319C80.8897 128.269 77.2415 131.801 74.3822 133.772C72.7168 134.941 69.8462 136.444 68.006 137.133C65.64 138.019 62.1343 138.484 59.8009 138.231C56.3984 137.855 53.2215 135.855 50.9201 133.917L49.4785 132.529L48.1066 130.417C46.0098 127.199 44.3734 123.272 43.3181 118.947C43.0739 117.925 42.91 117.783 42.6425 118.353C42.3889 118.904 41.9739 118.827 41.5175 118.172C40.7986 117.113 40.9328 116.641 41.9282 116.822C42.2454 116.895 42.5545 116.904 42.5803 116.852C42.624 116.814 42.359 115.502 42.0156 113.957C41.2642 110.615 40.4981 105.004 40.5403 103.053C40.5943 99.6725 41.2496 96.0533 42.1863 93.8739C44.1313 89.4411 48.0411 86.0544 53.7429 83.882C57.9132 82.2785 61.1033 81.6273 70.3648 80.4269C78.9905 79.324 78.7914 79.4143 89.2307 71.2032C96.9329 65.1585 99.5844 63.7167 104.192 63.1275C107.19 62.7443 109.055 63.2679 110.043 64.7797C110.309 65.2159 110.611 65.5503 110.707 65.5381C110.819 65.5238 111.035 65.3177 111.214 65.0678C111.393 64.8179 111.593 64.6138 111.641 64.6077C111.753 64.5934 112.369 66.4933 112.301 66.5992C112.273 66.6352 111.992 66.5901 111.671 66.4852C111.351 66.3963 111.04 66.3712 111.001 66.4411C110.959 66.4951 110.96 66.8842 111.015 67.315C111.195 68.7192 110.751 69.1813 106.954 71.5481C104.449 73.1172 103.522 73.9817 102.755 75.4583C102.17 76.5872 101.874 78.1982 102.031 79.4269C102.182 80.6077 102.404 80.9522 103.275 81.4247C103.762 81.6868 103.858 81.6746 104.521 81.4114C104.921 81.2467 105.457 80.9998 105.697 80.8555C106.183 80.5988 108.248 79.6374 109.522 79.0852C109.952 78.9005 110.502 78.6356 110.745 78.5073C111.002 78.3609 111.306 78.2084 111.432 78.1762C111.651 78.1157 112.863 77.5877 115.649 76.3071C116.322 75.994 116.929 75.6731 117.015 75.5811C117.084 75.4911 117.299 75.3987 117.49 75.3743C117.682 75.3498 118.421 75.0445 119.121 74.6954C120.34 74.0856 125.98 71.4344 129.025 70.0235C129.821 69.6622 130.693 69.2587 130.936 69.1304C131.408 68.8917 135.464 67.027 138.59 65.6218C139.599 65.1522 141.254 64.4054 142.263 63.9358C143.273 63.4661 145.168 62.5751 146.469 61.971C149.344 60.6303 153.81 58.551 157.019 57.0378C158.319 56.4337 160.734 55.2978 162.373 54.5531C168.095 51.9078 171.388 50.2866 171.37 50.143C171.36 50.0632 171.543 49.9749 171.8 49.9583C172.587 49.9063 173.009 49.528 173.486 48.4453C173.978 47.3445 174.667 46.6563 175.353 46.5686C175.672 46.5278 175.845 46.3598 176.033 45.9303C176.332 45.2271 176.903 44.8784 177.836 44.824C178.464 44.7923 178.584 44.8419 178.85 45.2781C179.155 45.7582 179.155 45.7582 180.187 45.5937L181.217 45.4134L181.156 44.805C181.08 44.0849 181.255 43.8031 181.735 43.8875C181.983 43.9208 182.139 44.1279 182.26 44.5665C182.459 45.2384 182.525 45.2462 183.889 44.8933C184.499 44.718 184.602 44.6399 184.564 44.3368C184.5 43.8421 184.96 43.378 185.697 43.1864C186.434 42.9948 187.079 43.2206 187.447 43.8221C187.669 44.1667 187.737 44.1905 188.799 44.006L189.925 43.8134L189.834 43.0953C189.746 42.4092 189.758 42.3752 190.22 42.3161C190.667 42.259 190.705 42.3028 190.86 42.883L191.021 43.5111L191.824 43.4571C192.275 43.4319 192.927 43.3323 193.301 43.2196C193.927 43.0423 193.954 43.0063 193.891 42.5116C193.816 41.9213 194.102 41.4955 194.719 41.2544C195.197 41.0635 195.363 41.2207 195.612 42.0321L195.764 42.5804L197.119 42.4071L198.474 42.2338L198.32 41.5399Z" fill="#333333"/>
<defs>
<filter id="filter0_d_17_60" x="0" y="0" width="230" height="230" filterUnits="userSpaceOnUse" color-interpolation-filters="sRGB">
<feFlood flood-opacity="0" result="BackgroundImageFix"/>
<feColorMatrix in="SourceAlpha" type="matrix" values="0 0 0 0 0 0 0 0 0 0 0 0 0 0 0 0 0 0 127 0" result="hardAlpha"/>
<feOffset dx="-6" dy="6"/>
<feComposite in2="hardAlpha" operator="out"/>
<feColorMatrix type="matrix" values="0 0 0 0 0 0 0 0 0 0 0 0 0 0 0 0 0 0 0.25 0"/>
<feBlend mode="normal" in2="BackgroundImageFix" result="effect1_dropShadow_17_60"/>
<feBlend mode="normal" in="SourceGraphic" in2="effect1_dropShadow_17_60" result="shape"/>
</filter>
</defs>
</svg>
