<svg width="230" height="230" viewBox="0 0 230 230" fill="none" xmlns="http://www.w3.org/2000/svg">
<g filter="url(#filter0_d_20_860)">
<rect x="6" width="224" height="224" fill="#F7FBFD"/>
<rect x="8.5" y="2.5" width="219" height="219" stroke="#333333" stroke-width="5"/>
</g>
<path d="M82.2357 178.07C81.5326 178.353 80.8051 178.563 80.0531 178.7C79.3012 178.836 78.515 178.905 77.6947 178.905C76.5131 178.905 75.4535 178.744 74.516 178.421C73.5785 178.099 72.7826 177.621 72.1283 176.986C71.474 176.351 70.9711 175.565 70.6195 174.627C70.2777 173.69 70.1068 172.606 70.1068 171.375C70.1068 170.184 70.2924 169.105 70.6635 168.138C71.0443 167.171 71.5766 166.346 72.2601 165.663C72.9437 164.979 73.7641 164.452 74.7211 164.08C75.6879 163.709 76.7621 163.524 77.9437 163.524C78.9105 163.524 79.7211 163.578 80.3754 163.685C81.0394 163.783 81.6351 163.91 82.1625 164.066V167.538C81.557 167.235 80.8978 167 80.185 166.834C79.4818 166.668 78.8129 166.585 78.1781 166.585C77.5141 166.585 76.9184 166.698 76.391 166.922C75.8637 167.147 75.4193 167.459 75.058 167.86C74.6967 168.26 74.4184 168.748 74.223 169.325C74.0375 169.891 73.9447 170.516 73.9447 171.2C73.9447 171.913 74.0473 172.552 74.2523 173.119C74.4574 173.685 74.7455 174.168 75.1166 174.569C75.4975 174.959 75.9516 175.262 76.4789 175.477C77.0062 175.682 77.5922 175.785 78.2367 175.785C78.5492 175.785 78.8764 175.765 79.2182 175.726C79.5697 175.677 79.9164 175.614 80.2582 175.536C80.6098 175.448 80.9516 175.35 81.2836 175.243C81.6254 175.135 81.9428 175.018 82.2357 174.891V178.07ZM95.5658 178.641V168.944C95.5658 167.313 94.9603 166.497 93.7494 166.497C93.1439 166.497 92.5629 166.742 92.0062 167.23C91.4594 167.718 90.8783 168.382 90.2631 169.222V178.641H86.6889V157.943H90.2631V163.04L90.0873 165.736C90.39 165.374 90.6976 165.052 91.0101 164.769C91.3226 164.476 91.6596 164.232 92.0209 164.037C92.3822 163.841 92.7728 163.695 93.1928 163.597C93.6127 163.49 94.0766 163.436 94.5844 163.436C95.3461 163.436 96.0101 163.563 96.5766 163.817C97.143 164.061 97.6166 164.413 97.9975 164.871C98.3783 165.321 98.6615 165.868 98.8471 166.512C99.0424 167.147 99.14 167.86 99.14 168.651V178.641H95.5658ZM116.586 171.082C116.586 172.254 116.42 173.329 116.088 174.305C115.756 175.272 115.278 176.102 114.653 176.795C114.028 177.489 113.261 178.026 112.353 178.407C111.445 178.788 110.41 178.978 109.247 178.978C108.144 178.978 107.158 178.817 106.288 178.495C105.419 178.172 104.682 177.694 104.077 177.059C103.471 176.414 103.007 175.614 102.685 174.657C102.363 173.69 102.202 172.567 102.202 171.288C102.202 170.106 102.368 169.032 102.7 168.065C103.041 167.098 103.525 166.273 104.15 165.589C104.785 164.906 105.556 164.378 106.464 164.007C107.372 163.626 108.398 163.436 109.54 163.436C110.654 163.436 111.645 163.602 112.514 163.934C113.383 164.256 114.12 164.74 114.726 165.384C115.331 166.029 115.79 166.829 116.103 167.787C116.425 168.734 116.586 169.832 116.586 171.082ZM112.866 171.17C112.866 169.627 112.573 168.47 111.987 167.699C111.411 166.917 110.556 166.527 109.423 166.527C108.798 166.527 108.266 166.649 107.827 166.893C107.387 167.137 107.026 167.474 106.743 167.904C106.459 168.324 106.249 168.817 106.113 169.383C105.986 169.95 105.922 170.555 105.922 171.2C105.922 172.752 106.235 173.924 106.86 174.715C107.485 175.496 108.339 175.887 109.423 175.887C110.019 175.887 110.537 175.77 110.976 175.536C111.415 175.291 111.772 174.959 112.045 174.539C112.319 174.11 112.524 173.607 112.661 173.031C112.797 172.454 112.866 171.834 112.866 171.17ZM129.257 169.544C129.277 168.988 129.247 168.514 129.169 168.123C129.101 167.733 128.984 167.411 128.818 167.157C128.662 166.903 128.466 166.717 128.232 166.6C127.997 166.483 127.729 166.424 127.426 166.424C126.899 166.424 126.352 166.644 125.786 167.083C125.229 167.513 124.614 168.226 123.94 169.222V178.641H120.278V163.758H123.515L123.647 165.926C123.891 165.545 124.164 165.204 124.467 164.901C124.78 164.598 125.121 164.339 125.493 164.124C125.873 163.9 126.293 163.729 126.752 163.612C127.211 163.495 127.714 163.436 128.261 163.436C129.013 163.436 129.677 163.568 130.253 163.831C130.839 164.085 131.328 164.466 131.718 164.974C132.119 165.482 132.412 166.121 132.597 166.893C132.792 167.655 132.875 168.538 132.846 169.544H129.257ZM145.532 178.641L145.444 176.444C145.131 176.825 144.809 177.171 144.477 177.484C144.145 177.796 143.788 178.065 143.408 178.289C143.027 178.504 142.617 178.67 142.177 178.788C141.747 178.914 141.269 178.978 140.742 178.978C139.863 178.978 139.081 178.802 138.398 178.451C137.714 178.099 137.138 177.601 136.669 176.956C136.21 176.302 135.859 175.511 135.615 174.583C135.37 173.656 135.248 172.621 135.248 171.478C135.248 170.111 135.439 168.929 135.82 167.933C136.21 166.927 136.747 166.097 137.431 165.443C138.115 164.779 138.925 164.29 139.863 163.978C140.8 163.656 141.821 163.495 142.924 163.495C143.295 163.495 143.666 163.519 144.037 163.568C144.418 163.617 144.755 163.68 145.048 163.758V157.943H148.622V178.641H145.532ZM138.998 171.317C138.998 172.137 139.052 172.84 139.16 173.426C139.277 174.002 139.443 174.476 139.658 174.847C139.882 175.218 140.156 175.492 140.478 175.667C140.8 175.833 141.166 175.916 141.577 175.916C142.182 175.916 142.758 175.672 143.305 175.184C143.852 174.696 144.433 174.027 145.048 173.177V166.673C144.765 166.566 144.413 166.478 143.994 166.41C143.583 166.341 143.168 166.307 142.748 166.307C142.172 166.307 141.655 166.424 141.196 166.659C140.737 166.893 140.341 167.225 140.009 167.655C139.687 168.084 139.438 168.612 139.262 169.237C139.086 169.852 138.998 170.545 138.998 171.317ZM164.941 174.261C164.941 175.111 164.75 175.838 164.37 176.444C163.998 177.039 163.5 177.528 162.875 177.909C162.26 178.28 161.557 178.548 160.766 178.714C159.985 178.89 159.184 178.978 158.364 178.978C157.27 178.978 156.284 178.924 155.405 178.817C154.526 178.719 153.696 178.573 152.914 178.377V175.155C153.832 175.536 154.745 175.814 155.654 175.99C156.572 176.156 157.436 176.239 158.246 176.239C159.184 176.239 159.882 176.092 160.341 175.799C160.81 175.496 161.044 175.106 161.044 174.627C161.044 174.403 160.995 174.198 160.898 174.012C160.8 173.827 160.615 173.651 160.341 173.485C160.078 173.309 159.702 173.133 159.213 172.957C158.725 172.772 158.085 172.567 157.294 172.342C156.562 172.137 155.917 171.908 155.361 171.654C154.814 171.39 154.36 171.082 153.998 170.731C153.637 170.379 153.364 169.974 153.178 169.515C153.002 169.046 152.914 168.499 152.914 167.874C152.914 167.269 153.051 166.698 153.325 166.161C153.598 165.623 154.003 165.155 154.54 164.754C155.087 164.344 155.766 164.022 156.577 163.788C157.387 163.553 158.334 163.436 159.418 163.436C160.356 163.436 161.186 163.485 161.909 163.582C162.631 163.68 163.271 163.788 163.828 163.905V166.82C162.978 166.546 162.177 166.356 161.425 166.248C160.683 166.131 159.946 166.073 159.213 166.073C158.481 166.073 157.89 166.204 157.441 166.468C157.001 166.732 156.782 167.098 156.782 167.567C156.782 167.791 156.826 167.992 156.913 168.167C157.001 168.343 157.172 168.514 157.426 168.68C157.69 168.846 158.051 169.022 158.51 169.207C158.979 169.383 159.594 169.579 160.356 169.793C161.215 170.038 161.938 170.301 162.524 170.584C163.11 170.858 163.579 171.17 163.93 171.522C164.291 171.873 164.55 172.274 164.706 172.723C164.863 173.172 164.941 173.685 164.941 174.261Z" fill="#333333"/>
<g clip-path="url(#clip0_20_860)">
<path d="M96.883 139.875H115.814H120.27H139.201H143.656H167.043V40.939H143.656H139.201H120.27H115.814H96.883H92.4277H69.0414V139.875H92.4277H96.883ZM162.031 134.864H144.212V106.188H150.059V45.9503H162.031V134.864ZM138.644 106.188V134.864H120.825V106.188H126.672V45.9503H132.24V106.188H138.644ZM115.258 106.188V134.864H97.4393V106.188H103.286V45.9503H108.854V106.188H115.258ZM91.8717 134.864H74.0527V45.9503H85.4669V106.188H91.8717V134.864Z" fill="#C6DFEC"/>
</g>
<g clip-path="url(#clip1_20_860)">
<path d="M96.883 137.316H115.814H120.27H139.201H143.656H167.043V38.3803H143.656H139.201H120.27H115.814H96.883H92.4277H69.0414V137.316H92.4277H96.883ZM162.031 132.305H144.212V103.63H150.059V43.3916H162.031V132.305ZM138.644 103.63V132.305H120.825V103.63H126.672V43.3916H132.24V103.63H138.644ZM115.258 103.63V132.305H97.4393V103.63H103.286V43.3916H108.854V103.63H115.258ZM91.8717 132.305H74.0527V43.3916H85.4669V103.63H91.8717V132.305Z" fill="#98B8C8"/>
</g>
<g clip-path="url(#clip2_20_860)">
<path d="M96.883 134.758H115.814H120.27H139.201H143.656H167.043V35.8216H143.656H139.201H120.27H115.814H96.883H92.4277H69.0414V134.758H92.4277H96.883ZM162.031 129.746H144.212V101.071H150.059V40.833H162.031V129.746ZM138.644 101.071V129.746H120.825V101.071H126.672V40.833H132.24V101.071H138.644ZM115.258 101.071V129.746H97.4393V101.071H103.286V40.833H108.854V101.071H115.258ZM91.8717 129.746H74.0527V40.833H85.4669V101.071H91.8717V129.746Z" fill="#333333"/>
</g>
<defs>
<filter id="filter0_d_20_860" x="0" y="0" width="230" height="230" filterUnits="userSpaceOnUse" color-interpolation-filters="sRGB">
<feFlood flood-opacity="0" result="BackgroundImageFix"/>
<feColorMatrix in="SourceAlpha" type="matrix" values="0 0 0 0 0 0 0 0 0 0 0 0 0 0 0 0 0 0 127 0" result="hardAlpha"/>
<feOffset dx="-6" dy="6"/>
<feComposite in2="hardAlpha" operator="out"/>
<feColorMatrix type="matrix" values="0 0 0 0 0 0 0 0 0 0 0 0 0 0 0 0 0 0 0.25 0"/>
<feBlend mode="normal" in2="BackgroundImageFix" result="effect1_dropShadow_20_860"/>
<feBlend mode="normal" in="SourceGraphic" in2="effect1_dropShadow_20_860" result="shape"/>
</filter>
<clipPath id="clip0_20_860">
<rect width="98.9359" height="98.9359" fill="white" transform="translate(68.573 40.939)"/>
</clipPath>
<clipPath id="clip1_20_860">
<rect width="98.9359" height="98.9359" fill="white" transform="translate(68.573 38.3803)"/>
</clipPath>
<clipPath id="clip2_20_860">
<rect width="98.9359" height="98.9359" fill="white" transform="translate(68.573 35.8216)"/>
</clipPath>
</defs>
</svg>
