<svg width="230" height="230" viewBox="0 0 230 230" fill="none" xmlns="http://www.w3.org/2000/svg">
<g filter="url(#filter0_d_17_56)">
<rect x="6" width="224" height="224" fill="#F7FBFD"/>
<rect x="8.5" y="2.5" width="219" height="219" stroke="#333333" stroke-width="5"/>
</g>
<path d="M152.13 41.9401L88.8667 60.6223C87.5825 61.0257 86.4604 61.8282 85.6636 62.913C84.8668 63.9979 84.4367 65.3086 84.4359 66.6546V118.34C82.3641 117.837 80.2408 117.577 78.1089 117.565C67.63 117.565 59.1282 123.231 59.1282 130.218C59.1282 137.206 67.63 142.872 78.1089 142.872C88.5879 142.872 97.0897 137.206 97.0897 130.218V84.0161L147.705 69.1874V105.688C145.634 105.183 143.51 104.922 141.378 104.911C130.899 104.911 122.397 110.577 122.397 117.565C122.397 124.552 130.899 130.218 141.378 130.218C151.857 130.218 160.359 124.554 160.359 117.565V47.9685C160.358 46.9752 160.123 45.9961 159.674 45.1105C159.224 44.2248 158.572 43.4574 157.771 42.8705C156.97 42.2835 156.042 41.8934 155.062 41.7318C154.082 41.5701 153.077 41.6415 152.13 41.9401Z" fill="#C6DFEC"/>
<path d="M152.13 39.0683L88.8667 57.7505C87.5825 58.1539 86.4604 58.9564 85.6636 60.0412C84.8668 61.1261 84.4367 62.4368 84.4359 63.7828V115.468C82.3641 114.965 80.2408 114.705 78.1089 114.693C67.63 114.693 59.1282 120.359 59.1282 127.347C59.1282 134.334 67.63 140.001 78.1089 140.001C88.5879 140.001 97.0897 134.334 97.0897 127.347V81.1443L147.705 66.3156V102.816C145.634 102.311 143.51 102.051 141.378 102.039C130.899 102.039 122.397 107.706 122.397 114.693C122.397 121.68 130.899 127.347 141.378 127.347C151.857 127.347 160.359 121.682 160.359 114.693V45.0967C160.358 44.1034 160.123 43.1243 159.674 42.2387C159.224 41.353 158.572 40.5856 157.771 39.9987C156.97 39.4117 156.042 39.0216 155.062 38.86C154.082 38.6983 153.077 38.7697 152.13 39.0683Z" fill="#98B8C8"/>
<path d="M152.13 36.1965L88.8667 54.8787C87.5825 55.2821 86.4604 56.0846 85.6636 57.1694C84.8668 58.2543 84.4367 59.565 84.4359 60.911V112.596C82.3641 112.093 80.2408 111.833 78.1089 111.821C67.63 111.821 59.1282 117.488 59.1282 124.475C59.1282 131.462 67.63 137.129 78.1089 137.129C88.5879 137.129 97.0897 131.462 97.0897 124.475V78.2725L147.705 63.4438V99.9442C145.634 99.4396 143.51 99.1788 141.378 99.1672C130.899 99.1672 122.397 104.834 122.397 111.821C122.397 118.808 130.899 124.475 141.378 124.475C151.857 124.475 160.359 118.81 160.359 111.821V42.2249C160.358 41.2316 160.123 40.2525 159.674 39.3669C159.224 38.4812 158.572 37.7138 157.771 37.1269C156.97 36.5399 156.042 36.1498 155.062 35.9882C154.082 35.8265 153.077 35.8979 152.13 36.1965Z" fill="#333333"/>
<path d="M82.4701 172.495C81.8256 172.641 81.1762 172.758 80.5219 172.846C79.8676 172.934 79.2475 172.978 78.6615 172.978C77.685 172.978 76.8402 172.875 76.1273 172.67C75.4242 172.465 74.8383 172.153 74.3695 171.733C73.9105 171.313 73.5687 170.781 73.3441 170.136C73.1293 169.482 73.0219 168.705 73.0219 167.807V160.541H69.0228V157.758H73.0219V153.95L76.684 152.997V157.758H82.4701V160.541H76.684V167.543C76.684 168.393 76.8793 169.038 77.2699 169.477C77.6605 169.907 78.3148 170.121 79.2328 170.121C79.8187 170.121 80.39 170.073 80.9467 169.975C81.5033 169.877 82.0111 169.765 82.4701 169.638V172.495ZM95.5658 172.641V162.944C95.5658 161.313 94.9603 160.497 93.7494 160.497C93.1439 160.497 92.5629 160.742 92.0062 161.23C91.4594 161.718 90.8783 162.382 90.2631 163.222V172.641H86.6889V151.943H90.2631V157.04L90.0873 159.736C90.39 159.374 90.6976 159.052 91.0101 158.769C91.3226 158.476 91.6596 158.232 92.0209 158.037C92.3822 157.841 92.7728 157.695 93.1928 157.597C93.6127 157.49 94.0766 157.436 94.5844 157.436C95.3461 157.436 96.0101 157.563 96.5766 157.817C97.143 158.061 97.6166 158.413 97.9975 158.871C98.3783 159.321 98.6615 159.868 98.8471 160.512C99.0424 161.147 99.14 161.86 99.14 162.651V172.641H95.5658ZM116.147 164.057C116.147 164.301 116.137 164.619 116.118 165.009C116.108 165.4 116.088 165.766 116.059 166.108H106.274C106.274 166.762 106.371 167.338 106.567 167.836C106.772 168.334 107.055 168.754 107.416 169.096C107.787 169.428 108.227 169.682 108.735 169.858C109.252 170.034 109.824 170.121 110.449 170.121C111.171 170.121 111.943 170.068 112.763 169.96C113.593 169.843 114.453 169.658 115.341 169.404V172.246C114.96 172.353 114.545 172.451 114.096 172.538C113.647 172.626 113.188 172.704 112.719 172.773C112.25 172.841 111.777 172.89 111.298 172.919C110.82 172.958 110.356 172.978 109.907 172.978C108.774 172.978 107.758 172.817 106.86 172.495C105.961 172.172 105.2 171.699 104.575 171.074C103.95 170.439 103.471 169.658 103.139 168.73C102.807 167.802 102.641 166.728 102.641 165.507C102.641 164.296 102.807 163.198 103.139 162.211C103.471 161.215 103.94 160.366 104.545 159.663C105.151 158.95 105.883 158.403 106.743 158.022C107.612 157.631 108.579 157.436 109.643 157.436C110.698 157.436 111.63 157.602 112.441 157.934C113.251 158.256 113.93 158.71 114.477 159.296C115.024 159.882 115.439 160.58 115.722 161.391C116.005 162.202 116.147 163.09 116.147 164.057ZM112.514 163.544C112.524 162.958 112.451 162.451 112.294 162.021C112.138 161.581 111.923 161.22 111.65 160.937C111.386 160.654 111.074 160.444 110.712 160.307C110.361 160.17 109.98 160.102 109.57 160.102C108.671 160.102 107.934 160.405 107.358 161.01C106.782 161.606 106.44 162.451 106.332 163.544H112.514ZM133.08 165.082C133.08 166.254 132.914 167.329 132.582 168.305C132.25 169.272 131.772 170.102 131.147 170.795C130.522 171.489 129.755 172.026 128.847 172.407C127.939 172.788 126.904 172.978 125.742 172.978C124.638 172.978 123.652 172.817 122.783 172.495C121.913 172.172 121.176 171.694 120.571 171.059C119.965 170.414 119.501 169.614 119.179 168.657C118.857 167.69 118.696 166.567 118.696 165.288C118.696 164.106 118.862 163.032 119.194 162.065C119.536 161.098 120.019 160.273 120.644 159.589C121.279 158.906 122.05 158.378 122.958 158.007C123.867 157.626 124.892 157.436 126.035 157.436C127.148 157.436 128.139 157.602 129.008 157.934C129.877 158.256 130.615 158.74 131.22 159.384C131.826 160.029 132.285 160.829 132.597 161.787C132.919 162.734 133.08 163.832 133.08 165.082ZM129.36 165.17C129.36 163.627 129.067 162.47 128.481 161.699C127.905 160.917 127.05 160.527 125.917 160.527C125.292 160.527 124.76 160.649 124.321 160.893C123.881 161.137 123.52 161.474 123.237 161.904C122.954 162.324 122.744 162.817 122.607 163.383C122.48 163.95 122.416 164.555 122.416 165.2C122.416 166.752 122.729 167.924 123.354 168.715C123.979 169.496 124.833 169.887 125.917 169.887C126.513 169.887 127.031 169.77 127.47 169.536C127.91 169.291 128.266 168.959 128.539 168.539C128.813 168.11 129.018 167.607 129.155 167.031C129.291 166.454 129.36 165.834 129.36 165.17ZM145.751 163.544C145.771 162.988 145.742 162.514 145.663 162.123C145.595 161.733 145.478 161.411 145.312 161.157C145.156 160.903 144.96 160.717 144.726 160.6C144.492 160.483 144.223 160.424 143.92 160.424C143.393 160.424 142.846 160.644 142.28 161.083C141.723 161.513 141.108 162.226 140.434 163.222V172.641H136.772V157.758H140.009L140.141 159.926C140.385 159.545 140.659 159.204 140.961 158.901C141.274 158.598 141.616 158.339 141.987 158.124C142.368 157.9 142.787 157.729 143.246 157.612C143.705 157.495 144.208 157.436 144.755 157.436C145.507 157.436 146.171 157.568 146.747 157.831C147.333 158.085 147.822 158.466 148.212 158.974C148.613 159.482 148.906 160.121 149.091 160.893C149.287 161.655 149.37 162.538 149.34 163.544H145.751ZM161.616 171.015C161.098 172.304 160.556 173.432 159.99 174.399C159.433 175.375 158.818 176.186 158.144 176.83C157.47 177.485 156.718 177.973 155.888 178.295C155.068 178.627 154.145 178.793 153.12 178.793C152.875 178.793 152.607 178.779 152.314 178.749C152.031 178.73 151.738 178.696 151.435 178.647V175.615C151.552 175.634 151.684 175.654 151.83 175.673C151.987 175.703 152.148 175.722 152.314 175.732C152.48 175.751 152.646 175.766 152.812 175.776C152.988 175.786 153.149 175.79 153.295 175.79C153.705 175.79 154.086 175.712 154.438 175.556C154.789 175.4 155.112 175.18 155.405 174.897C155.707 174.623 155.981 174.291 156.225 173.901C156.469 173.52 156.684 173.1 156.87 172.641L150.966 157.758H154.951L158.041 166.196L158.964 168.92L159.872 166.313L162.993 157.758H166.83L161.616 171.015Z" fill="#333333"/>
<path d="M73.7426 207.563C71.8441 205.954 70.4184 204.227 69.4652 202.383C68.5199 200.539 68.0473 198.555 68.0473 196.43C68.0473 195.243 68.1879 194.121 68.4691 193.067C68.7504 192.004 69.1449 191.008 69.6527 190.079C70.1684 189.149 70.7777 188.278 71.4809 187.465C72.1918 186.645 72.9691 185.879 73.8129 185.168L75.4418 186.797C73.9184 188.164 72.7738 189.641 72.0082 191.227C71.2426 192.813 70.8598 194.481 70.8598 196.231C70.8598 198.004 71.2426 199.711 72.0082 201.352C72.7738 202.985 73.9184 204.477 75.4418 205.829L73.7426 207.563ZM88.6137 192.821C88.8324 193.094 88.9848 193.383 89.0707 193.688C89.1644 193.985 89.2113 194.289 89.2113 194.602C89.2113 195.266 89.0941 195.852 88.8598 196.36C88.6332 196.868 88.309 197.293 87.8871 197.637C87.473 197.981 86.973 198.243 86.3871 198.422C85.809 198.594 85.1684 198.68 84.4652 198.68C84.0512 198.68 83.6684 198.641 83.3168 198.563C82.9652 198.477 82.6996 198.379 82.5199 198.27C82.3871 198.403 82.2738 198.551 82.1801 198.715C82.0863 198.871 82.0394 199.051 82.0394 199.254C82.0394 199.379 82.0707 199.504 82.1332 199.629C82.1957 199.754 82.2855 199.868 82.4027 199.969C82.5277 200.063 82.6723 200.141 82.8363 200.204C83.0082 200.266 83.1996 200.301 83.4105 200.309L86.2348 200.414C86.8676 200.43 87.4379 200.512 87.9457 200.661C88.4613 200.801 88.9027 201.004 89.2699 201.27C89.6371 201.536 89.9184 201.86 90.1137 202.243C90.3168 202.618 90.4184 203.047 90.4184 203.532C90.4184 204.086 90.2934 204.61 90.0434 205.102C89.7934 205.594 89.4144 206.02 88.9066 206.379C88.4066 206.746 87.7816 207.036 87.0316 207.246C86.2816 207.457 85.4105 207.563 84.4184 207.563C83.4574 207.563 82.6293 207.485 81.934 207.329C81.2465 207.18 80.6801 206.969 80.2348 206.696C79.7973 206.422 79.473 206.094 79.2621 205.711C79.0512 205.336 78.9457 204.922 78.9457 204.469C78.9457 204.196 78.9809 203.942 79.0512 203.707C79.1215 203.473 79.2269 203.246 79.3676 203.028C79.5082 202.817 79.684 202.61 79.8949 202.407C80.1059 202.204 80.3559 202 80.6449 201.797C80.2621 201.579 79.9691 201.297 79.766 200.954C79.5707 200.61 79.473 200.243 79.473 199.852C79.473 199.586 79.5082 199.34 79.5785 199.114C79.6488 198.879 79.7387 198.657 79.848 198.446C79.9652 198.235 80.098 198.032 80.2465 197.836C80.3949 197.641 80.5512 197.45 80.7152 197.262C80.4262 196.973 80.184 196.625 79.9887 196.219C79.8012 195.805 79.7074 195.289 79.7074 194.672C79.7074 194.008 79.8246 193.418 80.059 192.903C80.3012 192.379 80.6332 191.942 81.0551 191.59C81.4769 191.231 81.9769 190.961 82.5551 190.782C83.141 190.594 83.7777 190.5 84.4652 190.5C84.8168 190.5 85.1527 190.52 85.473 190.559C85.8012 190.59 86.098 190.649 86.3637 190.735H90.4887V192.821H88.6137ZM81.8754 204.223C81.8754 204.684 82.1059 205.024 82.5668 205.243C83.0355 205.461 83.6918 205.571 84.5355 205.571C85.0746 205.571 85.5277 205.52 85.8949 205.418C86.2699 205.317 86.5746 205.184 86.809 205.02C87.0434 204.856 87.2113 204.664 87.3129 204.446C87.4144 204.227 87.4652 204 87.4652 203.766C87.4652 203.555 87.4144 203.375 87.3129 203.227C87.2191 203.086 87.0824 202.965 86.9027 202.864C86.7309 202.77 86.5238 202.696 86.2816 202.641C86.0473 202.594 85.7855 202.563 85.4965 202.547L82.9769 202.5C82.7504 202.657 82.5629 202.805 82.4144 202.946C82.2738 203.086 82.1605 203.223 82.0746 203.356C81.9965 203.496 81.9418 203.637 81.9105 203.778C81.8871 203.918 81.8754 204.067 81.8754 204.223ZM82.3559 194.672C82.3559 195.305 82.5394 195.809 82.9066 196.184C83.2816 196.551 83.8012 196.735 84.4652 196.735C84.8168 196.735 85.1215 196.676 85.3793 196.559C85.6449 196.442 85.8637 196.286 86.0355 196.09C86.2074 195.895 86.3363 195.668 86.4223 195.411C86.5082 195.153 86.5512 194.883 86.5512 194.602C86.5512 193.938 86.3637 193.422 85.9887 193.055C85.6215 192.68 85.1059 192.493 84.4418 192.493C84.0902 192.493 83.7816 192.551 83.516 192.668C83.2582 192.786 83.0434 192.946 82.8715 193.149C82.6996 193.344 82.5707 193.575 82.4848 193.84C82.3988 194.106 82.3559 194.383 82.3559 194.672ZM95.7152 190.735V198.493C95.7152 199.141 95.8363 199.633 96.0785 199.969C96.3207 200.297 96.6879 200.461 97.1801 200.461C97.6566 200.461 98.1137 200.266 98.5512 199.875C98.9965 199.477 99.4652 198.942 99.9574 198.27V190.735H102.817V202.641H100.344L100.274 200.883C100.024 201.188 99.7699 201.465 99.5121 201.715C99.2543 201.965 98.973 202.18 98.6684 202.36C98.3715 202.532 98.0434 202.664 97.684 202.758C97.3324 202.86 96.9418 202.911 96.5121 202.911C95.9027 202.911 95.3676 202.813 94.9066 202.618C94.4535 202.414 94.0746 202.129 93.7699 201.762C93.4652 201.395 93.2348 200.957 93.0785 200.45C92.9301 199.934 92.8559 199.36 92.8559 198.727V190.735H95.7152ZM116.446 195.774C116.446 195.969 116.438 196.223 116.422 196.536C116.414 196.848 116.399 197.141 116.375 197.414H108.547C108.547 197.938 108.625 198.399 108.782 198.797C108.946 199.196 109.172 199.532 109.461 199.805C109.758 200.071 110.11 200.274 110.516 200.414C110.93 200.555 111.387 200.625 111.887 200.625C112.465 200.625 113.082 200.582 113.739 200.496C114.403 200.403 115.09 200.254 115.801 200.051V202.325C115.496 202.411 115.164 202.489 114.805 202.559C114.446 202.629 114.079 202.692 113.704 202.746C113.329 202.801 112.95 202.84 112.567 202.864C112.184 202.895 111.813 202.911 111.454 202.911C110.547 202.911 109.735 202.782 109.016 202.524C108.297 202.266 107.688 201.887 107.188 201.387C106.688 200.879 106.305 200.254 106.039 199.512C105.774 198.77 105.641 197.911 105.641 196.934C105.641 195.965 105.774 195.086 106.039 194.297C106.305 193.5 106.68 192.821 107.164 192.258C107.649 191.688 108.235 191.25 108.922 190.946C109.618 190.633 110.391 190.477 111.243 190.477C112.086 190.477 112.832 190.61 113.481 190.875C114.129 191.133 114.672 191.496 115.11 191.965C115.547 192.434 115.879 192.993 116.106 193.641C116.332 194.289 116.446 195 116.446 195.774ZM113.539 195.364C113.547 194.895 113.489 194.489 113.364 194.145C113.239 193.793 113.067 193.504 112.848 193.278C112.637 193.051 112.387 192.883 112.098 192.774C111.817 192.664 111.512 192.61 111.184 192.61C110.465 192.61 109.875 192.852 109.414 193.336C108.954 193.813 108.68 194.489 108.594 195.364H113.539ZM129.09 199.137C129.09 199.817 128.938 200.399 128.633 200.883C128.336 201.36 127.938 201.75 127.438 202.055C126.946 202.352 126.383 202.567 125.75 202.7C125.125 202.84 124.485 202.911 123.829 202.911C122.954 202.911 122.164 202.868 121.461 202.782C120.758 202.704 120.094 202.586 119.469 202.43V199.852C120.204 200.157 120.934 200.379 121.661 200.52C122.395 200.653 123.086 200.719 123.735 200.719C124.485 200.719 125.043 200.602 125.411 200.368C125.786 200.125 125.973 199.813 125.973 199.43C125.973 199.25 125.934 199.086 125.856 198.938C125.778 198.789 125.629 198.649 125.411 198.516C125.2 198.375 124.899 198.235 124.508 198.094C124.118 197.946 123.606 197.782 122.973 197.602C122.387 197.438 121.871 197.254 121.426 197.051C120.989 196.84 120.625 196.594 120.336 196.313C120.047 196.032 119.829 195.707 119.68 195.34C119.539 194.965 119.469 194.528 119.469 194.028C119.469 193.543 119.579 193.086 119.797 192.657C120.016 192.227 120.34 191.852 120.77 191.532C121.207 191.204 121.75 190.946 122.399 190.758C123.047 190.571 123.805 190.477 124.672 190.477C125.422 190.477 126.086 190.516 126.664 190.594C127.243 190.672 127.754 190.758 128.2 190.852V193.184C127.52 192.965 126.879 192.813 126.278 192.727C125.684 192.633 125.094 192.586 124.508 192.586C123.922 192.586 123.45 192.692 123.09 192.903C122.739 193.114 122.563 193.407 122.563 193.782C122.563 193.961 122.598 194.121 122.668 194.262C122.739 194.403 122.875 194.539 123.079 194.672C123.289 194.805 123.579 194.946 123.946 195.094C124.321 195.235 124.813 195.391 125.422 195.563C126.11 195.758 126.688 195.969 127.157 196.196C127.625 196.414 128 196.664 128.282 196.946C128.571 197.227 128.778 197.547 128.903 197.907C129.028 198.266 129.09 198.676 129.09 199.137ZM142.286 202.524C141.77 202.641 141.25 202.735 140.727 202.805C140.204 202.875 139.707 202.911 139.239 202.911C138.457 202.911 137.782 202.829 137.211 202.664C136.649 202.5 136.18 202.25 135.805 201.914C135.438 201.579 135.164 201.153 134.985 200.637C134.813 200.114 134.727 199.493 134.727 198.774V192.961H131.528V190.735H134.727V187.688L137.657 186.926V190.735H142.286V192.961H137.657V198.563C137.657 199.243 137.813 199.758 138.125 200.11C138.438 200.454 138.961 200.625 139.696 200.625C140.164 200.625 140.621 200.586 141.067 200.508C141.512 200.43 141.918 200.34 142.286 200.239V202.524ZM155.481 199.137C155.481 199.817 155.329 200.399 155.024 200.883C154.727 201.36 154.329 201.75 153.829 202.055C153.336 202.352 152.774 202.567 152.141 202.7C151.516 202.84 150.875 202.911 150.219 202.911C149.344 202.911 148.555 202.868 147.852 202.782C147.149 202.704 146.485 202.586 145.86 202.43V199.852C146.594 200.157 147.325 200.379 148.051 200.52C148.786 200.653 149.477 200.719 150.125 200.719C150.875 200.719 151.434 200.602 151.801 200.368C152.176 200.125 152.364 199.813 152.364 199.43C152.364 199.25 152.325 199.086 152.246 198.938C152.168 198.789 152.02 198.649 151.801 198.516C151.59 198.375 151.289 198.235 150.899 198.094C150.508 197.946 149.996 197.782 149.364 197.602C148.778 197.438 148.262 197.254 147.817 197.051C147.379 196.84 147.016 196.594 146.727 196.313C146.438 196.032 146.219 195.707 146.071 195.34C145.93 194.965 145.86 194.528 145.86 194.028C145.86 193.543 145.969 193.086 146.188 192.657C146.407 192.227 146.731 191.852 147.161 191.532C147.598 191.204 148.141 190.946 148.789 190.758C149.438 190.571 150.196 190.477 151.063 190.477C151.813 190.477 152.477 190.516 153.055 190.594C153.633 190.672 154.145 190.758 154.59 190.852V193.184C153.911 192.965 153.27 192.813 152.668 192.727C152.075 192.633 151.485 192.586 150.899 192.586C150.313 192.586 149.84 192.692 149.481 192.903C149.129 193.114 148.954 193.407 148.954 193.782C148.954 193.961 148.989 194.121 149.059 194.262C149.129 194.403 149.266 194.539 149.469 194.672C149.68 194.805 149.969 194.946 150.336 195.094C150.711 195.235 151.204 195.391 151.813 195.563C152.5 195.758 153.079 195.969 153.547 196.196C154.016 196.414 154.391 196.664 154.672 196.946C154.961 197.227 155.168 197.547 155.293 197.907C155.418 198.266 155.481 198.676 155.481 199.137ZM161.598 185.168C163.512 186.762 164.938 188.485 165.875 190.336C166.813 192.18 167.282 194.168 167.282 196.301C167.282 197.489 167.141 198.61 166.86 199.664C166.579 200.719 166.184 201.715 165.676 202.653C165.176 203.59 164.575 204.465 163.871 205.278C163.168 206.098 162.395 206.86 161.551 207.563L159.911 205.934C161.442 204.567 162.59 203.086 163.356 201.493C164.121 199.899 164.504 198.227 164.504 196.477C164.504 194.711 164.121 193.008 163.356 191.368C162.59 189.727 161.442 188.227 159.911 186.868L161.598 185.168Z" fill="#333333"/>
<defs>
<filter id="filter0_d_17_56" x="0" y="0" width="230" height="230" filterUnits="userSpaceOnUse" color-interpolation-filters="sRGB">
<feFlood flood-opacity="0" result="BackgroundImageFix"/>
<feColorMatrix in="SourceAlpha" type="matrix" values="0 0 0 0 0 0 0 0 0 0 0 0 0 0 0 0 0 0 127 0" result="hardAlpha"/>
<feOffset dx="-6" dy="6"/>
<feComposite in2="hardAlpha" operator="out"/>
<feColorMatrix type="matrix" values="0 0 0 0 0 0 0 0 0 0 0 0 0 0 0 0 0 0 0.25 0"/>
<feBlend mode="normal" in2="BackgroundImageFix" result="effect1_dropShadow_17_56"/>
<feBlend mode="normal" in="SourceGraphic" in2="effect1_dropShadow_17_56" result="shape"/>
</filter>
</defs>
</svg>
