<svg width="53" height="47" viewBox="0 0 53 47" fill="none" xmlns="http://www.w3.org/2000/svg">
<g clip-path="url(#clip0_52_439)">
<path d="M25.7983 13.6098L8.83374 27.5492V42.5938C8.83374 42.9833 8.98884 43.3569 9.26494 43.6323C9.54103 43.9078 9.9155 44.0625 10.306 44.0625L20.617 44.0359C21.0062 44.034 21.3788 43.8784 21.6533 43.6031C21.9278 43.3279 22.0819 42.9554 22.0819 42.5672V33.7813C22.0819 33.3917 22.237 33.0182 22.5131 32.7427C22.7892 32.4673 23.1637 32.3125 23.5541 32.3125H29.443C29.8335 32.3125 30.2079 32.4673 30.484 32.7427C30.7601 33.0182 30.9152 33.3917 30.9152 33.7813V42.5607C30.9146 42.754 30.9523 42.9455 31.026 43.1242C31.0997 43.3029 31.208 43.4654 31.3448 43.6023C31.4816 43.7391 31.6441 43.8477 31.823 43.9218C32.0019 43.9959 32.1937 44.0341 32.3875 44.0341L42.6948 44.0625C43.0853 44.0625 43.4598 43.9078 43.7359 43.6323C44.012 43.3569 44.1671 42.9833 44.1671 42.5938V27.5391L27.2061 13.6098C27.0068 13.4495 26.7584 13.362 26.5022 13.362C26.2461 13.362 25.9977 13.4495 25.7983 13.6098V13.6098ZM52.5955 23.0842L44.9032 16.7585V4.04367C44.9032 3.75152 44.7868 3.47133 44.5798 3.26475C44.3727 3.05817 44.0919 2.94211 43.799 2.94211H38.6462C38.3534 2.94211 38.0725 3.05817 37.8655 3.26475C37.6584 3.47133 37.5421 3.75152 37.5421 4.04367V10.709L29.3041 3.94728C28.5135 3.29826 27.5215 2.94341 26.4976 2.94341C25.4738 2.94341 24.4818 3.29826 23.6912 3.94728L0.399743 23.0842C0.287934 23.1764 0.195431 23.2896 0.127517 23.4175C0.0596034 23.5454 0.0176109 23.6854 0.00393896 23.8294C-0.00973302 23.9735 0.00518345 24.1188 0.0478361 24.2572C0.0904887 24.3955 0.160042 24.5241 0.252521 24.6355L2.59887 27.4813C2.6911 27.5931 2.80454 27.6858 2.9327 27.7538C3.06086 27.8219 3.20122 27.8641 3.34574 27.878C3.49027 27.8919 3.63613 27.8773 3.77496 27.8348C3.91379 27.7924 4.04288 27.7231 4.15483 27.6309L25.7983 9.84615C25.9977 9.68581 26.2461 9.59837 26.5022 9.59837C26.7584 9.59837 27.0068 9.68581 27.2061 9.84615L48.8506 27.6309C48.9623 27.7231 49.0912 27.7925 49.2299 27.8351C49.3685 27.8776 49.5142 27.8925 49.6586 27.8789C49.803 27.8652 49.9433 27.8233 50.0715 27.7556C50.1997 27.6878 50.3132 27.5955 50.4056 27.484L52.752 24.6383C52.8443 24.5262 52.9136 24.3969 52.9558 24.258C52.9979 24.1191 53.0121 23.9732 52.9976 23.8288C52.983 23.6844 52.94 23.5442 52.871 23.4165C52.8021 23.2887 52.7084 23.1758 52.5955 23.0842V23.0842Z" fill="#B8E0C2"/>
</g>
<defs>
<clipPath id="clip0_52_439">
<rect width="53" height="47" rx="1" fill="white"/>
</clipPath>
</defs>
</svg>
