<svg width="119" height="119" viewBox="0 0 119 119" fill="none" xmlns="http://www.w3.org/2000/svg">
<path d="M109.334 0.439538L35.1592 22.344C33.6535 22.817 32.3379 23.7578 31.4037 25.0298C30.4694 26.3017 29.9651 27.8385 29.9642 29.4168V90.0162C27.5351 89.4266 25.0456 89.1216 22.546 89.1075C10.2597 89.1075 0.291504 95.7514 0.291504 103.944C0.291504 112.136 10.2597 118.78 22.546 118.78C34.8323 118.78 44.8005 112.136 44.8005 103.944V49.7727L104.146 32.3863V75.1822C101.717 74.5906 99.2274 74.2848 96.7277 74.2712C84.4413 74.2712 74.4732 80.9151 74.4732 89.1075C74.4732 97.2999 84.4413 103.944 96.7277 103.944C109.014 103.944 118.982 97.3022 118.982 89.1075V7.50766C118.981 6.3431 118.706 5.19516 118.179 4.15673C117.652 3.11831 116.887 2.21858 115.948 1.53036C115.008 0.842145 113.92 0.384775 112.771 0.195268C111.622 0.00576125 110.445 0.089442 109.334 0.439538Z" fill="#333333"/>
</svg>
